SplineFontDB: 3.0
FontName: Merriweather-Heavy
FullName: Merriweather Heavy
FamilyName: Merriweather
Weight: Black
Copyright: Copyright (c) 2011, Sorkin Type Co (www.sorkintype.com)\nwith Reserved Font Name "Merriweather".\n\nThis Font Software is licensed under the SIL Open Font License,\nVersion 1.1. This license is available with a FAQ at:\nhttp://scripts.sil.org/OFL
Version: 1.003
ItalicAngle: 0
UnderlinePosition: -76
UnderlineWidth: 234
Ascent: 1638
Descent: 410
LayerCount: 2
Layer: 0 1 "Back"  1
Layer: 1 1 "Fore"  0
XUID: [1021 631 1661839179 15215452]
FSType: 0
OS2Version: 3
OS2_WeightWidthSlopeOnly: 0
OS2_UseTypoMetrics: 1
CreationTime: 1311982140
ModificationTime: 1311969177
PfmFamily: 17
TTFWeight: 900
TTFWidth: 5
LineGap: 0
VLineGap: 0
Panose: 2 6 5 3 5 4 6 3 7 4
OS2TypoAscent: 282
OS2TypoAOffset: 1
OS2TypoDescent: -230
OS2TypoDOffset: 1
OS2TypoLinegap: 0
OS2WinAscent: 0
OS2WinAOffset: 1
OS2WinDescent: 0
OS2WinDOffset: 1
HheadAscent: 0
HheadAOffset: 1
HheadDescent: 0
HheadDOffset: 1
OS2SubXSize: 2937
OS2SubYSize: 2726
OS2SubXOff: 0
OS2SubYOff: 588
OS2SupXSize: 2937
OS2SupYSize: 2726
OS2SupXOff: 0
OS2SupYOff: 2001
OS2StrikeYSize: 236
OS2StrikeYPos: 840
OS2FamilyClass: 768
OS2Vendor: 'STC '
OS2CodePages: 00000001.00000000
OS2UnicodeRanges: 800000af.5000204a.00000000.00000000
Lookup: 4 0 0 "'dlig' Discretionary Ligatures in Latin lookup 0"  {"'dlig' Discretionary Ligatures in Latin lookup 0 subtable"  } ['dlig' ('latn' <'dflt' > ) ]
Lookup: 258 0 0 "'kern' Horizontal Kerning in Latin lookup 0"  {"'kern' Horizontal Kerning in Latin lookup 0 subtable"  } ['kern' ('latn' <'dflt' > ) ]
DEI: 91125
TtTable: prep
PUSHW_1
 511
SCANCTRL
PUSHB_1
 4
SCANTYPE
EndTTInstrs
ShortTable: maxp 16
  1
  0
  345
  129
  7
  0
  0
  1
  0
  0
  0
  0
  0
  0
  0
  0
EndShort

StartChar: .notdef
Encoding: 65536 -1 0
Width: 1770
Flags: W
LayerCount: 2
Fore
SplineSet
177 1416 m 1,0,-1
 1593 1416 l 1,1,-1
 1593 -2 l 1,2,-1
 177 -2 l 1,3,-1
 177 1416 l 1,0,-1
568 171 m 1,4,-1
 877 533 l 1,5,-1
 1227 174 l 1,6,-1
 1418 365 l 1,7,-1
 1053 711 l 1,8,-1
 1423 1064 l 1,9,-1
 1221 1264 l 1,10,-1
 884 889 l 1,11,-1
 536 1254 l 1,12,-1
 342 1055 l 1,13,-1
 704 708 l 1,14,-1
 356 396 l 1,15,-1
 568 171 l 1,4,-1
EndSplineSet
EndChar

StartChar: numbersign
Encoding: 35 35 4
Width: 1489
Flags: W
LayerCount: 2
Fore
SplineSet
330 345 m 1,0,-1
 113 345 l 1,1,-1
 113 564 l 1,2,-1
 349 564 l 1,3,-1
 374 829 l 1,4,-1
 139 829 l 1,5,-1
 139 1045 l 1,6,-1
 388 1045 l 1,7,-1
 426 1355 l 1,8,-1
 672 1355 l 1,9,-1
 645 1045 l 1,10,-1
 888 1045 l 1,11,-1
 916 1355 l 1,12,-1
 1177 1355 l 1,13,-1
 1151 1045 l 1,14,-1
 1376 1045 l 1,15,-1
 1376 829 l 1,16,-1
 1127 829 l 1,17,-1
 1103 564 l 1,18,-1
 1338 564 l 1,19,20
 1338 509 1338 509 1338.5 454.5 c 128,-1,21
 1339 400 1339 400 1339 345 c 1,22,-1
 1083 345 l 1,23,-1
 1052 0 l 1,24,-1
 797 0 l 1,25,-1
 824 345 l 1,26,-1
 590 345 l 1,27,-1
 556 0 l 1,28,-1
 300 0 l 1,29,-1
 330 345 l 1,0,-1
843 564 m 1,30,-1
 866 829 l 1,31,-1
 633 829 l 1,32,-1
 609 564 l 1,33,-1
 843 564 l 1,30,-1
EndSplineSet
EndChar

StartChar: ampersand
Encoding: 38 38 5
Width: 1592
Flags: W
LayerCount: 2
Fore
SplineSet
82 386 m 0,0,1
 82 464 82 464 109.5 522 c 128,-1,2
 137 580 137 580 183.5 624 c 128,-1,3
 230 668 230 668 291 701 c 128,-1,4
 352 734 352 734 420 761 c 1,5,6
 386 805 386 805 353.5 850.5 c 128,-1,7
 321 896 321 896 295.5 944.5 c 128,-1,8
 270 993 270 993 255 1045.5 c 128,-1,9
 240 1098 240 1098 242 1155 c 0,10,11
 245 1255 245 1255 288.5 1330 c 128,-1,12
 332 1405 332 1405 400 1454 c 128,-1,13
 468 1503 468 1503 551.5 1527.5 c 128,-1,14
 635 1552 635 1552 717 1552 c 0,15,16
 811 1552 811 1552 893.5 1528 c 128,-1,17
 976 1504 976 1504 1037 1459.5 c 128,-1,18
 1098 1415 1098 1415 1133 1352.5 c 128,-1,19
 1168 1290 1168 1290 1168 1212 c 0,20,21
 1168 1144 1168 1144 1142.5 1079 c 128,-1,22
 1117 1014 1117 1014 1070.5 956.5 c 128,-1,23
 1024 899 1024 899 958.5 850 c 128,-1,24
 893 801 893 801 812 765 c 1,25,26
 848 718 848 718 892 665 c 128,-1,27
 936 612 936 612 981 559.5 c 128,-1,28
 1026 507 1026 507 1068.5 460 c 128,-1,29
 1111 413 1111 413 1144 379 c 1,30,-1
 1155 366 l 1,31,32
 1161 401 1161 401 1161.5 437 c 128,-1,33
 1162 473 1162 473 1162 507 c 0,34,35
 1162 603 1162 603 1148.5 659.5 c 128,-1,36
 1135 716 1135 716 1124 738 c 1,37,-1
 1437 738 l 1,38,39
 1441 735 1441 735 1447.5 726 c 128,-1,40
 1454 717 1454 717 1460 696.5 c 128,-1,41
 1466 676 1466 676 1470.5 643.5 c 128,-1,42
 1475 611 1475 611 1475 562 c 0,43,44
 1475 475 1475 475 1439 382 c 128,-1,45
 1403 289 1403 289 1336 214 c 1,46,47
 1434 153 1434 153 1520 153 c 1,48,-1
 1520 13 l 1,49,50
 1483 -7 1483 -7 1424 -14 c 128,-1,51
 1365 -21 1365 -21 1300 -16 c 0,52,53
 1274 -14 1274 -14 1248 -10.5 c 128,-1,54
 1222 -7 1222 -7 1195.5 -0.5 c 128,-1,55
 1169 6 1169 6 1140.5 16 c 128,-1,56
 1112 26 1112 26 1081 42 c 1,57,58
 1015 10 1015 10 932 -9 c 128,-1,59
 849 -28 849 -28 736 -28 c 0,60,61
 577 -28 577 -28 454.5 -0.5 c 128,-1,62
 332 27 332 27 249.5 80 c 128,-1,63
 167 133 167 133 124.5 210 c 128,-1,64
 82 287 82 287 82 386 c 0,0,1
720 889 m 1,65,66
 763 918 763 918 790.5 953 c 128,-1,67
 818 988 818 988 833 1030.5 c 128,-1,68
 848 1073 848 1073 853.5 1122.5 c 128,-1,69
 859 1172 859 1172 859 1229 c 0,70,71
 859 1261 859 1261 851 1294 c 128,-1,72
 843 1327 843 1327 825.5 1354 c 128,-1,73
 808 1381 808 1381 780 1398 c 128,-1,74
 752 1415 752 1415 711 1415 c 0,75,76
 688 1415 688 1415 664.5 1408 c 128,-1,77
 641 1401 641 1401 620.5 1384 c 128,-1,78
 600 1367 600 1367 584.5 1338 c 128,-1,79
 569 1309 569 1309 562 1264 c 0,80,81
 552 1201 552 1201 566.5 1145 c 128,-1,82
 581 1089 581 1089 607 1042 c 128,-1,83
 633 995 633 995 664.5 956 c 128,-1,84
 696 917 696 917 720 889 c 1,65,66
427 438 m 0,85,86
 427 350 427 350 455.5 291.5 c 128,-1,87
 484 233 484 233 531 198.5 c 128,-1,88
 578 164 578 164 637.5 149.5 c 128,-1,89
 697 135 697 135 759 135 c 0,90,91
 807 135 807 135 848.5 137.5 c 128,-1,92
 890 140 890 140 925 147 c 1,93,94
 879 188 879 188 827.5 244 c 128,-1,95
 776 300 776 300 723.5 362.5 c 128,-1,96
 671 425 671 425 620.5 490 c 128,-1,97
 570 555 570 555 527 614 c 1,98,99
 487 582 487 582 457 536 c 128,-1,100
 427 490 427 490 427 438 c 0,85,86
EndSplineSet
EndChar

StartChar: quotesingle
Encoding: 39 39 6
Width: 713
Flags: W
LayerCount: 2
Fore
SplineSet
174 1782 m 1,0,-1
 539 1782 l 1,1,-1
 454 956 l 1,2,-1
 259 956 l 1,3,-1
 174 1782 l 1,0,-1
EndSplineSet
EndChar

StartChar: parenleft
Encoding: 40 40 7
Width: 1011
Flags: W
LayerCount: 2
Fore
SplineSet
160 712 m 0,0,1
 160 877 160 877 192.5 1016 c 128,-1,2
 225 1155 225 1155 276.5 1269 c 128,-1,3
 328 1383 328 1383 390 1471 c 128,-1,4
 452 1559 452 1559 511.5 1622 c 128,-1,5
 571 1685 571 1685 620 1722.5 c 128,-1,6
 669 1760 669 1760 694 1773 c 1,7,-1
 837 1661 l 1,8,9
 816 1647 816 1647 784 1618 c 128,-1,10
 752 1589 752 1589 715.5 1540.5 c 128,-1,11
 679 1492 679 1492 641.5 1422.5 c 128,-1,12
 604 1353 604 1353 572.5 1258.5 c 128,-1,13
 541 1164 541 1164 519.5 1042.5 c 128,-1,14
 498 921 498 921 494 768 c 0,15,16
 490 623 490 623 508.5 497.5 c 128,-1,17
 527 372 527 372 559.5 266 c 128,-1,18
 592 160 592 160 634.5 75 c 128,-1,19
 677 -10 677 -10 719.5 -73.5 c 128,-1,20
 762 -137 762 -137 801 -178 c 128,-1,21
 840 -219 840 -219 866 -237 c 1,22,-1
 715 -352 l 1,23,24
 690 -338 690 -338 639.5 -306.5 c 128,-1,25
 589 -275 589 -275 527 -219.5 c 128,-1,26
 465 -164 465 -164 400 -82.5 c 128,-1,27
 335 -1 335 -1 281.5 112.5 c 128,-1,28
 228 226 228 226 194 374.5 c 128,-1,29
 160 523 160 523 160 712 c 0,0,1
EndSplineSet
EndChar

StartChar: parenright
Encoding: 41 41 8
Width: 1011
Flags: W
LayerCount: 2
Fore
SplineSet
174 -250 m 1,0,1
 194 -236 194 -236 226.5 -207 c 128,-1,2
 259 -178 259 -178 295.5 -129.5 c 128,-1,3
 332 -81 332 -81 369.5 -11.5 c 128,-1,4
 407 58 407 58 438.5 152.5 c 128,-1,5
 470 247 470 247 491 368.5 c 128,-1,6
 512 490 512 490 517 643 c 0,7,8
 521 788 521 788 502.5 913.5 c 128,-1,9
 484 1039 484 1039 451.5 1145 c 128,-1,10
 419 1251 419 1251 376.5 1336 c 128,-1,11
 334 1421 334 1421 291.5 1484.5 c 128,-1,12
 249 1548 249 1548 210 1589 c 128,-1,13
 171 1630 171 1630 145 1648 c 1,14,-1
 296 1763 l 1,15,16
 321 1749 321 1749 371.5 1717.5 c 128,-1,17
 422 1686 422 1686 484 1630.5 c 128,-1,18
 546 1575 546 1575 611 1493.5 c 128,-1,19
 676 1412 676 1412 729.5 1298.5 c 128,-1,20
 783 1185 783 1185 817 1036.5 c 128,-1,21
 851 888 851 888 851 699 c 0,22,23
 851 534 851 534 818.5 395 c 128,-1,24
 786 256 786 256 734.5 142 c 128,-1,25
 683 28 683 28 621 -60 c 128,-1,26
 559 -148 559 -148 499.5 -211 c 128,-1,27
 440 -274 440 -274 391 -311.5 c 128,-1,28
 342 -349 342 -349 317 -362 c 1,29,-1
 174 -250 l 1,0,1
EndSplineSet
EndChar

StartChar: asterisk
Encoding: 42 42 9
Width: 1240
Flags: W
LayerCount: 2
Fore
SplineSet
493 1068 m 1,0,-1
 553 1193 l 1,1,-1
 463 1081 l 1,2,-1
 224 881 l 1,3,-1
 73 1084 l 1,4,-1
 383 1252 l 1,5,-1
 511 1274 l 1,6,-1
 386 1290 l 1,7,-1
 70 1434 l 1,8,-1
 220 1660 l 1,9,-1
 463 1460 l 1,10,-1
 553 1357 l 1,11,-1
 493 1490 l 1,12,-1
 472 1799 l 1,13,-1
 750 1798 l 1,14,-1
 729 1490 l 1,15,-1
 658 1357 l 1,16,-1
 753 1473 l 1,17,-1
 996 1657 l 1,18,-1
 1170 1432 l 1,19,-1
 827 1292 l 1,20,-1
 699 1274 l 1,21,-1
 828 1250 l 1,22,-1
 1165 1082 l 1,23,-1
 991 884 l 1,24,-1
 753 1081 l 1,25,-1
 661 1193 l 1,26,-1
 721 1068 l 1,27,-1
 750 755 l 1,28,-1
 472 755 l 1,29,-1
 493 1068 l 1,0,-1
EndSplineSet
EndChar

StartChar: plus
Encoding: 43 43 10
Width: 1320
Flags: W
LayerCount: 2
Fore
SplineSet
529 534 m 1,0,-1
 539 722 l 1,1,-1
 384 712 l 1,2,-1
 173 712 l 1,3,-1
 173 968 l 1,4,-1
 384 968 l 1,5,-1
 539 958 l 1,6,-1
 529 1146 l 1,7,-1
 529 1358 l 1,8,-1
 791 1358 l 1,9,-1
 791 1146 l 1,10,-1
 781 958 l 1,11,-1
 936 968 l 1,12,-1
 1147 968 l 1,13,-1
 1147 712 l 1,14,-1
 936 712 l 1,15,-1
 781 722 l 1,16,-1
 791 534 l 1,17,-1
 791 342 l 1,18,-1
 529 342 l 1,19,-1
 529 534 l 1,0,-1
EndSplineSet
EndChar

StartChar: comma
Encoding: 44 44 11
Width: 797
Flags: W
LayerCount: 2
Fore
SplineSet
181 66 m 1,0,-1
 385 324 l 1,1,2
 455 299 455 299 505 255 c 128,-1,3
 555 211 555 211 587 157 c 128,-1,4
 619 103 619 103 633.5 42 c 128,-1,5
 648 -19 648 -19 647 -78 c 0,6,7
 645 -188 645 -188 608.5 -274 c 128,-1,8
 572 -360 572 -360 516 -424 c 128,-1,9
 460 -488 460 -488 391.5 -531 c 128,-1,10
 323 -574 323 -574 257 -596 c 1,11,-1
 180 -527 l 1,12,-1
 180 -472 l 1,13,14
 206 -460 206 -460 236.5 -439 c 128,-1,15
 267 -418 267 -418 292.5 -385 c 128,-1,16
 318 -352 318 -352 335 -307 c 128,-1,17
 352 -262 352 -262 352 -203 c 0,18,19
 352 -169 352 -169 338 -136 c 128,-1,20
 324 -103 324 -103 301 -77.5 c 128,-1,21
 278 -52 278 -52 246.5 -35 c 128,-1,22
 215 -18 215 -18 181 -15 c 1,23,-1
 181 66 l 1,0,-1
EndSplineSet
EndChar

StartChar: hyphen
Encoding: 45 45 12
Width: 1320
Flags: W
LayerCount: 2
Fore
SplineSet
183 958 m 1,0,-1
 1137 958 l 1,1,-1
 1137 722 l 1,2,-1
 183 722 l 1,3,-1
 183 958 l 1,0,-1
EndSplineSet
EndChar

StartChar: period
Encoding: 46 46 13
Width: 803
Flags: W
LayerCount: 2
Fore
SplineSet
179 157 m 0,0,1
 179 205 179 205 201 246.5 c 128,-1,2
 223 288 223 288 257.5 318.5 c 128,-1,3
 292 349 292 349 334 366.5 c 128,-1,4
 376 384 376 384 417 384 c 0,5,6
 470 384 470 384 509 368.5 c 128,-1,7
 548 353 548 353 573.5 327 c 128,-1,8
 599 301 599 301 611.5 265.5 c 128,-1,9
 624 230 624 230 624 190 c 0,10,11
 624 139 624 139 603 98.5 c 128,-1,12
 582 58 582 58 547.5 29.5 c 128,-1,13
 513 1 513 1 469.5 -14 c 128,-1,14
 426 -29 426 -29 382 -29 c 0,15,16
 344 -29 344 -29 307.5 -16.5 c 128,-1,17
 271 -4 271 -4 242.5 19.5 c 128,-1,18
 214 43 214 43 196.5 77.5 c 128,-1,19
 179 112 179 112 179 157 c 0,0,1
EndSplineSet
EndChar

StartChar: slash
Encoding: 47 47 14
Width: 827
Flags: W
LayerCount: 2
Fore
SplineSet
544 1599 m 1,0,-1
 797 1599 l 1,1,-1
 282 -363 l 1,2,-1
 30 -363 l 1,3,-1
 544 1599 l 1,0,-1
EndSplineSet
EndChar

StartChar: zero
Encoding: 48 48 15
Width: 1404
Flags: W
LayerCount: 2
Fore
SplineSet
104 632 m 0,0,1
 106 729 106 729 131 812.5 c 128,-1,2
 156 896 156 896 199 964.5 c 128,-1,3
 242 1033 242 1033 300.5 1086.5 c 128,-1,4
 359 1140 359 1140 427 1176.5 c 128,-1,5
 495 1213 495 1213 570 1232 c 128,-1,6
 645 1251 645 1251 721 1252 c 0,7,8
 876 1253 876 1253 986 1204.5 c 128,-1,9
 1096 1156 1096 1156 1166.5 1071 c 128,-1,10
 1237 986 1237 986 1269 870.5 c 128,-1,11
 1301 755 1301 755 1300 623 c 0,12,13
 1299 527 1299 527 1276 441.5 c 128,-1,14
 1253 356 1253 356 1212 284.5 c 128,-1,15
 1171 213 1171 213 1115 155.5 c 128,-1,16
 1059 98 1059 98 992 58.5 c 128,-1,17
 925 19 925 19 849.5 -2.5 c 128,-1,18
 774 -24 774 -24 695 -24 c 0,19,20
 543 -24 543 -24 431 30 c 128,-1,21
 319 84 319 84 246 175 c 128,-1,22
 173 266 173 266 137.5 385 c 128,-1,23
 102 504 102 504 104 632 c 0,0,1
716 128 m 0,24,25
 774 126 774 126 812 155 c 128,-1,26
 850 184 850 184 872 244 c 128,-1,27
 894 304 894 304 902.5 396 c 128,-1,28
 911 488 911 488 911 611 c 0,29,30
 911 721 911 721 895.5 810.5 c 128,-1,31
 880 900 880 900 850.5 964 c 128,-1,32
 821 1028 821 1028 779 1063 c 128,-1,33
 737 1098 737 1098 684 1100 c 1,34,35
 626 1101 626 1101 588.5 1071 c 128,-1,36
 551 1041 551 1041 529.5 983 c 128,-1,37
 508 925 508 925 500 841 c 128,-1,38
 492 757 492 757 492 651 c 0,39,40
 492 592 492 592 498.5 530.5 c 128,-1,41
 505 469 505 469 518.5 411.5 c 128,-1,42
 532 354 532 354 551 303 c 128,-1,43
 570 252 570 252 595 213.5 c 128,-1,44
 620 175 620 175 650 152 c 128,-1,45
 680 129 680 129 716 128 c 0,24,25
EndSplineSet
EndChar

StartChar: one
Encoding: 49 49 16
Width: 995
Flags: W
LayerCount: 2
Fore
SplineSet
113 146 m 1,0,-1
 374 187 l 1,1,-1
 374 912 l 1,2,-1
 97 880 l 1,3,-1
 61 1042 l 1,4,5
 93 1051 93 1051 140.5 1068.5 c 128,-1,6
 188 1086 188 1086 241 1107.5 c 128,-1,7
 294 1129 294 1129 348 1153.5 c 128,-1,8
 402 1178 402 1178 448.5 1200 c 128,-1,9
 495 1222 495 1222 529 1240 c 128,-1,10
 563 1258 563 1258 576 1268 c 1,11,-1
 720 1249 l 1,12,-1
 715 186 l 1,13,-1
 952 146 l 1,14,-1
 952 0 l 1,15,-1
 113 0 l 1,16,-1
 113 146 l 1,0,-1
EndSplineSet
EndChar

StartChar: two
Encoding: 50 50 17
Width: 1262
Flags: W
LayerCount: 2
Fore
SplineSet
89 130 m 1,0,1
 166 176 166 176 243 230 c 128,-1,2
 320 284 320 284 390.5 343.5 c 128,-1,3
 461 403 461 403 522.5 465 c 128,-1,4
 584 527 584 527 629 589.5 c 128,-1,5
 674 652 674 652 699.5 712.5 c 128,-1,6
 725 773 725 773 725 829 c 0,7,8
 725 868 725 868 712 907.5 c 128,-1,9
 699 947 699 947 673 978.5 c 128,-1,10
 647 1010 647 1010 606.5 1029.5 c 128,-1,11
 566 1049 566 1049 511 1049 c 0,12,13
 450 1049 450 1049 399.5 1035 c 128,-1,14
 349 1021 349 1021 306.5 1000 c 128,-1,15
 264 979 264 979 229 953.5 c 128,-1,16
 194 928 194 928 165 905 c 1,17,-1
 79 1034 l 1,18,19
 97 1060 97 1060 143 1099 c 128,-1,20
 189 1138 189 1138 259.5 1174.5 c 128,-1,21
 330 1211 330 1211 421.5 1237 c 128,-1,22
 513 1263 513 1263 622 1263 c 0,23,24
 734 1263 734 1263 821.5 1233.5 c 128,-1,25
 909 1204 909 1204 969.5 1155 c 128,-1,26
 1030 1106 1030 1106 1061.5 1042 c 128,-1,27
 1093 978 1093 978 1093 910 c 0,28,29
 1093 841 1093 841 1075 780 c 128,-1,30
 1057 719 1057 719 1021 662 c 128,-1,31
 985 605 985 605 931.5 549.5 c 128,-1,32
 878 494 878 494 805.5 436 c 128,-1,33
 733 378 733 378 642.5 315 c 128,-1,34
 552 252 552 252 443 180 c 1,35,-1
 969 251 l 1,36,-1
 1061 369 l 1,37,-1
 1206 325 l 1,38,-1
 1137 0 l 1,39,-1
 139 0 l 1,40,-1
 89 130 l 1,0,1
EndSplineSet
EndChar

StartChar: three
Encoding: 51 51 18
Width: 1115
Flags: W
LayerCount: 2
Fore
SplineSet
113 -134 m 1,0,1
 229 -163 229 -163 334.5 -152 c 128,-1,2
 440 -141 440 -141 519.5 -97.5 c 128,-1,3
 599 -54 599 -54 646 19.5 c 128,-1,4
 693 93 693 93 693 190 c 0,5,6
 693 208 693 208 691 233.5 c 128,-1,7
 689 259 689 259 681.5 287 c 128,-1,8
 674 315 674 315 659 343.5 c 128,-1,9
 644 372 644 372 617 396 c 128,-1,10
 590 420 590 420 549 438 c 128,-1,11
 508 456 508 456 450 463 c 1,12,-1
 235 418 l 1,13,-1
 235 602 l 1,14,15
 262 604 262 604 300 613 c 128,-1,16
 338 622 338 622 379 638.5 c 128,-1,17
 420 655 420 655 460.5 680 c 128,-1,18
 501 705 501 705 532.5 739 c 128,-1,19
 564 773 564 773 584 816.5 c 128,-1,20
 604 860 604 860 604 915 c 0,21,22
 604 957 604 957 588.5 986.5 c 128,-1,23
 573 1016 573 1016 549 1035 c 128,-1,24
 525 1054 525 1054 495.5 1062.5 c 128,-1,25
 466 1071 466 1071 438 1071 c 0,26,27
 378 1071 378 1071 331 1060.5 c 128,-1,28
 284 1050 284 1050 247 1035 c 128,-1,29
 210 1020 210 1020 181.5 1002.5 c 128,-1,30
 153 985 153 985 130 970 c 1,31,-1
 44 1097 l 1,32,33
 58 1112 58 1112 96.5 1140.5 c 128,-1,34
 135 1169 135 1169 196 1197.5 c 128,-1,35
 257 1226 257 1226 339 1247.5 c 128,-1,36
 421 1269 421 1269 521 1269 c 0,37,38
 596 1269 596 1269 670 1251 c 128,-1,39
 744 1233 744 1233 803.5 1193 c 128,-1,40
 863 1153 863 1153 900 1088.5 c 128,-1,41
 937 1024 937 1024 937 932 c 0,42,43
 937 874 937 874 911 816 c 128,-1,44
 885 758 885 758 842 707.5 c 128,-1,45
 799 657 799 657 743.5 619 c 128,-1,46
 688 581 688 581 630 563 c 1,47,48
 718 562 718 562 792.5 535.5 c 128,-1,49
 867 509 867 509 921.5 461.5 c 128,-1,50
 976 414 976 414 1006.5 347.5 c 128,-1,51
 1037 281 1037 281 1037 200 c 0,52,53
 1037 121 1037 121 1007.5 45.5 c 128,-1,54
 978 -30 978 -30 922.5 -96 c 128,-1,55
 867 -162 867 -162 786.5 -213.5 c 128,-1,56
 706 -265 706 -265 603.5 -295.5 c 128,-1,57
 501 -326 501 -326 378 -332 c 128,-1,58
 255 -338 255 -338 114 -311 c 1,59,60
 114 -264 114 -264 113.5 -222.5 c 128,-1,61
 113 -181 113 -181 113 -134 c 1,0,1
EndSplineSet
EndChar

StartChar: four
Encoding: 52 52 19
Width: 1308
Flags: W
LayerCount: 2
Fore
SplineSet
75 130 m 1,0,1
 120 205 120 205 174 294 c 128,-1,2
 228 383 228 383 285 480.5 c 128,-1,3
 342 578 342 578 400.5 681 c 128,-1,4
 459 784 459 784 514 886 c 128,-1,5
 569 988 569 988 618.5 1086.5 c 128,-1,6
 668 1185 668 1185 708 1274 c 1,7,-1
 807 1274 l 1,8,-1
 1037 1120 l 1,9,-1
 426 250 l 1,10,-1
 355 164 l 1,11,-1
 802 211 l 1,12,-1
 818 589 l 1,13,-1
 1094 622 l 1,14,-1
 1094 241 l 1,15,-1
 1274 260 l 1,16,-1
 1274 0 l 1,17,-1
 1094 0 l 1,18,-1
 1094 -376 l 1,19,-1
 779 -376 l 1,20,-1
 794 0 l 1,21,-1
 124 0 l 1,22,-1
 75 130 l 1,0,1
EndSplineSet
EndChar

StartChar: five
Encoding: 53 53 20
Width: 1139
Flags: W
LayerCount: 2
Fore
SplineSet
108 -182 m 1,0,1
 218 -191 218 -191 322.5 -173.5 c 128,-1,2
 427 -156 427 -156 508.5 -107.5 c 128,-1,3
 590 -59 590 -59 639.5 23.5 c 128,-1,4
 689 106 689 106 689 227 c 0,5,6
 689 298 689 298 668 360.5 c 128,-1,7
 647 423 647 423 597.5 464 c 128,-1,8
 548 505 548 505 465.5 517.5 c 128,-1,9
 383 530 383 530 260 501 c 1,10,-1
 129 541 l 1,11,-1
 191 1237 l 1,12,-1
 857 1237 l 1,13,-1
 885 1274 l 1,14,-1
 1014 1274 l 1,15,-1
 930 973 l 1,16,-1
 421 973 l 1,17,-1
 357 673 l 1,18,19
 471 707 471 707 567 708 c 128,-1,20
 663 709 663 709 740 686 c 128,-1,21
 817 663 817 663 875.5 619.5 c 128,-1,22
 934 576 934 576 973 520 c 128,-1,23
 1012 464 1012 464 1032 399 c 128,-1,24
 1052 334 1052 334 1052 268 c 0,25,26
 1052 165 1052 165 1018.5 78.5 c 128,-1,27
 985 -8 985 -8 926.5 -76.5 c 128,-1,28
 868 -145 868 -145 789 -196.5 c 128,-1,29
 710 -248 710 -248 619 -282.5 c 128,-1,30
 528 -317 528 -317 428.5 -334 c 128,-1,31
 329 -351 329 -351 231 -351 c 0,32,33
 205 -351 205 -351 170 -348 c 128,-1,34
 135 -345 135 -345 108 -337 c 1,35,-1
 108 -182 l 1,0,1
EndSplineSet
EndChar

StartChar: six
Encoding: 54 54 21
Width: 1348
Flags: W
LayerCount: 2
Fore
SplineSet
114 550 m 0,0,1
 114 686 114 686 152 807.5 c 128,-1,2
 190 929 190 929 255.5 1034 c 128,-1,3
 321 1139 321 1139 410 1225.5 c 128,-1,4
 499 1312 499 1312 600.5 1378 c 128,-1,5
 702 1444 702 1444 811.5 1488 c 128,-1,6
 921 1532 921 1532 1029 1551 c 1,7,-1
 1107 1403 l 1,8,9
 1033 1384 1033 1384 956.5 1345.5 c 128,-1,10
 880 1307 880 1307 808.5 1252.5 c 128,-1,11
 737 1198 737 1198 674 1129 c 128,-1,12
 611 1060 611 1060 564 979.5 c 128,-1,13
 517 899 517 899 490 809 c 128,-1,14
 463 719 463 719 463 622 c 0,15,16
 463 577 463 577 465 522 c 128,-1,17
 467 467 467 467 474 411.5 c 128,-1,18
 481 356 481 356 496 304 c 128,-1,19
 511 252 511 252 537 211.5 c 128,-1,20
 563 171 563 171 602.5 146.5 c 128,-1,21
 642 122 642 122 698 122 c 0,22,23
 732 122 732 122 770 138 c 128,-1,24
 808 154 808 154 839.5 194 c 128,-1,25
 871 234 871 234 891.5 302 c 128,-1,26
 912 370 912 370 912 474 c 0,27,28
 912 521 912 521 897.5 570.5 c 128,-1,29
 883 620 883 620 854.5 661 c 128,-1,30
 826 702 826 702 785 728.5 c 128,-1,31
 744 755 744 755 691 755 c 0,32,33
 618 755 618 755 565 727 c 1,34,-1
 518 822 l 1,35,36
 530 842 530 842 557.5 867.5 c 128,-1,37
 585 893 585 893 625.5 915.5 c 128,-1,38
 666 938 666 938 719 953 c 128,-1,39
 772 968 772 968 836 968 c 0,40,41
 938 968 938 968 1015 934.5 c 128,-1,42
 1092 901 1092 901 1143.5 842 c 128,-1,43
 1195 783 1195 783 1221.5 703.5 c 128,-1,44
 1248 624 1248 624 1248 531 c 0,45,46
 1248 413 1248 413 1208 311.5 c 128,-1,47
 1168 210 1168 210 1092 135.5 c 128,-1,48
 1016 61 1016 61 907.5 18.5 c 128,-1,49
 799 -24 799 -24 662 -24 c 0,50,51
 534 -24 534 -24 432 22 c 128,-1,52
 330 68 330 68 259.5 146.5 c 128,-1,53
 189 225 189 225 151.5 329 c 128,-1,54
 114 433 114 433 114 550 c 0,0,1
EndSplineSet
EndChar

StartChar: seven
Encoding: 55 55 22
Width: 1232
Flags: W
LayerCount: 2
Fore
SplineSet
263 -215 m 1,0,1
 343 -68 343 -68 422 84.5 c 128,-1,2
 501 237 501 237 580 398 c 128,-1,3
 659 559 659 559 738.5 730 c 128,-1,4
 818 901 818 901 899 1085 c 1,5,-1
 403 1059 l 1,6,-1
 328 829 l 1,7,-1
 118 833 l 1,8,-1
 155 1253 l 1,9,-1
 1119 1253 l 1,10,-1
 1177 1190 l 1,11,-1
 606 -336 l 1,12,-1
 263 -215 l 1,0,1
EndSplineSet
EndChar

StartChar: eight
Encoding: 56 56 23
Width: 1297
Flags: W
LayerCount: 2
Fore
SplineSet
99 373 m 0,0,1
 99 427 99 427 118 487 c 128,-1,2
 137 547 137 547 177 603 c 128,-1,3
 217 659 217 659 279 706 c 128,-1,4
 341 753 341 753 427 782 c 1,5,6
 374 821 374 821 327 863 c 128,-1,7
 280 905 280 905 244.5 953 c 128,-1,8
 209 1001 209 1001 188.5 1056 c 128,-1,9
 168 1111 168 1111 168 1174 c 0,10,11
 168 1274 168 1274 211 1347.5 c 128,-1,12
 254 1421 254 1421 324 1470 c 128,-1,13
 394 1519 394 1519 482 1543 c 128,-1,14
 570 1567 570 1567 660 1567 c 0,15,16
 754 1567 754 1567 840 1545.5 c 128,-1,17
 926 1524 926 1524 992 1479 c 128,-1,18
 1058 1434 1058 1434 1097.5 1365.5 c 128,-1,19
 1137 1297 1137 1297 1137 1203 c 0,20,21
 1137 1150 1137 1150 1113.5 1095 c 128,-1,22
 1090 1040 1090 1040 1052 991 c 128,-1,23
 1014 942 1014 942 967 903.5 c 128,-1,24
 920 865 920 865 873 846 c 1,25,26
 938 802 938 802 998.5 754.5 c 128,-1,27
 1059 707 1059 707 1106 654.5 c 128,-1,28
 1153 602 1153 602 1181 542.5 c 128,-1,29
 1209 483 1209 483 1209 416 c 0,30,31
 1209 338 1209 338 1187 274.5 c 128,-1,32
 1165 211 1165 211 1126.5 162 c 128,-1,33
 1088 113 1088 113 1036 78 c 128,-1,34
 984 43 984 43 923.5 20.5 c 128,-1,35
 863 -2 863 -2 797 -13 c 128,-1,36
 731 -24 731 -24 666 -24 c 0,37,38
 560 -24 560 -24 458.5 -3 c 128,-1,39
 357 18 357 18 277 65.5 c 128,-1,40
 197 113 197 113 148 188.5 c 128,-1,41
 99 264 99 264 99 373 c 0,0,1
743 932 m 1,42,43
 801 974 801 974 828.5 1038 c 128,-1,44
 856 1102 856 1102 855 1182 c 0,45,46
 855 1237 855 1237 837.5 1281.5 c 128,-1,47
 820 1326 820 1326 790.5 1358 c 128,-1,48
 761 1390 761 1390 723 1407.5 c 128,-1,49
 685 1425 685 1425 643 1425 c 0,50,51
 614 1425 614 1425 582 1415 c 128,-1,52
 550 1405 550 1405 523.5 1384 c 128,-1,53
 497 1363 497 1363 479.5 1330.5 c 128,-1,54
 462 1298 462 1298 462 1253 c 256,55,56
 462 1208 462 1208 484.5 1166.5 c 128,-1,57
 507 1125 507 1125 545.5 1085.5 c 128,-1,58
 584 1046 584 1046 635 1008 c 128,-1,59
 686 970 686 970 743 932 c 1,42,43
409 456 m 0,60,61
 409 382 409 382 430.5 320.5 c 128,-1,62
 452 259 452 259 489 215 c 128,-1,63
 526 171 526 171 576 146.5 c 128,-1,64
 626 122 626 122 682 122 c 0,65,66
 718 122 718 122 754 132.5 c 128,-1,67
 790 143 790 143 819.5 168.5 c 128,-1,68
 849 194 849 194 867.5 236 c 128,-1,69
 886 278 886 278 886 340 c 0,70,71
 886 393 886 393 858 439.5 c 128,-1,72
 830 486 830 486 783.5 528.5 c 128,-1,73
 737 571 737 571 677 612 c 128,-1,74
 617 653 617 653 553 695 c 1,75,76
 523 672 523 672 497 645.5 c 128,-1,77
 471 619 471 619 451.5 589.5 c 128,-1,78
 432 560 432 560 420.5 526.5 c 128,-1,79
 409 493 409 493 409 456 c 0,60,61
EndSplineSet
EndChar

StartChar: nine
Encoding: 57 57 24
Width: 1331
Flags: W
LayerCount: 2
Fore
SplineSet
281 -261 m 1,0,1
 355 -242 355 -242 428 -197 c 128,-1,2
 501 -152 501 -152 567 -88 c 128,-1,3
 633 -24 633 -24 689 56.5 c 128,-1,4
 745 137 745 137 786.5 227.5 c 128,-1,5
 828 318 828 318 851.5 414.5 c 128,-1,6
 875 511 875 511 875 608 c 0,7,8
 875 653 875 653 873 708 c 128,-1,9
 871 763 871 763 864 818.5 c 128,-1,10
 857 874 857 874 842 926 c 128,-1,11
 827 978 827 978 801 1018.5 c 128,-1,12
 775 1059 775 1059 735.5 1083.5 c 128,-1,13
 696 1108 696 1108 640 1108 c 0,14,15
 606 1108 606 1108 568 1092 c 128,-1,16
 530 1076 530 1076 498.5 1036 c 128,-1,17
 467 996 467 996 446.5 928 c 128,-1,18
 426 860 426 860 426 756 c 0,19,20
 426 709 426 709 440.5 659.5 c 128,-1,21
 455 610 455 610 483.5 569 c 128,-1,22
 512 528 512 528 553 501.5 c 128,-1,23
 594 475 594 475 647 475 c 0,24,25
 720 475 720 475 773 503 c 1,26,-1
 820 408 l 1,27,28
 807 385 807 385 782.5 359 c 128,-1,29
 758 333 758 333 720 311.5 c 128,-1,30
 682 290 682 290 628 276 c 128,-1,31
 574 262 574 262 502 262 c 0,32,33
 400 262 400 262 323 295.5 c 128,-1,34
 246 329 246 329 194.5 388 c 128,-1,35
 143 447 143 447 116.5 526.5 c 128,-1,36
 90 606 90 606 90 699 c 0,37,38
 90 817 90 817 130 918.5 c 128,-1,39
 170 1020 170 1020 246 1094.5 c 128,-1,40
 322 1169 322 1169 430.5 1211.5 c 128,-1,41
 539 1254 539 1254 676 1254 c 0,42,43
 804 1254 804 1254 906 1208 c 128,-1,44
 1008 1162 1008 1162 1078.5 1083.5 c 128,-1,45
 1149 1005 1149 1005 1186.5 901 c 128,-1,46
 1224 797 1224 797 1224 680 c 0,47,48
 1224 544 1224 544 1190 416 c 128,-1,49
 1156 288 1156 288 1095.5 173.5 c 128,-1,50
 1035 59 1035 59 952.5 -39.5 c 128,-1,51
 870 -138 870 -138 774 -213.5 c 128,-1,52
 678 -289 678 -289 572 -339.5 c 128,-1,53
 466 -390 466 -390 359 -409 c 1,54,-1
 281 -261 l 1,0,1
EndSplineSet
EndChar

StartChar: colon
Encoding: 58 58 25
Width: 803
Flags: W
LayerCount: 2
Fore
SplineSet
382 702 m 0,0,1
 344 702 344 702 307.5 714.5 c 128,-1,2
 271 727 271 727 242.5 750.5 c 128,-1,3
 214 774 214 774 196.5 808.5 c 128,-1,4
 179 843 179 843 179 888 c 0,5,6
 179 936 179 936 201 977.5 c 128,-1,7
 223 1019 223 1019 257.5 1049.5 c 128,-1,8
 292 1080 292 1080 334 1097.5 c 128,-1,9
 376 1115 376 1115 417 1115 c 0,10,11
 470 1115 470 1115 509 1099.5 c 128,-1,12
 548 1084 548 1084 573.5 1058 c 128,-1,13
 599 1032 599 1032 611.5 996.5 c 128,-1,14
 624 961 624 961 624 921 c 0,15,16
 624 870 624 870 603 829.5 c 128,-1,17
 582 789 582 789 547.5 760.5 c 128,-1,18
 513 732 513 732 469.5 717 c 128,-1,19
 426 702 426 702 382 702 c 0,0,1
179 150 m 0,20,21
 179 198 179 198 201 239.5 c 128,-1,22
 223 281 223 281 257.5 311.5 c 128,-1,23
 292 342 292 342 334 359.5 c 128,-1,24
 376 377 376 377 417 377 c 0,25,26
 470 377 470 377 509 361.5 c 128,-1,27
 548 346 548 346 573.5 320 c 128,-1,28
 599 294 599 294 611.5 258.5 c 128,-1,29
 624 223 624 223 624 183 c 0,30,31
 624 132 624 132 603 91.5 c 128,-1,32
 582 51 582 51 547.5 22.5 c 128,-1,33
 513 -6 513 -6 469.5 -21 c 128,-1,34
 426 -36 426 -36 382 -36 c 0,35,36
 344 -36 344 -36 307.5 -23.5 c 128,-1,37
 271 -11 271 -11 242.5 12.5 c 128,-1,38
 214 36 214 36 196.5 70.5 c 128,-1,39
 179 105 179 105 179 150 c 0,20,21
EndSplineSet
EndChar

StartChar: semicolon
Encoding: 59 59 26
Width: 828
Flags: W
LayerCount: 2
Fore
SplineSet
383 702 m 0,0,1
 345 702 345 702 308.5 714.5 c 128,-1,2
 272 727 272 727 243.5 750.5 c 128,-1,3
 215 774 215 774 197.5 808.5 c 128,-1,4
 180 843 180 843 180 888 c 0,5,6
 180 936 180 936 202 977.5 c 128,-1,7
 224 1019 224 1019 258.5 1049.5 c 128,-1,8
 293 1080 293 1080 335 1097.5 c 128,-1,9
 377 1115 377 1115 418 1115 c 0,10,11
 471 1115 471 1115 510 1099.5 c 128,-1,12
 549 1084 549 1084 574.5 1058 c 128,-1,13
 600 1032 600 1032 612.5 996.5 c 128,-1,14
 625 961 625 961 625 921 c 0,15,16
 625 870 625 870 604 829.5 c 128,-1,17
 583 789 583 789 548.5 760.5 c 128,-1,18
 514 732 514 732 470.5 717 c 128,-1,19
 427 702 427 702 383 702 c 0,0,1
212 66 m 1,20,-1
 416 324 l 1,21,22
 486 299 486 299 536 255 c 128,-1,23
 586 211 586 211 618 157 c 128,-1,24
 650 103 650 103 664.5 42 c 128,-1,25
 679 -19 679 -19 678 -78 c 0,26,27
 676 -188 676 -188 639.5 -274 c 128,-1,28
 603 -360 603 -360 547 -424 c 128,-1,29
 491 -488 491 -488 422.5 -531 c 128,-1,30
 354 -574 354 -574 288 -596 c 1,31,-1
 211 -527 l 1,32,-1
 211 -472 l 1,33,34
 237 -460 237 -460 267.5 -439 c 128,-1,35
 298 -418 298 -418 323.5 -385 c 128,-1,36
 349 -352 349 -352 366 -307 c 128,-1,37
 383 -262 383 -262 383 -203 c 0,38,39
 383 -169 383 -169 369 -136 c 128,-1,40
 355 -103 355 -103 332 -77.5 c 128,-1,41
 309 -52 309 -52 277.5 -35 c 128,-1,42
 246 -18 246 -18 212 -15 c 1,43,-1
 212 66 l 1,20,-1
EndSplineSet
EndChar

StartChar: less
Encoding: 60 60 27
Width: 1335
Flags: W
LayerCount: 2
Fore
SplineSet
183 837 m 1,0,-1
 1152 1340 l 1,1,-1
 1152 1047 l 1,2,-1
 557 767 l 1,3,-1
 1152 521 l 1,4,-1
 1152 217 l 1,5,-1
 183 703 l 1,6,-1
 183 837 l 1,0,-1
EndSplineSet
EndChar

StartChar: equal
Encoding: 61 61 28
Width: 1320
Flags: W
LayerCount: 2
Fore
SplineSet
183 1210 m 1,0,-1
 1137 1210 l 1,1,-1
 1137 979 l 1,2,-1
 183 979 l 1,3,-1
 183 1210 l 1,0,-1
183 662 m 1,4,-1
 1137 662 l 1,5,-1
 1137 430 l 1,6,-1
 183 430 l 1,7,-1
 183 662 l 1,4,-1
EndSplineSet
EndChar

StartChar: greater
Encoding: 62 62 29
Width: 1335
Flags: W
LayerCount: 2
Fore
SplineSet
183 493 m 1,0,-1
 778 772 l 1,1,-1
 183 1019 l 1,2,-1
 183 1323 l 1,3,-1
 1152 837 l 1,4,-1
 1152 703 l 1,5,-1
 183 200 l 1,6,-1
 183 493 l 1,0,-1
EndSplineSet
EndChar

StartChar: question
Encoding: 63 63 30
Width: 1063
Flags: W
LayerCount: 2
Fore
SplineSet
363 543 m 1,0,1
 318 586 318 586 286.5 629 c 128,-1,2
 255 672 255 672 235 712.5 c 128,-1,3
 215 753 215 753 205.5 789 c 128,-1,4
 196 825 196 825 196 853 c 0,5,6
 196 892 196 892 218.5 923 c 128,-1,7
 241 954 241 954 278.5 978.5 c 128,-1,8
 316 1003 316 1003 364 1022.5 c 128,-1,9
 412 1042 412 1042 463 1058 c 128,-1,10
 514 1074 514 1074 563 1088 c 128,-1,11
 612 1102 612 1102 652 1116 c 128,-1,12
 692 1130 692 1130 719 1144.5 c 128,-1,13
 746 1159 746 1159 751 1177 c 1,14,15
 747 1254 747 1254 721.5 1313 c 128,-1,16
 696 1372 696 1372 657 1415.5 c 128,-1,17
 618 1459 618 1459 570.5 1488.5 c 128,-1,18
 523 1518 523 1518 475 1535.5 c 128,-1,19
 427 1553 427 1553 384 1561.5 c 128,-1,20
 341 1570 341 1570 311 1571 c 0,21,22
 218 1575 218 1575 163.5 1567 c 128,-1,23
 109 1559 109 1559 83 1538 c 1,24,-1
 68 1810 l 1,25,26
 75 1820 75 1820 101 1830 c 128,-1,27
 127 1840 127 1840 163 1847.5 c 128,-1,28
 199 1855 199 1855 240 1858.5 c 128,-1,29
 281 1862 281 1862 318 1861 c 0,30,31
 440 1856 440 1856 534 1827.5 c 128,-1,32
 628 1799 628 1799 698.5 1754.5 c 128,-1,33
 769 1710 769 1710 817 1653 c 128,-1,34
 865 1596 865 1596 894.5 1534 c 128,-1,35
 924 1472 924 1472 937.5 1407.5 c 128,-1,36
 951 1343 951 1343 952 1284.5 c 128,-1,37
 953 1226 953 1226 943.5 1176 c 128,-1,38
 934 1126 934 1126 918 1092 c 1,39,40
 909 1077 909 1077 882.5 1061.5 c 128,-1,41
 856 1046 856 1046 819 1029.5 c 128,-1,42
 782 1013 782 1013 739.5 995 c 128,-1,43
 697 977 697 977 656.5 957.5 c 128,-1,44
 616 938 616 938 581 916 c 128,-1,45
 546 894 546 894 526 870 c 0,46,47
 514 856 514 856 514 830.5 c 128,-1,48
 514 805 514 805 521 772.5 c 128,-1,49
 528 740 528 740 540.5 705 c 128,-1,50
 553 670 553 670 566.5 638 c 128,-1,51
 580 606 580 606 592.5 580.5 c 128,-1,52
 605 555 605 555 613 543 c 1,53,-1
 363 543 l 1,0,1
335 154 m 0,54,55
 335 202 335 202 357 243.5 c 128,-1,56
 379 285 379 285 413.5 315.5 c 128,-1,57
 448 346 448 346 490 363.5 c 128,-1,58
 532 381 532 381 573 381 c 0,59,60
 626 381 626 381 665 365.5 c 128,-1,61
 704 350 704 350 729.5 324 c 128,-1,62
 755 298 755 298 767.5 262.5 c 128,-1,63
 780 227 780 227 780 187 c 0,64,65
 780 136 780 136 759 95.5 c 128,-1,66
 738 55 738 55 703.5 26.5 c 128,-1,67
 669 -2 669 -2 625.5 -17 c 128,-1,68
 582 -32 582 -32 538 -32 c 0,69,70
 500 -32 500 -32 463.5 -19.5 c 128,-1,71
 427 -7 427 -7 398.5 16.5 c 128,-1,72
 370 40 370 40 352.5 74.5 c 128,-1,73
 335 109 335 109 335 154 c 0,54,55
EndSplineSet
EndChar

StartChar: at
Encoding: 64 64 31
Width: 2282
Flags: W
LayerCount: 2
Fore
SplineSet
140 381 m 0,0,1
 140 549 140 549 189.5 694.5 c 128,-1,2
 239 840 239 840 324 960 c 128,-1,3
 409 1080 409 1080 523 1173.5 c 128,-1,4
 637 1267 637 1267 765 1331 c 128,-1,5
 893 1395 893 1395 1029 1428.5 c 128,-1,6
 1165 1462 1165 1462 1294 1462 c 0,7,8
 1455 1462 1455 1462 1581.5 1436 c 128,-1,9
 1708 1410 1708 1410 1803.5 1364.5 c 128,-1,10
 1899 1319 1899 1319 1966.5 1257 c 128,-1,11
 2034 1195 2034 1195 2076 1123.5 c 128,-1,12
 2118 1052 2118 1052 2137 974 c 128,-1,13
 2156 896 2156 896 2156 818 c 0,14,15
 2156 707 2156 707 2132 607.5 c 128,-1,16
 2108 508 2108 508 2065.5 423 c 128,-1,17
 2023 338 2023 338 1964.5 269 c 128,-1,18
 1906 200 1906 200 1836 150.5 c 128,-1,19
 1766 101 1766 101 1688 71.5 c 128,-1,20
 1610 42 1610 42 1528 37 c 0,21,22
 1472 34 1472 34 1437 48.5 c 128,-1,23
 1402 63 1402 63 1382.5 91.5 c 128,-1,24
 1363 120 1363 120 1356 159.5 c 128,-1,25
 1349 199 1349 199 1349 246 c 0,26,27
 1349 263 1349 263 1353 305.5 c 128,-1,28
 1357 348 1357 348 1363 398 c 1,29,30
 1334 332 1334 332 1293.5 267 c 128,-1,31
 1253 202 1253 202 1204 149 c 128,-1,32
 1155 96 1155 96 1097.5 62 c 128,-1,33
 1040 28 1040 28 976 25 c 0,34,35
 917 22 917 22 857 47 c 128,-1,36
 797 72 797 72 748 119.5 c 128,-1,37
 699 167 699 167 668 234.5 c 128,-1,38
 637 302 637 302 637 385 c 0,39,40
 637 485 637 485 657.5 572 c 128,-1,41
 678 659 678 659 713.5 732.5 c 128,-1,42
 749 806 749 806 796.5 864.5 c 128,-1,43
 844 923 844 923 897.5 964.5 c 128,-1,44
 951 1006 951 1006 1008 1030 c 128,-1,45
 1065 1054 1065 1054 1119 1058 c 0,46,47
 1165 1061 1165 1061 1201.5 1059 c 128,-1,48
 1238 1057 1238 1057 1270.5 1050 c 128,-1,49
 1303 1043 1303 1043 1333 1032.5 c 128,-1,50
 1363 1022 1363 1022 1396 1009 c 1,51,52
 1407 1035 1407 1035 1422 1051 c 128,-1,53
 1437 1067 1437 1067 1458 1062 c 0,54,55
 1521 1046 1521 1046 1577 1026 c 128,-1,56
 1633 1006 1633 1006 1696 988 c 1,57,58
 1678 875 1678 875 1655.5 755 c 128,-1,59
 1633 635 1633 635 1620 492 c 0,60,61
 1613 414 1613 414 1613 361 c 128,-1,62
 1613 308 1613 308 1617 275.5 c 128,-1,63
 1621 243 1621 243 1626.5 229 c 128,-1,64
 1632 215 1632 215 1637 215 c 0,65,66
 1662 215 1662 215 1691.5 237 c 128,-1,67
 1721 259 1721 259 1750 297 c 128,-1,68
 1779 335 1779 335 1806 385 c 128,-1,69
 1833 435 1833 435 1853.5 492 c 128,-1,70
 1874 549 1874 549 1886 610 c 128,-1,71
 1898 671 1898 671 1898 730 c 0,72,73
 1898 842 1898 842 1872 928 c 128,-1,74
 1846 1014 1846 1014 1799.5 1077.5 c 128,-1,75
 1753 1141 1753 1141 1688.5 1184.5 c 128,-1,76
 1624 1228 1624 1228 1547 1254 c 128,-1,77
 1470 1280 1470 1280 1382.5 1291.5 c 128,-1,78
 1295 1303 1295 1303 1203 1303 c 0,79,80
 1121 1303 1121 1303 1031.5 1277.5 c 128,-1,81
 942 1252 942 1252 857 1203 c 128,-1,82
 772 1154 772 1154 695 1083 c 128,-1,83
 618 1012 618 1012 560 922 c 128,-1,84
 502 832 502 832 468 723.5 c 128,-1,85
 434 615 434 615 434 491 c 0,86,87
 434 354 434 354 461.5 248.5 c 128,-1,88
 489 143 489 143 538 64.5 c 128,-1,89
 587 -14 587 -14 654 -67.5 c 128,-1,90
 721 -121 721 -121 800.5 -154 c 128,-1,91
 880 -187 880 -187 968.5 -201 c 128,-1,92
 1057 -215 1057 -215 1149 -215 c 0,93,94
 1202 -215 1202 -215 1264.5 -207 c 128,-1,95
 1327 -199 1327 -199 1384.5 -187 c 128,-1,96
 1442 -175 1442 -175 1489 -161 c 128,-1,97
 1536 -147 1536 -147 1557 -134 c 1,98,-1
 1622 -262 l 1,99,100
 1548 -315 1548 -315 1416.5 -346.5 c 128,-1,101
 1285 -378 1285 -378 1111 -378 c 0,102,103
 890 -378 890 -378 711 -326.5 c 128,-1,104
 532 -275 532 -275 405 -177.5 c 128,-1,105
 278 -80 278 -80 209 61 c 128,-1,106
 140 202 140 202 140 381 c 0,0,1
927 502 m 0,107,108
 927 454 927 454 932.5 408 c 128,-1,109
 938 362 938 362 949.5 326.5 c 128,-1,110
 961 291 961 291 979.5 269 c 128,-1,111
 998 247 998 247 1025 247 c 0,112,113
 1040 247 1040 247 1065.5 271 c 128,-1,114
 1091 295 1091 295 1121.5 336 c 128,-1,115
 1152 377 1152 377 1184.5 433 c 128,-1,116
 1217 489 1217 489 1245.5 553 c 128,-1,117
 1274 617 1274 617 1296.5 686 c 128,-1,118
 1319 755 1319 755 1329 823 c 1,119,120
 1318 830 1318 830 1296 837 c 128,-1,121
 1274 844 1274 844 1249.5 849.5 c 128,-1,122
 1225 855 1225 855 1201 858.5 c 128,-1,123
 1177 862 1177 862 1162 862 c 0,124,125
 1116 862 1116 862 1073.5 841.5 c 128,-1,126
 1031 821 1031 821 998.5 777.5 c 128,-1,127
 966 734 966 734 946.5 666 c 128,-1,128
 927 598 927 598 927 502 c 0,107,108
EndSplineSet
EndChar

StartChar: A
Encoding: 65 65 32
Width: 1600
Flags: W
LayerCount: 2
Fore
SplineSet
5 140 m 1,0,-1
 138 180 l 1,1,-1
 631 1553 l 1,2,-1
 964 1553 l 1,3,-1
 1443 178 l 1,4,-1
 1595 138 l 1,5,-1
 1595 0 l 1,6,-1
 911 0 l 1,7,-1
 911 138 l 1,8,-1
 1045 183 l 1,9,-1
 1002 335 l 1,10,-1
 461 335 l 1,11,-1
 416 187 l 1,12,-1
 565 140 l 1,13,-1
 565 0 l 1,14,-1
 5 0 l 1,15,-1
 5 140 l 1,0,-1
948 521 m 1,16,-1
 815 979 l 1,17,-1
 742 1253 l 1,18,-1
 518 521 l 1,19,-1
 948 521 l 1,16,-1
EndSplineSet
EndChar

StartChar: B
Encoding: 66 66 33
Width: 1457
Flags: W
LayerCount: 2
Fore
SplineSet
80 140 m 1,0,-1
 235 183 l 1,1,-1
 235 1367 l 1,2,-1
 84 1389 l 1,3,-1
 84 1553 l 1,4,-1
 396 1553 l 1,5,6
 393 1555 393 1555 423.5 1556.5 c 128,-1,7
 454 1558 454 1558 504 1559.5 c 128,-1,8
 554 1561 554 1561 617.5 1563 c 128,-1,9
 681 1565 681 1565 745 1567 c 0,10,11
 883 1571 883 1571 988 1546.5 c 128,-1,12
 1093 1522 1093 1522 1163.5 1473.5 c 128,-1,13
 1234 1425 1234 1425 1269.5 1354.5 c 128,-1,14
 1305 1284 1305 1284 1305 1197 c 0,15,16
 1305 1136 1305 1136 1289 1079 c 128,-1,17
 1273 1022 1273 1022 1240.5 974.5 c 128,-1,18
 1208 927 1208 927 1159 891.5 c 128,-1,19
 1110 856 1110 856 1043 838 c 1,20,21
 1117 838 1117 838 1183.5 808.5 c 128,-1,22
 1250 779 1250 779 1300.5 728 c 128,-1,23
 1351 677 1351 677 1381 609 c 128,-1,24
 1411 541 1411 541 1411 464 c 0,25,26
 1411 348 1411 348 1373.5 259.5 c 128,-1,27
 1336 171 1336 171 1252 111 c 128,-1,28
 1168 51 1168 51 1032.5 20 c 128,-1,29
 897 -11 897 -11 701 -11 c 0,30,31
 656 -11 656 -11 614 -9.5 c 128,-1,32
 572 -8 572 -8 526.5 -5.5 c 128,-1,33
 481 -3 481 -3 427.5 -1.5 c 128,-1,34
 374 0 374 0 306 0 c 2,35,-1
 80 0 l 1,36,-1
 80 140 l 1,0,-1
589 882 m 1,37,38
 605 877 605 877 635 875.5 c 128,-1,39
 665 874 665 874 719 874 c 0,40,41
 780 874 780 874 821.5 888.5 c 128,-1,42
 863 903 863 903 890.5 927 c 128,-1,43
 918 951 918 951 933 982.5 c 128,-1,44
 948 1014 948 1014 954.5 1047 c 128,-1,45
 961 1080 961 1080 962.5 1112.5 c 128,-1,46
 964 1145 964 1145 964 1172 c 0,47,48
 964 1220 964 1220 952.5 1264 c 128,-1,49
 941 1308 941 1308 911 1341.5 c 128,-1,50
 881 1375 881 1375 829 1394.5 c 128,-1,51
 777 1414 777 1414 697 1414 c 0,52,53
 686 1414 686 1414 671 1413 c 128,-1,54
 656 1412 656 1412 641 1410.5 c 128,-1,55
 626 1409 626 1409 612.5 1406 c 128,-1,56
 599 1403 599 1403 591 1399 c 1,57,-1
 589 882 l 1,37,38
587 164 m 1,58,59
 612 151 612 151 667.5 144 c 128,-1,60
 723 137 723 137 792 137 c 0,61,62
 866 137 866 137 914 167.5 c 128,-1,63
 962 198 962 198 989.5 244.5 c 128,-1,64
 1017 291 1017 291 1027.5 345.5 c 128,-1,65
 1038 400 1038 400 1038 448 c 0,66,67
 1038 500 1038 500 1026.5 549.5 c 128,-1,68
 1015 599 1015 599 985.5 638 c 128,-1,69
 956 677 956 677 906 700.5 c 128,-1,70
 856 724 856 724 778 724 c 0,71,72
 733 724 733 724 684.5 723 c 128,-1,73
 636 722 636 722 587 712 c 1,74,-1
 587 164 l 1,58,59
EndSplineSet
EndChar

StartChar: C
Encoding: 67 67 34
Width: 1475
Flags: W
LayerCount: 2
Fore
SplineSet
68 724 m 0,0,1
 68 853 68 853 102 966 c 128,-1,2
 136 1079 136 1079 196 1172.5 c 128,-1,3
 256 1266 256 1266 338.5 1339.5 c 128,-1,4
 421 1413 421 1413 518.5 1463.5 c 128,-1,5
 616 1514 616 1514 725.5 1540.5 c 128,-1,6
 835 1567 835 1567 948 1567 c 0,7,8
 1024 1567 1024 1567 1087 1559.5 c 128,-1,9
 1150 1552 1150 1552 1202 1542 c 128,-1,10
 1254 1532 1254 1532 1295.5 1521 c 128,-1,11
 1337 1510 1337 1510 1372 1503 c 1,12,-1
 1352 1114 l 1,13,-1
 1142 1114 l 1,14,-1
 1069 1319 l 1,15,16
 1059 1334 1059 1334 1044.5 1345.5 c 128,-1,17
 1030 1357 1030 1357 1006 1365 c 128,-1,18
 982 1373 982 1373 945 1377.5 c 128,-1,19
 908 1382 908 1382 853 1382 c 0,20,21
 770 1382 770 1382 699 1344.5 c 128,-1,22
 628 1307 628 1307 575.5 1235 c 128,-1,23
 523 1163 523 1163 493 1057.5 c 128,-1,24
 463 952 463 952 463 816 c 0,25,26
 463 730 463 730 475 646.5 c 128,-1,27
 487 563 487 563 510.5 488 c 128,-1,28
 534 413 534 413 568.5 350 c 128,-1,29
 603 287 603 287 649 241 c 128,-1,30
 695 195 695 195 752 169 c 128,-1,31
 809 143 809 143 876 143 c 0,32,33
 939 143 939 143 982 149.5 c 128,-1,34
 1025 156 1025 156 1052.5 167 c 128,-1,35
 1080 178 1080 178 1095 192.5 c 128,-1,36
 1110 207 1110 207 1117 223 c 2,37,-1
 1199 424 l 1,38,-1
 1373 424 l 1,39,-1
 1373 67 l 1,40,41
 1335 65 1335 65 1292 50 c 128,-1,42
 1249 35 1249 35 1189 18 c 128,-1,43
 1129 1 1129 1 1047 -13.5 c 128,-1,44
 965 -28 965 -28 851 -28 c 0,45,46
 659 -28 659 -28 512.5 30.5 c 128,-1,47
 366 89 366 89 267.5 191 c 128,-1,48
 169 293 169 293 118.5 430 c 128,-1,49
 68 567 68 567 68 724 c 0,0,1
EndSplineSet
EndChar

StartChar: D
Encoding: 68 68 35
Width: 1616
Flags: W
LayerCount: 2
Fore
SplineSet
90 140 m 1,0,-1
 235 180 l 1,1,-1
 235 1368 l 1,2,-1
 94 1389 l 1,3,-1
 94 1553 l 1,4,-1
 422 1553 l 2,5,6
 455 1553 455 1553 495.5 1555 c 128,-1,7
 536 1557 536 1557 581.5 1560 c 128,-1,8
 627 1563 627 1563 676 1565 c 128,-1,9
 725 1567 725 1567 773 1567 c 0,10,11
 978 1567 978 1567 1125.5 1512 c 128,-1,12
 1273 1457 1273 1457 1367.5 1358.5 c 128,-1,13
 1462 1260 1462 1260 1506.5 1123 c 128,-1,14
 1551 986 1551 986 1551 822 c 0,15,16
 1551 625 1551 625 1492 470.5 c 128,-1,17
 1433 316 1433 316 1326.5 209.5 c 128,-1,18
 1220 103 1220 103 1072 46.5 c 128,-1,19
 924 -10 924 -10 746 -10 c 0,20,21
 708 -10 708 -10 664.5 -8.5 c 128,-1,22
 621 -7 621 -7 578 -4.5 c 128,-1,23
 535 -2 535 -2 496 -0.5 c 128,-1,24
 457 1 457 1 428 1 c 0,25,26
 343 1 343 1 259 0.5 c 128,-1,27
 175 0 175 0 90 0 c 1,28,-1
 90 140 l 1,0,-1
593 179 m 1,29,30
 630 156 630 156 690 148.5 c 128,-1,31
 750 141 750 141 830 149 c 0,32,33
 905 156 905 156 968 202 c 128,-1,34
 1031 248 1031 248 1077.5 327 c 128,-1,35
 1124 406 1124 406 1150 513 c 128,-1,36
 1176 620 1176 620 1176 748 c 0,37,38
 1176 1077 1176 1077 1069.5 1240 c 128,-1,39
 963 1403 963 1403 749 1407 c 0,40,41
 727 1407 727 1407 704 1405 c 128,-1,42
 681 1403 681 1403 660 1399.5 c 128,-1,43
 639 1396 639 1396 621.5 1390.5 c 128,-1,44
 604 1385 604 1385 593 1378 c 1,45,-1
 593 179 l 1,29,30
EndSplineSet
EndChar

StartChar: E
Encoding: 69 69 36
Width: 1426
Flags: W
LayerCount: 2
Fore
SplineSet
101 140 m 1,0,-1
 248 179 l 1,1,-1
 248 1367 l 1,2,-1
 106 1389 l 1,3,-1
 106 1553 l 1,4,-1
 1241 1553 l 1,5,-1
 1272 1211 l 1,6,-1
 1067 1211 l 1,7,-1
 973 1371 l 1,8,-1
 603 1392 l 1,9,-1
 603 873 l 1,10,-1
 859 883 l 1,11,-1
 913 1032 l 1,12,-1
 1094 1032 l 1,13,-1
 1094 544 l 1,14,-1
 913 544 l 1,15,-1
 859 703 l 1,16,-1
 603 709 l 1,17,-1
 603 160 l 1,18,-1
 1042 188 l 1,19,-1
 1169 386 l 1,20,-1
 1377 349 l 1,21,-1
 1323 0 l 1,22,-1
 101 0 l 1,23,-1
 101 140 l 1,0,-1
EndSplineSet
EndChar

StartChar: F
Encoding: 70 70 37
Width: 1323
Flags: W
LayerCount: 2
Fore
SplineSet
85 140 m 1,0,-1
 235 173 l 1,1,-1
 235 1369 l 1,2,-1
 80 1389 l 1,3,-1
 80 1553 l 1,4,-1
 1226 1553 l 1,5,-1
 1258 1205 l 1,6,-1
 1081 1203 l 1,7,-1
 1010 1356 l 1,8,-1
 590 1379 l 1,9,-1
 590 855 l 1,10,-1
 879 867 l 1,11,-1
 944 1020 l 1,12,-1
 1094 1020 l 1,13,-1
 1094 509 l 1,14,-1
 928 509 l 1,15,-1
 883 673 l 1,16,-1
 591 678 l 1,17,-1
 591 187 l 1,18,-1
 912 159 l 1,19,-1
 912 0 l 1,20,-1
 85 0 l 1,21,-1
 85 140 l 1,0,-1
EndSplineSet
EndChar

StartChar: G
Encoding: 71 71 38
Width: 1585
Flags: W
LayerCount: 2
Fore
SplineSet
65 748 m 0,0,1
 65 941 65 941 127 1093.5 c 128,-1,2
 189 1246 189 1246 299.5 1351 c 128,-1,3
 410 1456 410 1456 561.5 1511.5 c 128,-1,4
 713 1567 713 1567 893 1567 c 0,5,6
 993 1567 993 1567 1078.5 1560.5 c 128,-1,7
 1164 1554 1164 1554 1230.5 1545 c 128,-1,8
 1297 1536 1297 1536 1341 1526.5 c 128,-1,9
 1385 1517 1385 1517 1402 1511 c 1,10,-1
 1380 1170 l 1,11,-1
 1200 1170 l 1,12,-1
 1108 1349 l 2,13,14
 1104 1355 1104 1355 1087 1365.5 c 128,-1,15
 1070 1376 1070 1376 1040 1385.5 c 128,-1,16
 1010 1395 1010 1395 968 1402.5 c 128,-1,17
 926 1410 926 1410 872 1410 c 0,18,19
 771 1410 771 1410 693 1365.5 c 128,-1,20
 615 1321 615 1321 561 1242.5 c 128,-1,21
 507 1164 507 1164 479 1057.5 c 128,-1,22
 451 951 451 951 451 828 c 0,23,24
 451 738 451 738 460 651 c 128,-1,25
 469 564 469 564 488 486.5 c 128,-1,26
 507 409 507 409 538 344 c 128,-1,27
 569 279 569 279 612.5 231.5 c 128,-1,28
 656 184 656 184 713.5 157.5 c 128,-1,29
 771 131 771 131 844 131 c 0,30,31
 892 131 892 131 937 142 c 128,-1,32
 982 153 982 153 1017.5 171 c 128,-1,33
 1053 189 1053 189 1076 211.5 c 128,-1,34
 1099 234 1099 234 1102 258 c 1,35,-1
 1102 515 l 1,36,-1
 891 542 l 1,37,-1
 891 708 l 1,38,-1
 1509 708 l 1,39,-1
 1509 542 l 1,40,-1
 1415 519 l 1,41,-1
 1415 54 l 1,42,43
 1350 62 1350 62 1276.5 50 c 128,-1,44
 1203 38 1203 38 1122.5 21 c 128,-1,45
 1042 4 1042 4 955.5 -12 c 128,-1,46
 869 -28 869 -28 780 -28 c 0,47,48
 615 -28 615 -28 483 32 c 128,-1,49
 351 92 351 92 258 197 c 128,-1,50
 165 302 165 302 115 443.5 c 128,-1,51
 65 585 65 585 65 748 c 0,0,1
EndSplineSet
EndChar

StartChar: H
Encoding: 72 72 39
Width: 1780
Flags: W
LayerCount: 2
Fore
SplineSet
65 140 m 1,0,-1
 235 182 l 1,1,-1
 235 1366 l 1,2,-1
 59 1389 l 1,3,-1
 59 1553 l 1,4,-1
 766 1553 l 1,5,-1
 766 1389 l 1,6,-1
 593 1367 l 1,7,-1
 593 882 l 1,8,-1
 1188 882 l 1,9,-1
 1188 1370 l 1,10,-1
 1019 1389 l 1,11,-1
 1019 1553 l 1,12,-1
 1720 1553 l 1,13,-1
 1720 1389 l 1,14,-1
 1545 1368 l 1,15,-1
 1545 181 l 1,16,-1
 1730 138 l 1,17,-1
 1730 0 l 1,18,-1
 1005 0 l 1,19,-1
 1005 138 l 1,20,-1
 1188 180 l 1,21,-1
 1188 691 l 1,22,-1
 593 691 l 1,23,-1
 593 182 l 1,24,-1
 777 140 l 1,25,-1
 777 0 l 1,26,-1
 65 0 l 1,27,-1
 65 140 l 1,0,-1
EndSplineSet
EndChar

StartChar: I
Encoding: 73 73 40
Width: 848
Flags: W
LayerCount: 2
Fore
SplineSet
55 140 m 1,0,-1
 243 181 l 1,1,-1
 243 1365 l 1,2,-1
 55 1389 l 1,3,-1
 55 1553 l 1,4,-1
 782 1553 l 1,5,-1
 782 1389 l 1,6,-1
 604 1364 l 1,7,-1
 604 183 l 1,8,-1
 793 140 l 1,9,-1
 793 0 l 1,10,-1
 55 0 l 1,11,-1
 55 140 l 1,0,-1
EndSplineSet
EndChar

StartChar: J
Encoding: 74 74 41
Width: 787
Flags: W
LayerCount: 2
Fore
SplineSet
182 -47 m 1,0,1
 198 -3 198 -3 207.5 44.5 c 128,-1,2
 217 92 217 92 222.5 147 c 128,-1,3
 228 202 228 202 230 265.5 c 128,-1,4
 232 329 232 329 232 406 c 2,5,-1
 232 1367 l 1,6,-1
 84 1389 l 1,7,-1
 84 1553 l 1,8,-1
 736 1553 l 1,9,-1
 736 1389 l 1,10,-1
 593 1366 l 1,11,-1
 593 534 l 2,12,13
 593 445 593 445 589.5 357.5 c 128,-1,14
 586 270 586 270 578.5 193.5 c 128,-1,15
 571 117 571 117 559.5 56 c 128,-1,16
 548 -5 548 -5 533 -41 c 0,17,18
 507 -101 507 -101 467 -150 c 128,-1,19
 427 -199 427 -199 378 -238 c 128,-1,20
 329 -277 329 -277 274 -306 c 128,-1,21
 219 -335 219 -335 164 -354.5 c 128,-1,22
 109 -374 109 -374 56 -384.5 c 128,-1,23
 3 -395 3 -395 -42 -396 c 1,24,-1
 -112 -295 l 1,25,26
 -63 -276 -63 -276 -18.5 -253 c 128,-1,27
 26 -230 26 -230 63.5 -200 c 128,-1,28
 101 -170 101 -170 131 -132.5 c 128,-1,29
 161 -95 161 -95 182 -47 c 1,0,1
EndSplineSet
EndChar

StartChar: K
Encoding: 75 75 42
Width: 1535
Flags: W
LayerCount: 2
Fore
SplineSet
46 140 m 1,0,-1
 235 183 l 1,1,-1
 235 1364 l 1,2,-1
 43 1389 l 1,3,-1
 43 1553 l 1,4,-1
 767 1553 l 1,5,-1
 767 1389 l 1,6,-1
 589 1364 l 1,7,-1
 589 797 l 1,8,-1
 1049 1366 l 1,9,-1
 890 1389 l 1,10,-1
 887 1553 l 1,11,-1
 1506 1553 l 1,12,-1
 1506 1389 l 1,13,-1
 1319 1363 l 1,14,-1
 888 889 l 1,15,16
 921 860 921 860 956.5 816.5 c 128,-1,17
 992 773 992 773 1028.5 721 c 128,-1,18
 1065 669 1065 669 1102 612 c 128,-1,19
 1139 555 1139 555 1174.5 498 c 128,-1,20
 1210 441 1210 441 1244 388.5 c 128,-1,21
 1278 336 1278 336 1309 292.5 c 128,-1,22
 1340 249 1340 249 1366.5 218.5 c 128,-1,23
 1393 188 1393 188 1415 177 c 1,24,-1
 1545 140 l 1,25,-1
 1545 0 l 1,26,-1
 1122 0 l 2,27,28
 1100 0 1100 0 1076.5 24.5 c 128,-1,29
 1053 49 1053 49 1028 90 c 128,-1,30
 1003 131 1003 131 977.5 184.5 c 128,-1,31
 952 238 952 238 925.5 296.5 c 128,-1,32
 899 355 899 355 871.5 414 c 128,-1,33
 844 473 844 473 816 525.5 c 128,-1,34
 788 578 788 578 759.5 619.5 c 128,-1,35
 731 661 731 661 703 684 c 1,36,-1
 589 558 l 1,37,-1
 589 182 l 1,38,-1
 790 140 l 1,39,-1
 790 0 l 1,40,-1
 46 0 l 1,41,-1
 46 140 l 1,0,-1
EndSplineSet
EndChar

StartChar: L
Encoding: 76 76 43
Width: 1293
Flags: W
LayerCount: 2
Fore
SplineSet
93 140 m 1,0,-1
 235 178 l 1,1,-1
 235 1347 l 1,2,-1
 98 1368 l 1,3,-1
 98 1553 l 1,4,-1
 776 1553 l 1,5,-1
 776 1368 l 1,6,-1
 594 1346 l 1,7,-1
 594 163 l 1,8,-1
 954 202 l 1,9,-1
 1121 439 l 1,10,-1
 1273 383 l 1,11,-1
 1204 0 l 1,12,-1
 93 0 l 1,13,-1
 93 140 l 1,0,-1
EndSplineSet
EndChar

StartChar: M
Encoding: 77 77 44
Width: 2060
Flags: W
LayerCount: 2
Fore
SplineSet
62 140 m 1,0,-1
 234 182 l 1,1,-1
 304 1343 l 1,2,-1
 119 1366 l 1,3,-1
 119 1553 l 1,4,-1
 798 1553 l 1,5,-1
 1039 757 l 1,6,-1
 1072 555 l 1,7,-1
 1114 757 l 1,8,-1
 1340 1553 l 1,9,-1
 1966 1553 l 1,10,-1
 1966 1366 l 1,11,-1
 1779 1344 l 1,12,-1
 1883 181 l 1,13,-1
 2040 138 l 1,14,-1
 2040 0 l 1,15,-1
 1377 0 l 1,16,-1
 1377 138 l 1,17,-1
 1542 183 l 1,18,-1
 1486 949 l 1,19,-1
 1482 1355 l 1,20,-1
 1448 1217 l 1,21,-1
 1093 -18 l 1,22,-1
 963 -18 l 1,23,-1
 633 972 l 1,24,-1
 513 1347 l 1,25,-1
 509 1069 l 1,26,-1
 479 185 l 1,27,-1
 663 140 l 1,28,-1
 663 0 l 1,29,-1
 62 0 l 1,30,-1
 62 140 l 1,0,-1
EndSplineSet
EndChar

StartChar: N
Encoding: 78 78 45
Width: 1706
Flags: W
LayerCount: 2
Fore
SplineSet
78 140 m 1,0,-1
 235 185 l 1,1,-1
 235 1346 l 1,2,-1
 85 1368 l 1,3,-1
 85 1553 l 1,4,-1
 594 1553 l 1,5,-1
 1196 505 l 1,6,-1
 1284 269 l 1,7,-1
 1284 1342 l 1,8,-1
 1104 1370 l 1,9,-1
 1104 1553 l 1,10,-1
 1648 1553 l 1,11,-1
 1648 1370 l 1,12,-1
 1511 1348 l 1,13,-1
 1511 0 l 1,14,-1
 1119 0 l 1,15,-1
 574 917 l 1,16,-1
 465 1187 l 1,17,18
 465 936 465 936 465.5 686.5 c 128,-1,19
 466 437 466 437 466 189 c 1,20,-1
 669 140 l 1,21,-1
 669 0 l 1,22,-1
 78 0 l 1,23,-1
 78 140 l 1,0,-1
EndSplineSet
EndChar

StartChar: O
Encoding: 79 79 46
Width: 1600
Flags: W
LayerCount: 2
Fore
SplineSet
66 754 m 0,0,1
 69 880 69 880 99.5 989 c 128,-1,2
 130 1098 130 1098 181.5 1188.5 c 128,-1,3
 233 1279 233 1279 303.5 1349.5 c 128,-1,4
 374 1420 374 1420 456.5 1468.5 c 128,-1,5
 539 1517 539 1517 631 1542 c 128,-1,6
 723 1567 723 1567 818 1567 c 0,7,8
 981 1567 981 1567 1115 1508.5 c 128,-1,9
 1249 1450 1249 1450 1343 1346 c 128,-1,10
 1437 1242 1437 1242 1487 1100 c 128,-1,11
 1537 958 1537 958 1534 790 c 0,12,13
 1530 601 1530 601 1472.5 449.5 c 128,-1,14
 1415 298 1415 298 1316.5 192 c 128,-1,15
 1218 86 1218 86 1085 29 c 128,-1,16
 952 -28 952 -28 797 -28 c 0,17,18
 627 -28 627 -28 490 32 c 128,-1,19
 353 92 353 92 258 197.5 c 128,-1,20
 163 303 163 303 113 446 c 128,-1,21
 63 589 63 589 66 754 c 0,0,1
810 132 m 0,22,23
 907 132 907 132 971.5 173 c 128,-1,24
 1036 214 1036 214 1073.5 296 c 128,-1,25
 1111 378 1111 378 1126.5 501 c 128,-1,26
 1142 624 1142 624 1142 789 c 0,27,28
 1142 854 1142 854 1134 925 c 128,-1,29
 1126 996 1126 996 1109.5 1064 c 128,-1,30
 1093 1132 1093 1132 1066.5 1193.5 c 128,-1,31
 1040 1255 1040 1255 1003 1301 c 128,-1,32
 966 1347 966 1347 918 1374.5 c 128,-1,33
 870 1402 870 1402 809 1402 c 0,34,35
 710 1402 710 1402 642.5 1359.5 c 128,-1,36
 575 1317 575 1317 534.5 1235 c 128,-1,37
 494 1153 494 1153 476.5 1032.5 c 128,-1,38
 459 912 459 912 459 755 c 0,39,40
 459 696 459 696 467 627 c 128,-1,41
 475 558 475 558 492.5 489 c 128,-1,42
 510 420 510 420 538 355.5 c 128,-1,43
 566 291 566 291 605 241.5 c 128,-1,44
 644 192 644 192 695 162 c 128,-1,45
 746 132 746 132 810 132 c 0,22,23
EndSplineSet
EndChar

StartChar: P
Encoding: 80 80 47
Width: 1368
Flags: W
LayerCount: 2
Fore
SplineSet
60 140 m 1,0,-1
 235 183 l 1,1,-1
 235 1346 l 1,2,-1
 63 1380 l 1,3,-1
 63 1553 l 1,4,-1
 421 1553 l 2,5,6
 458 1553 458 1553 496.5 1555 c 128,-1,7
 535 1557 535 1557 576.5 1560 c 128,-1,8
 618 1563 618 1563 664.5 1565 c 128,-1,9
 711 1567 711 1567 764 1567 c 0,10,11
 885 1567 885 1567 994 1548 c 128,-1,12
 1103 1529 1103 1529 1185.5 1478.5 c 128,-1,13
 1268 1428 1268 1428 1316.5 1340 c 128,-1,14
 1365 1252 1365 1252 1365 1113 c 0,15,16
 1365 988 1365 988 1318.5 892.5 c 128,-1,17
 1272 797 1272 797 1191 732.5 c 128,-1,18
 1110 668 1110 668 1000 635 c 128,-1,19
 890 602 890 602 763 602 c 0,20,21
 704 602 704 602 661 602 c 128,-1,22
 618 602 618 602 587 604 c 1,23,-1
 587 182 l 1,24,-1
 832 140 l 1,25,-1
 832 0 l 1,26,-1
 60 0 l 1,27,-1
 60 140 l 1,0,-1
587 783 m 1,28,29
 602 780 602 780 624 777.5 c 128,-1,30
 646 775 646 775 669 774 c 128,-1,31
 692 773 692 773 715 772.5 c 128,-1,32
 738 772 738 772 756 772 c 0,33,34
 808 772 808 772 855.5 790 c 128,-1,35
 903 808 903 808 938 850 c 128,-1,36
 973 892 973 892 994 960.5 c 128,-1,37
 1015 1029 1015 1029 1015 1130 c 0,38,39
 1015 1201 1015 1201 992.5 1252.5 c 128,-1,40
 970 1304 970 1304 930 1337 c 128,-1,41
 890 1370 890 1370 836.5 1386.5 c 128,-1,42
 783 1403 783 1403 720 1404 c 0,43,44
 708 1404 708 1404 688 1403 c 128,-1,45
 668 1402 668 1402 648 1400.5 c 128,-1,46
 628 1399 628 1399 611 1396.5 c 128,-1,47
 594 1394 594 1394 587 1391 c 1,48,-1
 587 783 l 1,28,29
EndSplineSet
EndChar

StartChar: Q
Encoding: 81 81 48
Width: 1600
Flags: W
LayerCount: 2
Fore
SplineSet
66 754 m 0,0,1
 69 880 69 880 99.5 989 c 128,-1,2
 130 1098 130 1098 181.5 1188.5 c 128,-1,3
 233 1279 233 1279 303.5 1349.5 c 128,-1,4
 374 1420 374 1420 456.5 1468.5 c 128,-1,5
 539 1517 539 1517 631 1542 c 128,-1,6
 723 1567 723 1567 818 1567 c 0,7,8
 981 1567 981 1567 1115 1508.5 c 128,-1,9
 1249 1450 1249 1450 1343 1346 c 128,-1,10
 1437 1242 1437 1242 1487 1100 c 128,-1,11
 1537 958 1537 958 1534 790 c 1,12,13
 1530 631 1530 631 1488.5 498.5 c 128,-1,14
 1447 366 1447 366 1374.5 264.5 c 128,-1,15
 1302 163 1302 163 1203 94.5 c 128,-1,16
 1104 26 1104 26 985 -4 c 1,17,18
 1004 -47 1004 -47 1033 -72.5 c 128,-1,19
 1062 -98 1062 -98 1096 -111.5 c 128,-1,20
 1130 -125 1130 -125 1166 -129 c 128,-1,21
 1202 -133 1202 -133 1233.5 -131.5 c 128,-1,22
 1265 -130 1265 -130 1290 -126.5 c 128,-1,23
 1315 -123 1315 -123 1328 -122 c 0,24,25
 1355 -118 1355 -118 1379.5 -112.5 c 128,-1,26
 1404 -107 1404 -107 1424.5 -101 c 128,-1,27
 1445 -95 1445 -95 1460 -90 c 128,-1,28
 1475 -85 1475 -85 1484 -82 c 1,29,-1
 1484 -302 l 1,30,31
 1466 -319 1466 -319 1439.5 -335 c 128,-1,32
 1413 -351 1413 -351 1376.5 -363.5 c 128,-1,33
 1340 -376 1340 -376 1293 -383.5 c 128,-1,34
 1246 -391 1246 -391 1188 -391 c 0,35,36
 1135 -391 1135 -391 1078.5 -376 c 128,-1,37
 1022 -361 1022 -361 971 -321 c 128,-1,38
 920 -281 920 -281 879.5 -210 c 128,-1,39
 839 -139 839 -139 817 -27 c 1,40,41
 812 -27 812 -27 807 -27.5 c 128,-1,42
 802 -28 802 -28 797 -28 c 0,43,44
 627 -28 627 -28 490 32 c 128,-1,45
 353 92 353 92 258 197.5 c 128,-1,46
 163 303 163 303 113 446 c 128,-1,47
 63 589 63 589 66 754 c 0,0,1
810 132 m 0,48,49
 907 132 907 132 971.5 173 c 128,-1,50
 1036 214 1036 214 1073.5 296 c 128,-1,51
 1111 378 1111 378 1126.5 501 c 128,-1,52
 1142 624 1142 624 1142 789 c 0,53,54
 1142 854 1142 854 1134 925 c 128,-1,55
 1126 996 1126 996 1109.5 1064 c 128,-1,56
 1093 1132 1093 1132 1066.5 1193.5 c 128,-1,57
 1040 1255 1040 1255 1003 1301 c 128,-1,58
 966 1347 966 1347 918 1374.5 c 128,-1,59
 870 1402 870 1402 809 1402 c 0,60,61
 710 1402 710 1402 642.5 1359.5 c 128,-1,62
 575 1317 575 1317 534.5 1235 c 128,-1,63
 494 1153 494 1153 476.5 1032.5 c 128,-1,64
 459 912 459 912 459 755 c 0,65,66
 459 696 459 696 467 627 c 128,-1,67
 475 558 475 558 492.5 489 c 128,-1,68
 510 420 510 420 538 355.5 c 128,-1,69
 566 291 566 291 605 241.5 c 128,-1,70
 644 192 644 192 695 162 c 128,-1,71
 746 132 746 132 810 132 c 0,48,49
EndSplineSet
EndChar

StartChar: R
Encoding: 82 82 49
Width: 1525
Flags: W
LayerCount: 2
Fore
SplineSet
61 140 m 1,0,-1
 235 183 l 1,1,-1
 235 1356 l 1,2,-1
 80 1380 l 1,3,-1
 80 1553 l 1,4,-1
 305 1553 l 2,5,6
 448 1553 448 1553 565.5 1560 c 128,-1,7
 683 1567 683 1567 760 1567 c 0,8,9
 888 1567 888 1567 998.5 1545 c 128,-1,10
 1109 1523 1109 1523 1190 1474 c 128,-1,11
 1271 1425 1271 1425 1317.5 1348 c 128,-1,12
 1364 1271 1364 1271 1364 1161 c 0,13,14
 1364 983 1364 983 1282 866.5 c 128,-1,15
 1200 750 1200 750 1026 691 c 1,16,17
 1067 669 1067 669 1103.5 626.5 c 128,-1,18
 1140 584 1140 584 1173 532.5 c 128,-1,19
 1206 481 1206 481 1236.5 425 c 128,-1,20
 1267 369 1267 369 1296.5 319.5 c 128,-1,21
 1326 270 1326 270 1355 231.5 c 128,-1,22
 1384 193 1384 193 1415 177 c 1,23,-1
 1545 140 l 1,24,-1
 1545 0 l 1,25,-1
 1122 0 l 2,26,27
 1097 0 1097 0 1073.5 27.5 c 128,-1,28
 1050 55 1050 55 1026.5 100.5 c 128,-1,29
 1003 146 1003 146 979 204 c 128,-1,30
 955 262 955 262 931 322.5 c 128,-1,31
 907 383 907 383 881.5 440.5 c 128,-1,32
 856 498 856 498 828.5 543.5 c 128,-1,33
 801 589 801 589 771.5 617 c 128,-1,34
 742 645 742 645 710 645 c 0,35,36
 678 644 678 644 647.5 644.5 c 128,-1,37
 617 645 617 645 589 644 c 1,38,-1
 589 178 l 1,39,-1
 780 140 l 1,40,-1
 780 0 l 1,41,-1
 61 0 l 1,42,-1
 61 140 l 1,0,-1
589 809 m 1,43,44
 612 805 612 805 638.5 803 c 128,-1,45
 665 801 665 801 692.5 800.5 c 128,-1,46
 720 800 720 800 747 801.5 c 128,-1,47
 774 803 774 803 798 806 c 0,48,49
 832 811 832 811 871.5 826 c 128,-1,50
 911 841 911 841 944 876.5 c 128,-1,51
 977 912 977 912 999 971.5 c 128,-1,52
 1021 1031 1021 1031 1021 1124 c 0,53,54
 1021 1173 1021 1173 1005.5 1223 c 128,-1,55
 990 1273 990 1273 953.5 1313 c 128,-1,56
 917 1353 917 1353 857.5 1378 c 128,-1,57
 798 1403 798 1403 710 1403 c 0,58,59
 696 1403 696 1403 678.5 1403 c 128,-1,60
 661 1403 661 1403 644 1401.5 c 128,-1,61
 627 1400 627 1400 612.5 1397.5 c 128,-1,62
 598 1395 598 1395 589 1391 c 1,63,-1
 589 809 l 1,43,44
EndSplineSet
EndChar

StartChar: S
Encoding: 83 83 50
Width: 1316
Flags: W
LayerCount: 2
Fore
SplineSet
137 469 m 1,0,-1
 287 469 l 1,1,-1
 380 228 l 1,2,3
 407 193 407 193 439.5 172.5 c 128,-1,4
 472 152 472 152 508.5 141.5 c 128,-1,5
 545 131 545 131 584 128.5 c 128,-1,6
 623 126 623 126 662 126 c 256,7,8
 701 126 701 126 743 136.5 c 128,-1,9
 785 147 785 147 819.5 172.5 c 128,-1,10
 854 198 854 198 876.5 240.5 c 128,-1,11
 899 283 899 283 899 348 c 0,12,13
 899 399 899 399 868 441 c 128,-1,14
 837 483 837 483 786 521 c 128,-1,15
 735 559 735 559 669.5 594 c 128,-1,16
 604 629 604 629 535 667 c 1,17,18
 460 707 460 707 387.5 753 c 128,-1,19
 315 799 315 799 258 855.5 c 128,-1,20
 201 912 201 912 166 982 c 128,-1,21
 131 1052 131 1052 131 1141 c 0,22,23
 131 1244 131 1244 177 1323.5 c 128,-1,24
 223 1403 223 1403 298 1457 c 128,-1,25
 373 1511 373 1511 469.5 1539 c 128,-1,26
 566 1567 566 1567 668 1567 c 0,27,28
 750 1567 750 1567 830 1559.5 c 128,-1,29
 910 1552 910 1552 976.5 1541 c 128,-1,30
 1043 1530 1043 1530 1089.5 1517.5 c 128,-1,31
 1136 1505 1136 1505 1152 1495 c 1,32,-1
 1152 1164 l 1,33,-1
 988 1164 l 1,34,-1
 894 1374 l 1,35,36
 889 1380 889 1380 870.5 1388 c 128,-1,37
 852 1396 852 1396 825 1403.5 c 128,-1,38
 798 1411 798 1411 766 1416 c 128,-1,39
 734 1421 734 1421 703 1421 c 0,40,41
 663 1421 663 1421 621.5 1413 c 128,-1,42
 580 1405 580 1405 546.5 1386.5 c 128,-1,43
 513 1368 513 1368 491.5 1336.5 c 128,-1,44
 470 1305 470 1305 469 1257 c 1,45,46
 469 1201 469 1201 492.5 1155 c 128,-1,47
 516 1109 516 1109 556 1070 c 128,-1,48
 596 1031 596 1031 649 997 c 128,-1,49
 702 963 702 963 761 930 c 0,50,51
 817 899 817 899 875.5 868 c 128,-1,52
 934 837 934 837 989 802.5 c 128,-1,53
 1044 768 1044 768 1092.5 729.5 c 128,-1,54
 1141 691 1141 691 1177 644.5 c 128,-1,55
 1213 598 1213 598 1234 543 c 128,-1,56
 1255 488 1255 488 1255 421 c 0,57,58
 1255 325 1255 325 1214 243 c 128,-1,59
 1173 161 1173 161 1096.5 101 c 128,-1,60
 1020 41 1020 41 909.5 6.5 c 128,-1,61
 799 -28 799 -28 660 -28 c 0,62,63
 590 -28 590 -28 514 -21 c 128,-1,64
 438 -14 438 -14 367 -2 c 128,-1,65
 296 10 296 10 235.5 27 c 128,-1,66
 175 44 175 44 137 64 c 1,67,-1
 137 469 l 1,0,-1
EndSplineSet
EndChar

StartChar: T
Encoding: 84 84 51
Width: 1456
Flags: W
LayerCount: 2
Fore
SplineSet
341 140 m 1,0,-1
 571 179 l 1,1,-1
 571 1385 l 1,2,-1
 297 1358 l 1,3,-1
 228 1143 l 1,4,-1
 47 1134 l 1,5,-1
 71 1553 l 1,6,-1
 1410 1553 l 1,7,-1
 1408 1146 l 1,8,-1
 1267 1129 l 1,9,-1
 1190 1358 l 1,10,-1
 925 1385 l 1,11,-1
 925 180 l 1,12,-1
 1150 140 l 1,13,-1
 1150 0 l 1,14,-1
 341 0 l 1,15,-1
 341 140 l 1,0,-1
EndSplineSet
EndChar

StartChar: U
Encoding: 85 85 52
Width: 1611
Flags: W
LayerCount: 2
Fore
SplineSet
198 1365 m 1,0,-1
 40 1389 l 1,1,-1
 40 1553 l 1,2,-1
 722 1553 l 1,3,-1
 722 1389 l 1,4,-1
 553 1366 l 1,5,-1
 553 610 l 2,6,7
 553 509 553 509 567 435.5 c 128,-1,8
 581 362 581 362 606 311 c 128,-1,9
 631 260 631 260 664.5 228.5 c 128,-1,10
 698 197 698 197 736 179.5 c 128,-1,11
 774 162 774 162 815 156 c 128,-1,12
 856 150 856 150 897 150 c 0,13,14
 966 150 966 150 1024.5 174 c 128,-1,15
 1083 198 1083 198 1126 257 c 128,-1,16
 1169 316 1169 316 1193 415.5 c 128,-1,17
 1217 515 1217 515 1216 666 c 2,18,-1
 1213 1363 l 1,19,-1
 1045 1389 l 1,20,-1
 1045 1553 l 1,21,-1
 1584 1553 l 1,22,-1
 1584 1389 l 1,23,-1
 1440 1363 l 1,24,-1
 1440 667 l 2,25,26
 1440 530 1440 530 1418 425.5 c 128,-1,27
 1396 321 1396 321 1356 243.5 c 128,-1,28
 1316 166 1316 166 1261 114 c 128,-1,29
 1206 62 1206 62 1141 30.5 c 128,-1,30
 1076 -1 1076 -1 1002.5 -14.5 c 128,-1,31
 929 -28 929 -28 853 -28 c 0,32,33
 517 -28 517 -28 354.5 133 c 128,-1,34
 192 294 192 294 194 625 c 2,35,-1
 198 1365 l 1,0,-1
EndSplineSet
EndChar

StartChar: V
Encoding: 86 86 53
Width: 1493
Flags: W
LayerCount: 2
Fore
SplineSet
131 1370 m 1,0,-1
 13 1389 l 1,1,-1
 13 1553 l 1,2,-1
 680 1553 l 1,3,-1
 680 1392 l 1,4,-1
 517 1367 l 1,5,-1
 733 613 l 1,6,-1
 797 344 l 1,7,-1
 858 607 l 1,8,-1
 1062 1366 l 1,9,-1
 908 1389 l 1,10,-1
 908 1552 l 1,11,-1
 1480 1552 l 1,12,-1
 1480 1389 l 1,13,-1
 1359 1370 l 1,14,-1
 907 -15 l 1,15,-1
 633 -15 l 1,16,-1
 131 1370 l 1,0,-1
EndSplineSet
EndChar

StartChar: W
Encoding: 87 87 54
Width: 2281
Flags: W
LayerCount: 2
Fore
SplineSet
139 1369 m 1,0,-1
 15 1388 l 1,1,-1
 15 1553 l 1,2,-1
 640 1553 l 1,3,-1
 640 1390 l 1,4,-1
 521 1369 l 1,5,-1
 755 444 l 1,6,7
 763 401 763 401 771.5 359.5 c 128,-1,8
 780 318 780 318 789 276 c 1,9,-1
 822 444 l 1,10,-1
 1012 1210 l 1,11,-1
 972 1369 l 1,12,-1
 842 1388 l 1,13,-1
 842 1553 l 1,14,-1
 1488 1553 l 1,15,-1
 1488 1390 l 1,16,-1
 1326 1367 l 1,17,-1
 1530 444 l 1,18,-1
 1566 272 l 1,19,-1
 1608 444 l 1,20,-1
 1831 1368 l 1,21,-1
 1681 1388 l 1,22,-1
 1681 1553 l 1,23,-1
 2266 1553 l 1,24,-1
 2266 1388 l 1,25,-1
 2115 1369 l 1,26,-1
 1699 -16 l 1,27,-1
 1358 -16 l 1,28,-1
 1129 791 l 1,29,-1
 907 -15 l 1,30,-1
 587 -15 l 1,31,-1
 139 1369 l 1,0,-1
EndSplineSet
EndChar

StartChar: X
Encoding: 88 88 55
Width: 1553
Flags: W
LayerCount: 2
Fore
SplineSet
24 138 m 1,0,-1
 200 182 l 1,1,-1
 611 748 l 1,2,-1
 185 1365 l 1,3,-1
 24 1389 l 1,4,-1
 24 1553 l 1,5,-1
 731 1553 l 1,6,-1
 731 1392 l 1,7,-1
 585 1369 l 1,8,-1
 799 975 l 1,9,-1
 1042 1369 l 1,10,-1
 906 1389 l 1,11,-1
 906 1553 l 1,12,-1
 1529 1553 l 1,13,-1
 1529 1389 l 1,14,-1
 1337 1367 l 1,15,-1
 916 819 l 1,16,-1
 1365 184 l 1,17,-1
 1530 138 l 1,18,-1
 1530 0 l 1,19,-1
 827 0 l 1,20,-1
 827 137 l 1,21,-1
 970 177 l 1,22,-1
 739 576 l 1,23,-1
 505 183 l 1,24,-1
 693 138 l 1,25,-1
 693 0 l 1,26,-1
 24 0 l 1,27,-1
 24 138 l 1,0,-1
EndSplineSet
EndChar

StartChar: Y
Encoding: 89 89 56
Width: 1480
Flags: W
LayerCount: 2
Fore
SplineSet
349 140 m 1,0,-1
 589 185 l 1,1,-1
 589 511 l 1,2,-1
 123 1370 l 1,3,-1
 13 1389 l 1,4,-1
 13 1553 l 1,5,-1
 643 1553 l 1,6,-1
 643 1392 l 1,7,-1
 537 1372 l 1,8,-1
 789 841 l 1,9,-1
 818 747 l 1,10,-1
 851 850 l 1,11,-1
 1064 1364 l 1,12,-1
 905 1389 l 1,13,14
 905 1431 905 1431 904.5 1471 c 128,-1,15
 904 1511 904 1511 904 1553 c 1,16,-1
 1467 1553 l 1,17,-1
 1467 1389 l 1,18,-1
 1335 1352 l 1,19,-1
 945 543 l 1,20,-1
 945 188 l 1,21,-1
 1214 140 l 1,22,-1
 1214 0 l 1,23,-1
 349 0 l 1,24,-1
 349 140 l 1,0,-1
EndSplineSet
EndChar

StartChar: Z
Encoding: 90 90 57
Width: 1388
Flags: W
LayerCount: 2
Fore
SplineSet
52 139 m 1,0,-1
 791 1211 l 1,1,-1
 957 1393 l 1,2,-1
 383 1346 l 1,3,-1
 255 1101 l 1,4,-1
 102 1131 l 1,5,-1
 145 1553 l 1,6,-1
 1295 1553 l 1,7,-1
 1341 1400 l 1,8,-1
 614 330 l 1,9,-1
 469 164 l 1,10,-1
 1026 210 l 1,11,-1
 1225 477 l 1,12,-1
 1374 436 l 1,13,-1
 1264 0 l 1,14,-1
 93 0 l 1,15,-1
 52 139 l 1,0,-1
EndSplineSet
EndChar

StartChar: bracketleft
Encoding: 91 91 58
Width: 1118
Flags: W
LayerCount: 2
Fore
SplineSet
259 1512 m 2,0,1
 259 1601 259 1601 279.5 1658 c 128,-1,2
 300 1715 300 1715 339.5 1747.5 c 128,-1,3
 379 1780 379 1780 437.5 1792 c 128,-1,4
 496 1804 496 1804 572 1804 c 0,5,6
 607 1804 607 1804 646.5 1797 c 128,-1,7
 686 1790 686 1790 726.5 1779 c 128,-1,8
 767 1768 767 1768 806.5 1754 c 128,-1,9
 846 1740 846 1740 882 1727 c 1,10,11
 882 1696 882 1696 881.5 1665 c 128,-1,12
 881 1634 881 1634 881 1603 c 1,13,-1
 573 1603 l 1,14,-1
 573 -29 l 1,15,-1
 881 -33 l 1,16,-1
 885 -158 l 1,17,18
 860 -172 860 -172 821 -185 c 128,-1,19
 782 -198 782 -198 738.5 -208 c 128,-1,20
 695 -218 695 -218 651 -224 c 128,-1,21
 607 -230 607 -230 573 -230 c 0,22,23
 496 -230 496 -230 437.5 -218.5 c 128,-1,24
 379 -207 379 -207 339 -171 c 128,-1,25
 299 -135 299 -135 279 -68 c 128,-1,26
 259 -1 259 -1 259 111 c 2,27,-1
 259 1512 l 2,0,1
EndSplineSet
EndChar

StartChar: backslash
Encoding: 92 92 59
Width: 827
Flags: W
LayerCount: 2
Fore
SplineSet
30 1599 m 1,0,-1
 283 1599 l 1,1,-1
 797 -363 l 1,2,-1
 545 -363 l 1,3,-1
 30 1599 l 1,0,-1
EndSplineSet
EndChar

StartChar: bracketright
Encoding: 93 93 60
Width: 1118
Flags: W
LayerCount: 2
Fore
SplineSet
539 -29 m 1,0,-1
 539 1603 l 1,1,-1
 231 1603 l 1,2,3
 231 1634 231 1634 230.5 1665 c 128,-1,4
 230 1696 230 1696 230 1727 c 1,5,6
 266 1740 266 1740 305.5 1754 c 128,-1,7
 345 1768 345 1768 385.5 1779 c 128,-1,8
 426 1790 426 1790 465.5 1797 c 128,-1,9
 505 1804 505 1804 540 1804 c 0,10,11
 616 1804 616 1804 674.5 1792 c 128,-1,12
 733 1780 733 1780 772.5 1747.5 c 128,-1,13
 812 1715 812 1715 832.5 1658 c 128,-1,14
 853 1601 853 1601 853 1512 c 2,15,-1
 853 111 l 2,16,17
 853 -1 853 -1 833 -68 c 128,-1,18
 813 -135 813 -135 773 -171 c 128,-1,19
 733 -207 733 -207 674.5 -218.5 c 128,-1,20
 616 -230 616 -230 539 -230 c 0,21,22
 504 -230 504 -230 460.5 -224 c 128,-1,23
 417 -218 417 -218 373.5 -208 c 128,-1,24
 330 -198 330 -198 291 -185 c 128,-1,25
 252 -172 252 -172 227 -158 c 1,26,-1
 231 -33 l 1,27,-1
 539 -29 l 1,0,-1
EndSplineSet
EndChar

StartChar: asciicircum
Encoding: 94 94 61
Width: 1501
Flags: W
LayerCount: 2
Fore
SplineSet
585 1531 m 1,0,-1
 926 1531 l 1,1,-1
 1318 564 l 1,2,3
 1238 564 1238 564 1158.5 563.5 c 128,-1,4
 1079 563 1079 563 999 563 c 1,5,-1
 735 1220 l 1,6,-1
 459 563 l 1,7,8
 390 563 390 563 321 563.5 c 128,-1,9
 252 564 252 564 183 564 c 1,10,-1
 585 1531 l 1,0,-1
EndSplineSet
EndChar

StartChar: underscore
Encoding: 95 95 62
Width: 1421
Flags: W
LayerCount: 2
Fore
SplineSet
1435 -193 m 1,0,-1
 1435 -427 l 1,1,-1
 -20 -427 l 1,2,-1
 -20 -193 l 1,3,-1
 1435 -193 l 1,0,-1
EndSplineSet
EndChar

StartChar: grave
Encoding: 96 96 63
Width: 884
Flags: W
LayerCount: 2
Fore
SplineSet
715 1337 m 1,0,1
 655 1335 655 1335 586 1364.5 c 128,-1,2
 517 1394 517 1394 451.5 1440.5 c 128,-1,3
 386 1487 386 1487 328.5 1544.5 c 128,-1,4
 271 1602 271 1602 233 1657 c 1,5,-1
 488 1852 l 1,6,-1
 803 1426 l 1,7,-1
 715 1337 l 1,0,1
EndSplineSet
EndChar

StartChar: a
Encoding: 97 97 64
Width: 1226
Flags: W
LayerCount: 2
Fore
SplineSet
71 394 m 0,0,1
 85 452 85 452 125 498 c 128,-1,2
 165 544 165 544 221 578 c 128,-1,3
 277 612 277 612 344 635.5 c 128,-1,4
 411 659 411 659 479 674 c 128,-1,5
 547 689 547 689 610.5 695.5 c 128,-1,6
 674 702 674 702 724 702 c 1,7,8
 724 782 724 782 710 832 c 128,-1,9
 696 882 696 882 668.5 910.5 c 128,-1,10
 641 939 641 939 601.5 949.5 c 128,-1,11
 562 960 562 960 511 960 c 0,12,13
 446 960 446 960 390.5 949.5 c 128,-1,14
 335 939 335 939 291.5 925 c 128,-1,15
 248 911 248 911 219.5 896.5 c 128,-1,16
 191 882 191 882 180 874 c 1,17,-1
 112 1028 l 1,18,19
 128 1041 128 1041 169 1062 c 128,-1,20
 210 1083 210 1083 274.5 1103 c 128,-1,21
 339 1123 339 1123 425.5 1137 c 128,-1,22
 512 1151 512 1151 618 1151 c 0,23,24
 719 1151 719 1151 803.5 1132.5 c 128,-1,25
 888 1114 888 1114 949 1067.5 c 128,-1,26
 1010 1021 1010 1021 1044 941.5 c 128,-1,27
 1078 862 1078 862 1078 740 c 2,28,-1
 1078 136 l 1,29,-1
 1209 136 l 1,30,-1
 1209 29 l 1,31,32
 1183 11 1183 11 1150.5 0 c 128,-1,33
 1118 -11 1118 -11 1083 -17 c 128,-1,34
 1048 -23 1048 -23 1013.5 -25.5 c 128,-1,35
 979 -28 979 -28 950 -28 c 0,36,37
 931 -28 931 -28 901 -24 c 128,-1,38
 871 -20 871 -20 842.5 -7.5 c 128,-1,39
 814 5 814 5 793 27.5 c 128,-1,40
 772 50 772 50 770 86 c 1,41,42
 718 37 718 37 647 4.5 c 128,-1,43
 576 -28 576 -28 480 -28 c 0,44,45
 349 -28 349 -28 261.5 7.5 c 128,-1,46
 174 43 174 43 125 101.5 c 128,-1,47
 76 160 76 160 63.5 236.5 c 128,-1,48
 51 313 51 313 71 394 c 0,0,1
417 335 m 0,49,50
 417 238 417 238 472 195 c 128,-1,51
 527 152 527 152 633 167 c 0,52,53
 660 171 660 171 682 181.5 c 128,-1,54
 704 192 704 192 723 206 c 1,55,56
 723 292 723 292 723.5 377.5 c 128,-1,57
 724 463 724 463 724 549 c 1,58,59
 693 549 693 549 658 545.5 c 128,-1,60
 623 542 623 542 589 533 c 128,-1,61
 555 524 555 524 524 508 c 128,-1,62
 493 492 493 492 469 468.5 c 128,-1,63
 445 445 445 445 431 412 c 128,-1,64
 417 379 417 379 417 335 c 0,49,50
EndSplineSet
EndChar

StartChar: b
Encoding: 98 98 65
Width: 1327
Flags: W
LayerCount: 2
Fore
SplineSet
149 1384 m 1,0,-1
 24 1441 l 1,1,-1
 24 1581 l 1,2,-1
 446 1629 l 1,3,-1
 503 1612 l 1,4,-1
 503 1088 l 1,5,6
 552 1115 552 1115 618 1133 c 128,-1,7
 684 1151 684 1151 766 1151 c 0,8,9
 859 1151 859 1151 946.5 1122 c 128,-1,10
 1034 1093 1034 1093 1102.5 1028 c 128,-1,11
 1171 963 1171 963 1212.5 859 c 128,-1,12
 1254 755 1254 755 1254 605 c 0,13,14
 1254 483 1254 483 1209.5 368.5 c 128,-1,15
 1165 254 1165 254 1082.5 166 c 128,-1,16
 1000 78 1000 78 883.5 25 c 128,-1,17
 767 -28 767 -28 623 -28 c 0,18,19
 544 -28 544 -28 464 -19 c 128,-1,20
 384 -10 384 -10 317.5 3 c 128,-1,21
 251 16 251 16 205.5 30.5 c 128,-1,22
 160 45 160 45 149 56 c 1,23,-1
 149 1384 l 1,0,-1
503 201 m 1,24,25
 510 188 510 188 521.5 173.5 c 128,-1,26
 533 159 533 159 552 146.5 c 128,-1,27
 571 134 571 134 597 125.5 c 128,-1,28
 623 117 623 117 659 117 c 0,29,30
 701 117 701 117 742 136.5 c 128,-1,31
 783 156 783 156 816 206.5 c 128,-1,32
 849 257 849 257 871 344.5 c 128,-1,33
 893 432 893 432 897 567 c 0,34,35
 900 674 900 674 876.5 751 c 128,-1,36
 853 828 853 828 813.5 878 c 128,-1,37
 774 928 774 928 725 952 c 128,-1,38
 676 976 676 976 629 976 c 0,39,40
 588 976 588 976 557 970.5 c 128,-1,41
 526 965 526 965 503 957 c 1,42,-1
 503 201 l 1,24,25
EndSplineSet
EndChar

StartChar: c
Encoding: 99 99 66
Width: 1134
Flags: W
LayerCount: 2
Fore
SplineSet
74 525 m 0,0,1
 73 670 73 670 121.5 784.5 c 128,-1,2
 170 899 170 899 254 979 c 128,-1,3
 338 1059 338 1059 451.5 1102.5 c 128,-1,4
 565 1146 565 1146 695 1151 c 0,5,6
 746 1152 746 1152 802 1149 c 128,-1,7
 858 1146 858 1146 908.5 1139 c 128,-1,8
 959 1132 959 1132 1000 1122 c 128,-1,9
 1041 1112 1041 1112 1064 1099 c 1,10,-1
 1064 782 l 1,11,-1
 881 782 l 1,12,-1
 802 970 l 1,13,14
 774 987 774 987 738 991 c 128,-1,15
 702 995 702 995 670 995 c 0,16,17
 619 995 619 995 578 970 c 128,-1,18
 537 945 537 945 507.5 897.5 c 128,-1,19
 478 850 478 850 461 781 c 128,-1,20
 444 712 444 712 441 624 c 0,21,22
 437 503 437 503 462.5 416.5 c 128,-1,23
 488 330 488 330 533.5 275 c 128,-1,24
 579 220 579 220 639.5 194.5 c 128,-1,25
 700 169 700 169 767 169 c 0,26,27
 812 169 812 169 855 175 c 128,-1,28
 898 181 898 181 934.5 190.5 c 128,-1,29
 971 200 971 200 1000.5 213 c 128,-1,30
 1030 226 1030 226 1048 240 c 1,31,-1
 1101 115 l 1,32,33
 1021 46 1021 46 901 9 c 128,-1,34
 781 -28 781 -28 629 -28 c 0,35,36
 494 -28 494 -28 391 13.5 c 128,-1,37
 288 55 288 55 217.5 129 c 128,-1,38
 147 203 147 203 111 304 c 128,-1,39
 75 405 75 405 74 525 c 0,0,1
EndSplineSet
EndChar

StartChar: d
Encoding: 100 100 67
Width: 1383
Flags: W
LayerCount: 2
Fore
SplineSet
73 541 m 0,0,1
 73 675 73 675 124.5 787 c 128,-1,2
 176 899 176 899 264.5 980 c 128,-1,3
 353 1061 353 1061 471.5 1106 c 128,-1,4
 590 1151 590 1151 724 1151 c 0,5,6
 747 1151 747 1151 776.5 1150 c 128,-1,7
 806 1149 806 1149 844 1143 c 1,8,-1
 844 1384 l 1,9,-1
 623 1441 l 1,10,-1
 623 1581 l 1,11,-1
 1133 1630 l 1,12,-1
 1198 1603 l 1,13,-1
 1198 136 l 1,14,-1
 1340 136 l 1,15,-1
 1340 29 l 1,16,17
 1306 10 1306 10 1230.5 -9 c 128,-1,18
 1155 -28 1155 -28 1036 -28 c 0,19,20
 971 -28 971 -28 930.5 -9.5 c 128,-1,21
 890 9 890 9 870 44 c 1,22,23
 850 30 850 30 821.5 17 c 128,-1,24
 793 4 793 4 754 -6 c 128,-1,25
 715 -16 715 -16 664 -22 c 128,-1,26
 613 -28 613 -28 549 -28 c 0,27,28
 497 -28 497 -28 441.5 -14 c 128,-1,29
 386 0 386 0 333 29.5 c 128,-1,30
 280 59 280 59 232.5 104.5 c 128,-1,31
 185 150 185 150 149.5 213 c 128,-1,32
 114 276 114 276 93.5 357.5 c 128,-1,33
 73 439 73 439 73 541 c 0,0,1
637 147 m 0,34,35
 670 134 670 134 707 134 c 0,36,37
 752 134 752 134 786.5 139.5 c 128,-1,38
 821 145 821 145 844 153 c 1,39,-1
 844 980 l 1,40,41
 808 1003 808 1003 768 1009 c 128,-1,42
 728 1015 728 1015 693 1015 c 0,43,44
 677 1015 677 1015 653 1009.5 c 128,-1,45
 629 1004 629 1004 601.5 989 c 128,-1,46
 574 974 574 974 546 946.5 c 128,-1,47
 518 919 518 919 495.5 874.5 c 128,-1,48
 473 830 473 830 458 767 c 128,-1,49
 443 704 443 704 442 617 c 0,50,51
 440 516 440 516 454 436 c 128,-1,52
 468 356 468 356 494.5 297.5 c 128,-1,53
 521 239 521 239 558 201 c 128,-1,54
 595 163 595 163 637 147 c 0,34,35
EndSplineSet
EndChar

StartChar: e
Encoding: 101 101 68
Width: 1239
Flags: W
LayerCount: 2
Fore
SplineSet
73 531 m 0,0,1
 73 659 73 659 115 772 c 128,-1,2
 157 885 157 885 236 969 c 128,-1,3
 315 1053 315 1053 429 1102 c 128,-1,4
 543 1151 543 1151 687 1151 c 0,5,6
 808 1151 808 1151 895 1120 c 128,-1,7
 982 1089 982 1089 1038 1033.5 c 128,-1,8
 1094 978 1094 978 1122 901 c 128,-1,9
 1150 824 1150 824 1153 733 c 0,10,11
 1155 670 1155 670 1150 621 c 128,-1,12
 1145 572 1145 572 1139 530 c 1,13,-1
 442 530 l 1,14,15
 456 353 456 353 533.5 263 c 128,-1,16
 611 173 611 173 759 173 c 0,17,18
 832 173 832 173 914.5 188.5 c 128,-1,19
 997 204 997 204 1078 240 c 1,20,-1
 1131 115 l 1,21,22
 1093 83 1093 83 1038.5 56 c 128,-1,23
 984 29 984 29 920 10 c 128,-1,24
 856 -9 856 -9 784.5 -19.5 c 128,-1,25
 713 -30 713 -30 640 -28 c 0,26,27
 504 -25 504 -25 398.5 13 c 128,-1,28
 293 51 293 51 220.5 122.5 c 128,-1,29
 148 194 148 194 110.5 296.5 c 128,-1,30
 73 399 73 399 73 531 c 0,0,1
809 691 m 1,31,32
 812 728 812 728 815 770.5 c 128,-1,33
 818 813 818 813 814.5 853.5 c 128,-1,34
 811 894 811 894 797 929 c 128,-1,35
 783 964 783 964 753 985 c 0,36,37
 735 998 735 998 711 1004.5 c 128,-1,38
 687 1011 687 1011 655 1011 c 0,39,40
 597 1011 597 1011 558 982.5 c 128,-1,41
 519 954 519 954 494.5 908.5 c 128,-1,42
 470 863 470 863 458.5 806 c 128,-1,43
 447 749 447 749 443 691 c 1,44,-1
 809 691 l 1,31,32
EndSplineSet
EndChar

StartChar: f
Encoding: 102 102 69
Width: 946
Flags: W
LayerCount: 2
Fore
SplineSet
72 136 m 1,0,-1
 234 166 l 1,1,-1
 234 913 l 1,2,-1
 51 913 l 1,3,-1
 51 1018 l 1,4,-1
 234 1097 l 1,5,-1
 234 1202 l 2,6,7
 234 1260 234 1260 250 1322.5 c 128,-1,8
 266 1385 266 1385 296.5 1444 c 128,-1,9
 327 1503 327 1503 370.5 1555.5 c 128,-1,10
 414 1608 414 1608 469.5 1648 c 128,-1,11
 525 1688 525 1688 590.5 1711 c 128,-1,12
 656 1734 656 1734 730 1734 c 0,13,14
 756 1734 756 1734 786 1732 c 128,-1,15
 816 1730 816 1730 845 1726 c 128,-1,16
 874 1722 874 1722 900.5 1716 c 128,-1,17
 927 1710 927 1710 945 1702 c 1,18,-1
 945 1442 l 1,19,20
 937 1445 937 1445 913.5 1454 c 128,-1,21
 890 1463 890 1463 858.5 1472.5 c 128,-1,22
 827 1482 827 1482 791 1489.5 c 128,-1,23
 755 1497 755 1497 721 1497 c 0,24,25
 688 1497 688 1497 663 1492 c 128,-1,26
 638 1487 638 1487 621.5 1468.5 c 128,-1,27
 605 1450 605 1450 596.5 1412 c 128,-1,28
 588 1374 588 1374 588 1308 c 2,29,-1
 588 1119 l 1,30,-1
 888 1119 l 1,31,-1
 888 913 l 1,32,-1
 588 913 l 1,33,-1
 588 165 l 1,34,-1
 828 136 l 1,35,-1
 828 0 l 1,36,-1
 72 0 l 1,37,-1
 72 136 l 1,0,-1
EndSplineSet
EndChar

StartChar: g
Encoding: 103 103 70
Width: 1276
Flags: W
LayerCount: 2
Fore
SplineSet
238 35 m 1,0,1
 199 50 199 50 177 70 c 128,-1,2
 155 90 155 90 143.5 114.5 c 128,-1,3
 132 139 132 139 129 166.5 c 128,-1,4
 126 194 126 194 126 224 c 0,5,6
 126 248 126 248 137.5 277.5 c 128,-1,7
 149 307 149 307 168 337.5 c 128,-1,8
 187 368 187 368 211.5 396.5 c 128,-1,9
 236 425 236 425 262 447 c 1,10,11
 170 491 170 491 119 567 c 128,-1,12
 68 643 68 643 68 753 c 0,13,14
 68 858 68 858 115 933 c 128,-1,15
 162 1008 162 1008 238 1056 c 128,-1,16
 314 1104 314 1104 410 1126.5 c 128,-1,17
 506 1149 506 1149 605 1151 c 0,18,19
 719 1153 719 1153 812 1130.5 c 128,-1,20
 905 1108 905 1108 971 1057 c 1,21,22
 981 1077 981 1077 997.5 1094 c 128,-1,23
 1014 1111 1014 1111 1040.5 1123.5 c 128,-1,24
 1067 1136 1067 1136 1105 1143 c 128,-1,25
 1143 1150 1143 1150 1194 1150 c 2,26,-1
 1282 1150 l 1,27,-1
 1282 910 l 1,28,-1
 1075 910 l 1,29,30
 1093 854 1093 854 1093 786 c 0,31,32
 1093 684 1093 684 1054.5 609 c 128,-1,33
 1016 534 1016 534 947.5 484.5 c 128,-1,34
 879 435 879 435 784.5 411 c 128,-1,35
 690 387 690 387 578 387 c 0,36,37
 481 387 481 387 402 402 c 1,38,39
 386 364 386 364 386 329 c 0,40,41
 386 268 386 268 423 242 c 128,-1,42
 460 216 460 216 529 216 c 2,43,-1
 763 216 l 2,44,45
 896 216 896 216 988 198 c 128,-1,46
 1080 180 1080 180 1137.5 140.5 c 128,-1,47
 1195 101 1195 101 1220.5 39 c 128,-1,48
 1246 -23 1246 -23 1246 -111 c 0,49,50
 1246 -197 1246 -197 1203.5 -273.5 c 128,-1,51
 1161 -350 1161 -350 1077.5 -407 c 128,-1,52
 994 -464 994 -464 869.5 -497.5 c 128,-1,53
 745 -531 745 -531 582 -531 c 0,54,55
 465 -531 465 -531 370.5 -514 c 128,-1,56
 276 -497 276 -497 209 -461 c 128,-1,57
 142 -425 142 -425 105.5 -369 c 128,-1,58
 69 -313 69 -313 69 -235 c 0,59,60
 69 -184 69 -184 84.5 -142 c 128,-1,61
 100 -100 100 -100 124.5 -66.5 c 128,-1,62
 149 -33 149 -33 179 -7.5 c 128,-1,63
 209 18 209 18 238 35 c 1,0,1
602 547 m 0,64,65
 649 547 649 547 680.5 567 c 128,-1,66
 712 587 712 587 731.5 619 c 128,-1,67
 751 651 751 651 759 691.5 c 128,-1,68
 767 732 767 732 767 774 c 0,69,70
 767 888 767 888 720.5 949.5 c 128,-1,71
 674 1011 674 1011 584 1011 c 0,72,73
 554 1011 554 1011 523.5 1001.5 c 128,-1,74
 493 992 493 992 468.5 970.5 c 128,-1,75
 444 949 444 949 429 914.5 c 128,-1,76
 414 880 414 880 414 830 c 0,77,78
 414 773 414 773 422 721.5 c 128,-1,79
 430 670 430 670 451 631 c 128,-1,80
 472 592 472 592 508.5 569.5 c 128,-1,81
 545 547 545 547 602 547 c 0,64,65
368 -138 m 0,82,83
 368 -197 368 -197 389 -240.5 c 128,-1,84
 410 -284 410 -284 447.5 -313.5 c 128,-1,85
 485 -343 485 -343 536.5 -357.5 c 128,-1,86
 588 -372 588 -372 649 -372 c 0,87,88
 715 -372 715 -372 766 -364.5 c 128,-1,89
 817 -357 817 -357 851.5 -337 c 128,-1,90
 886 -317 886 -317 904 -281.5 c 128,-1,91
 922 -246 922 -246 922 -190 c 0,92,93
 922 -159 922 -159 919 -125 c 128,-1,94
 916 -91 916 -91 895 -63.5 c 128,-1,95
 874 -36 874 -36 828 -18 c 128,-1,96
 782 0 782 0 697 0 c 2,97,-1
 520 0 l 2,98,99
 485 0 485 0 455 1 c 128,-1,100
 425 2 425 2 398 4 c 1,101,102
 385 -20 385 -20 376.5 -54 c 128,-1,103
 368 -88 368 -88 368 -138 c 0,82,83
EndSplineSet
EndChar

StartChar: h
Encoding: 104 104 71
Width: 1425
Flags: W
LayerCount: 2
Fore
SplineSet
60 136 m 1,0,-1
 203 164 l 1,1,-1
 203 1384 l 1,2,-1
 68 1441 l 1,3,-1
 68 1581 l 1,4,-1
 499 1630 l 1,5,-1
 557 1612 l 1,6,-1
 557 1120 l 1,7,-1
 536 1017 l 1,8,9
 582 1059 582 1059 631 1085 c 128,-1,10
 680 1111 680 1111 728.5 1125.5 c 128,-1,11
 777 1140 777 1140 822.5 1145.5 c 128,-1,12
 868 1151 868 1151 907 1151 c 0,13,14
 1015 1151 1015 1151 1081 1114.5 c 128,-1,15
 1147 1078 1147 1078 1183 1010 c 128,-1,16
 1219 942 1219 942 1230 845 c 128,-1,17
 1241 748 1241 748 1240 627 c 1,18,-1
 1240 163 l 1,19,-1
 1376 136 l 1,20,-1
 1376 0 l 1,21,-1
 741 2 l 1,22,-1
 741 136 l 1,23,-1
 886 164 l 1,24,-1
 886 578 l 2,25,26
 886 655 886 655 882 720 c 128,-1,27
 878 785 878 785 859.5 832 c 128,-1,28
 841 879 841 879 804 905.5 c 128,-1,29
 767 932 767 932 701 932 c 0,30,31
 659 932 659 932 623 921.5 c 128,-1,32
 587 911 587 911 557 886 c 1,33,-1
 557 162 l 1,34,-1
 655 136 l 1,35,-1
 655 0 l 1,36,-1
 60 0 l 1,37,-1
 60 136 l 1,0,-1
EndSplineSet
EndChar

StartChar: i
Encoding: 105 105 72
Width: 748
Flags: W
LayerCount: 2
Fore
SplineSet
359 1325 m 0,0,1
 320 1325 320 1325 282.5 1338 c 128,-1,2
 245 1351 245 1351 216.5 1375 c 128,-1,3
 188 1399 188 1399 170.5 1434 c 128,-1,4
 153 1469 153 1469 153 1513 c 0,5,6
 153 1561 153 1561 175 1602 c 128,-1,7
 197 1643 197 1643 232 1673 c 128,-1,8
 267 1703 267 1703 310.5 1720 c 128,-1,9
 354 1737 354 1737 398 1737 c 0,10,11
 452 1737 452 1737 490.5 1722 c 128,-1,12
 529 1707 529 1707 554 1681 c 128,-1,13
 579 1655 579 1655 591 1621 c 128,-1,14
 603 1587 603 1587 603 1548 c 0,15,16
 603 1497 603 1497 582.5 1456 c 128,-1,17
 562 1415 562 1415 527.5 1385.5 c 128,-1,18
 493 1356 493 1356 449 1340.5 c 128,-1,19
 405 1325 405 1325 359 1325 c 0,0,1
79 136 m 1,20,-1
 214 164 l 1,21,-1
 214 786 l 1,22,-1
 86 930 l 1,23,-1
 86 1023 l 1,24,-1
 482 1151 l 1,25,-1
 567 1126 l 1,26,-1
 567 162 l 1,27,-1
 711 136 l 1,28,-1
 711 0 l 1,29,-1
 79 0 l 1,30,-1
 79 136 l 1,20,-1
EndSplineSet
EndChar

StartChar: j
Encoding: 106 106 73
Width: 684
Flags: W
LayerCount: 2
Fore
SplineSet
319 1325 m 0,0,1
 280 1325 280 1325 243 1338 c 128,-1,2
 206 1351 206 1351 177.5 1375 c 128,-1,3
 149 1399 149 1399 131.5 1434 c 128,-1,4
 114 1469 114 1469 114 1513 c 0,5,6
 114 1561 114 1561 135.5 1602 c 128,-1,7
 157 1643 157 1643 192 1673 c 128,-1,8
 227 1703 227 1703 270.5 1720 c 128,-1,9
 314 1737 314 1737 358 1737 c 0,10,11
 412 1737 412 1737 450.5 1722 c 128,-1,12
 489 1707 489 1707 514.5 1681 c 128,-1,13
 540 1655 540 1655 552 1621 c 128,-1,14
 564 1587 564 1587 564 1548 c 0,15,16
 564 1497 564 1497 543 1456 c 128,-1,17
 522 1415 522 1415 488 1385.5 c 128,-1,18
 454 1356 454 1356 409.5 1340.5 c 128,-1,19
 365 1325 365 1325 319 1325 c 0,0,1
192 786 m 1,20,-1
 82 933 l 1,21,-1
 82 1021 l 1,22,-1
 465 1151 l 1,23,-1
 546 1124 l 1,24,-1
 546 -48 l 2,25,26
 546 -165 546 -165 520 -257 c 128,-1,27
 494 -349 494 -349 445 -412 c 128,-1,28
 396 -475 396 -475 325.5 -508.5 c 128,-1,29
 255 -542 255 -542 167 -542 c 0,30,31
 132 -542 132 -542 97 -537.5 c 128,-1,32
 62 -533 62 -533 33 -527 c 128,-1,33
 4 -521 4 -521 -16 -515 c 128,-1,34
 -36 -509 -36 -509 -40 -506 c 1,35,-1
 -40 -318 l 1,36,37
 -31 -321 -31 -321 -14.5 -323 c 128,-1,38
 2 -325 2 -325 20 -326.5 c 128,-1,39
 38 -328 38 -328 55 -328.5 c 128,-1,40
 72 -329 72 -329 81 -329 c 0,41,42
 119 -329 119 -329 141 -309 c 128,-1,43
 163 -289 163 -289 174.5 -249 c 128,-1,44
 186 -209 186 -209 189 -148 c 128,-1,45
 192 -87 192 -87 192 -6 c 2,46,-1
 192 786 l 1,20,-1
EndSplineSet
EndChar

StartChar: k
Encoding: 107 107 74
Width: 1358
Flags: W
LayerCount: 2
Fore
SplineSet
69 136 m 1,0,-1
 203 166 l 1,1,-1
 203 1352 l 1,2,-1
 42 1423 l 1,3,-1
 42 1565 l 1,4,-1
 496 1631 l 1,5,-1
 557 1603 l 1,6,-1
 557 711 l 1,7,-1
 544 570 l 1,8,-1
 870 919 l 1,9,-1
 687 940 l 1,10,-1
 687 1119 l 1,11,-1
 1325 1119 l 1,12,-1
 1325 940 l 1,13,-1
 1123 921 l 1,14,-1
 881 691 l 1,15,-1
 1222 158 l 1,16,-1
 1325 138 l 1,17,-1
 1325 0 l 1,18,-1
 734 0 l 1,19,-1
 734 138 l 1,20,-1
 817 165 l 1,21,-1
 649 480 l 1,22,-1
 547 363 l 1,23,-1
 556 280 l 1,24,-1
 556 162 l 1,25,-1
 673 136 l 1,26,-1
 673 0 l 1,27,-1
 69 0 l 1,28,-1
 69 136 l 1,0,-1
EndSplineSet
EndChar

StartChar: l
Encoding: 108 108 75
Width: 735
Flags: W
LayerCount: 2
Fore
SplineSet
70 136 m 1,0,-1
 188 161 l 1,1,-1
 188 1384 l 1,2,-1
 53 1441 l 1,3,-1
 53 1581 l 1,4,-1
 484 1630 l 1,5,-1
 542 1612 l 1,6,-1
 542 166 l 1,7,-1
 717 136 l 1,8,-1
 717 0 l 1,9,-1
 70 0 l 1,10,-1
 70 136 l 1,0,-1
EndSplineSet
EndChar

StartChar: m
Encoding: 109 109 76
Width: 2168
Flags: W
LayerCount: 2
Fore
SplineSet
98 136 m 1,0,-1
 222 161 l 1,1,-1
 222 819 l 1,2,-1
 86 915 l 1,3,-1
 86 1041 l 1,4,-1
 458 1151 l 1,5,-1
 532 1132 l 1,6,-1
 532 984 l 1,7,8
 563 1017 563 1017 604.5 1046.5 c 128,-1,9
 646 1076 646 1076 693.5 1099 c 128,-1,10
 741 1122 741 1122 793 1136.5 c 128,-1,11
 845 1151 845 1151 897 1154 c 0,12,13
 951 1157 951 1157 1003 1151 c 128,-1,14
 1055 1145 1055 1145 1099.5 1127 c 128,-1,15
 1144 1109 1144 1109 1179.5 1076.5 c 128,-1,16
 1215 1044 1215 1044 1237 995 c 1,17,18
 1268 1024 1268 1024 1306 1052 c 128,-1,19
 1344 1080 1344 1080 1389.5 1102 c 128,-1,20
 1435 1124 1435 1124 1489 1137.5 c 128,-1,21
 1543 1151 1543 1151 1607 1151 c 0,22,23
 1706 1151 1706 1151 1777 1119 c 128,-1,24
 1848 1087 1848 1087 1893.5 1026 c 128,-1,25
 1939 965 1939 965 1960.5 876.5 c 128,-1,26
 1982 788 1982 788 1982 674 c 2,27,-1
 1982 163 l 1,28,-1
 2122 136 l 1,29,-1
 2122 0 l 1,30,-1
 1511 0 l 1,31,-1
 1511 136 l 1,32,-1
 1628 164 l 1,33,-1
 1628 629 l 2,34,35
 1628 725 1628 725 1616.5 783 c 128,-1,36
 1605 841 1605 841 1580 872.5 c 128,-1,37
 1555 904 1555 904 1515.5 914 c 128,-1,38
 1476 924 1476 924 1421 924 c 0,39,40
 1386 924 1386 924 1346 908.5 c 128,-1,41
 1306 893 1306 893 1276 873 c 1,42,43
 1281 848 1281 848 1283.5 810.5 c 128,-1,44
 1286 773 1286 773 1286 704 c 2,45,-1
 1286 163 l 1,46,-1
 1428 136 l 1,47,-1
 1428 0 l 1,48,-1
 790 0 l 1,49,-1
 790 136 l 1,50,-1
 932 165 l 1,51,-1
 932 636 l 2,52,53
 932 732 932 732 917 790.5 c 128,-1,54
 902 849 902 849 873.5 880 c 128,-1,55
 845 911 845 911 802.5 918.5 c 128,-1,56
 760 926 760 926 705 922 c 0,57,58
 693 921 693 921 674 916.5 c 128,-1,59
 655 912 655 912 636 905 c 128,-1,60
 617 898 617 898 600.5 889.5 c 128,-1,61
 584 881 584 881 576 872 c 1,62,-1
 576 164 l 1,63,-1
 707 136 l 1,64,-1
 707 0 l 1,65,-1
 98 0 l 1,66,-1
 98 136 l 1,0,-1
EndSplineSet
EndChar

StartChar: n
Encoding: 110 110 77
Width: 1466
Flags: W
LayerCount: 2
Fore
SplineSet
97 136 m 1,0,-1
 222 161 l 1,1,-1
 222 819 l 1,2,-1
 86 915 l 1,3,-1
 86 1041 l 1,4,-1
 457 1151 l 1,5,-1
 532 1132 l 1,6,-1
 532 984 l 1,7,8
 571 1022 571 1022 620 1053 c 128,-1,9
 669 1084 669 1084 723.5 1105.5 c 128,-1,10
 778 1127 778 1127 836 1139 c 128,-1,11
 894 1151 894 1151 951 1151 c 0,12,13
 1047 1151 1047 1151 1110 1120.5 c 128,-1,14
 1173 1090 1173 1090 1210.5 1032 c 128,-1,15
 1248 974 1248 974 1263.5 890.5 c 128,-1,16
 1279 807 1279 807 1279 700 c 2,17,-1
 1279 162 l 1,18,-1
 1420 136 l 1,19,-1
 1420 0 l 1,20,-1
 782 0 l 1,21,-1
 782 136 l 1,22,-1
 925 164 l 1,23,-1
 925 655 l 2,24,25
 925 735 925 735 917.5 786.5 c 128,-1,26
 910 838 910 838 889 867.5 c 128,-1,27
 868 897 868 897 829.5 908.5 c 128,-1,28
 791 920 791 920 728 920 c 0,29,30
 719 920 719 920 698.5 916.5 c 128,-1,31
 678 913 678 913 655 907 c 128,-1,32
 632 901 632 901 610 892.5 c 128,-1,33
 588 884 588 884 576 874 c 1,34,-1
 576 163 l 1,35,-1
 699 136 l 1,36,-1
 699 0 l 1,37,-1
 97 0 l 1,38,-1
 97 136 l 1,0,-1
EndSplineSet
EndChar

StartChar: o
Encoding: 111 111 78
Width: 1335
Flags: W
LayerCount: 2
Fore
SplineSet
74 561 m 0,0,1
 76 715 76 715 127.5 826 c 128,-1,2
 179 937 179 937 263.5 1009 c 128,-1,3
 348 1081 348 1081 458 1115.5 c 128,-1,4
 568 1150 568 1150 686 1152 c 1,5,6
 820 1153 820 1153 926.5 1118 c 128,-1,7
 1033 1083 1033 1083 1107.5 1012.5 c 128,-1,8
 1182 942 1182 942 1222 836 c 128,-1,9
 1262 730 1262 730 1262 591 c 0,10,11
 1262 433 1262 433 1212 317.5 c 128,-1,12
 1162 202 1162 202 1078.5 126 c 128,-1,13
 995 50 995 50 886 13 c 128,-1,14
 777 -24 777 -24 658 -24 c 0,15,16
 498 -24 498 -24 386.5 22 c 128,-1,17
 275 68 275 68 205 147.5 c 128,-1,18
 135 227 135 227 103.5 334 c 128,-1,19
 72 441 72 441 74 561 c 0,0,1
669 122 m 0,20,21
 739 122 739 122 781.5 163 c 128,-1,22
 824 204 824 204 847 269 c 128,-1,23
 870 334 870 334 878 414.5 c 128,-1,24
 886 495 886 495 886 574 c 0,25,26
 886 621 886 621 883 671.5 c 128,-1,27
 880 722 880 722 871.5 770 c 128,-1,28
 863 818 863 818 848.5 861 c 128,-1,29
 834 904 834 904 811 936 c 128,-1,30
 788 968 788 968 755 987 c 128,-1,31
 722 1006 722 1006 677 1006 c 0,32,33
 631 1006 631 1006 596 988.5 c 128,-1,34
 561 971 561 971 535.5 941 c 128,-1,35
 510 911 510 911 493.5 871 c 128,-1,36
 477 831 477 831 467.5 784.5 c 128,-1,37
 458 738 458 738 454 688 c 128,-1,38
 450 638 450 638 450 589 c 0,39,40
 450 546 450 546 454 495 c 128,-1,41
 458 444 458 444 467 392 c 128,-1,42
 476 340 476 340 492 291.5 c 128,-1,43
 508 243 508 243 532.5 205 c 128,-1,44
 557 167 557 167 590.5 144.5 c 128,-1,45
 624 122 624 122 669 122 c 0,20,21
EndSplineSet
EndChar

StartChar: p
Encoding: 112 112 79
Width: 1349
Flags: W
LayerCount: 2
Fore
SplineSet
193 -344 m 1,0,-1
 193 819 l 1,1,-1
 57 915 l 1,2,-1
 57 1041 l 1,3,-1
 428 1151 l 1,4,-1
 498 1133 l 1,5,-1
 498 1004 l 1,6,7
 503 1015 503 1015 527.5 1039.5 c 128,-1,8
 552 1064 552 1064 593 1088.5 c 128,-1,9
 634 1113 634 1113 692 1132 c 128,-1,10
 750 1151 750 1151 822 1151 c 0,11,12
 912 1151 912 1151 994 1123 c 128,-1,13
 1076 1095 1076 1095 1138.5 1030 c 128,-1,14
 1201 965 1201 965 1238.5 858.5 c 128,-1,15
 1276 752 1276 752 1276 595 c 0,16,17
 1276 470 1276 470 1228.5 357.5 c 128,-1,18
 1181 245 1181 245 1097 160 c 128,-1,19
 1013 75 1013 75 898.5 25.5 c 128,-1,20
 784 -24 784 -24 650 -24 c 0,21,22
 615 -24 615 -24 581 -19 c 128,-1,23
 547 -14 547 -14 532 -12 c 1,24,-1
 545 -177 l 1,25,-1
 545 -344 l 1,26,-1
 758 -373 l 1,27,-1
 758 -511 l 1,28,-1
 61 -511 l 1,29,-1
 61 -373 l 1,30,-1
 193 -344 l 1,0,-1
544 221 m 1,31,32
 552 204 552 204 570 191 c 128,-1,33
 588 178 588 178 611.5 169 c 128,-1,34
 635 160 635 160 662 155.5 c 128,-1,35
 689 151 689 151 714 151 c 0,36,37
 745 151 745 151 782.5 168 c 128,-1,38
 820 185 820 185 852 228.5 c 128,-1,39
 884 272 884 272 905.5 347.5 c 128,-1,40
 927 423 927 423 927 539 c 0,41,42
 927 671 927 671 902 754.5 c 128,-1,43
 877 838 877 838 839.5 885.5 c 128,-1,44
 802 933 802 933 758.5 950.5 c 128,-1,45
 715 968 715 968 678 968 c 0,46,47
 653 968 653 968 631.5 960.5 c 128,-1,48
 610 953 610 953 592.5 942 c 128,-1,49
 575 931 575 931 563 919.5 c 128,-1,50
 551 908 551 908 544 900 c 1,51,-1
 544 221 l 1,31,32
EndSplineSet
EndChar

StartChar: q
Encoding: 113 113 80
Width: 1336
Flags: W
LayerCount: 2
Fore
SplineSet
73 552 m 0,0,1
 73 677 73 677 121.5 786.5 c 128,-1,2
 170 896 170 896 257.5 977 c 128,-1,3
 345 1058 345 1058 467 1104.5 c 128,-1,4
 589 1151 589 1151 735 1151 c 0,5,6
 761 1151 761 1151 797.5 1148 c 128,-1,7
 834 1145 834 1145 872 1137.5 c 128,-1,8
 910 1130 910 1130 946 1118 c 128,-1,9
 982 1106 982 1106 1008 1088 c 1,10,-1
 1146 1151 l 1,11,-1
 1198 1128 l 1,12,-1
 1198 -355 l 1,13,-1
 1330 -379 l 1,14,-1
 1330 -511 l 1,15,-1
 653 -511 l 1,16,-1
 653 -379 l 1,17,-1
 844 -356 l 1,18,-1
 844 -47 l 1,19,-1
 857 76 l 1,20,21
 843 62 843 62 820 45 c 128,-1,22
 797 28 797 28 763.5 12.5 c 128,-1,23
 730 -3 730 -3 684.5 -13.5 c 128,-1,24
 639 -24 639 -24 582 -24 c 0,25,26
 530 -24 530 -24 472 -15.5 c 128,-1,27
 414 -7 414 -7 357.5 16.5 c 128,-1,28
 301 40 301 40 249.5 80.5 c 128,-1,29
 198 121 198 121 158.5 185 c 128,-1,30
 119 249 119 249 96 339.5 c 128,-1,31
 73 430 73 430 73 552 c 0,0,1
696 177 m 0,32,33
 744 177 744 177 781.5 187.5 c 128,-1,34
 819 198 819 198 844 218 c 1,35,-1
 844 944 l 1,36,37
 838 955 838 955 826.5 965.5 c 128,-1,38
 815 976 815 976 799 983.5 c 128,-1,39
 783 991 783 991 764.5 995.5 c 128,-1,40
 746 1000 746 1000 727 1000 c 0,41,42
 643 1000 643 1000 589 971 c 128,-1,43
 535 942 535 942 503 890 c 128,-1,44
 471 838 471 838 457.5 764.5 c 128,-1,45
 444 691 444 691 442 603 c 0,46,47
 439 509 439 509 452.5 431 c 128,-1,48
 466 353 466 353 497 296.5 c 128,-1,49
 528 240 528 240 577.5 208.5 c 128,-1,50
 627 177 627 177 696 177 c 0,32,33
EndSplineSet
EndChar

StartChar: r
Encoding: 114 114 81
Width: 966
Flags: W
LayerCount: 2
Fore
SplineSet
98 136 m 1,0,-1
 221 161 l 1,1,-1
 221 819 l 1,2,-1
 85 915 l 1,3,-1
 85 1041 l 1,4,-1
 456 1151 l 1,5,-1
 528 1133 l 1,6,-1
 528 937 l 1,7,8
 541 987 541 987 576 1027 c 128,-1,9
 611 1067 611 1067 654 1094.5 c 128,-1,10
 697 1122 697 1122 741 1136.5 c 128,-1,11
 785 1151 785 1151 816 1151 c 0,12,13
 851 1151 851 1151 881 1148 c 128,-1,14
 911 1145 911 1145 924 1139 c 1,15,-1
 924 823 l 1,16,17
 912 835 912 835 890 844 c 128,-1,18
 868 853 868 853 843.5 859 c 128,-1,19
 819 865 819 865 794.5 868 c 128,-1,20
 770 871 770 871 753 871 c 0,21,22
 711 871 711 871 679 866 c 128,-1,23
 647 861 647 861 625.5 854.5 c 128,-1,24
 604 848 604 848 591.5 842 c 128,-1,25
 579 836 579 836 575 833 c 1,26,-1
 575 170 l 1,27,-1
 808 136 l 1,28,-1
 808 0 l 1,29,-1
 98 0 l 1,30,-1
 98 136 l 1,0,-1
EndSplineSet
EndChar

StartChar: s
Encoding: 115 115 82
Width: 1095
Flags: W
LayerCount: 2
Fore
SplineSet
99 329 m 1,0,-1
 264 329 l 1,1,-1
 327 220 l 1,2,3
 339 207 339 207 356 189 c 128,-1,4
 373 171 373 171 396 154.5 c 128,-1,5
 419 138 419 138 448.5 125.5 c 128,-1,6
 478 113 478 113 515 111 c 0,7,8
 605 106 605 106 651.5 141 c 128,-1,9
 698 176 698 176 697 236 c 0,10,11
 696 263 696 263 674.5 287.5 c 128,-1,12
 653 312 653 312 617 335.5 c 128,-1,13
 581 359 581 359 534.5 381.5 c 128,-1,14
 488 404 488 404 437 427 c 0,15,16
 366 460 366 460 301 497.5 c 128,-1,17
 236 535 236 535 187 583 c 128,-1,18
 138 631 138 631 109 691.5 c 128,-1,19
 80 752 80 752 81 830 c 0,20,21
 82 890 82 890 104.5 936.5 c 128,-1,22
 127 983 127 983 164.5 1018 c 128,-1,23
 202 1053 202 1053 250.5 1078 c 128,-1,24
 299 1103 299 1103 352 1118.5 c 128,-1,25
 405 1134 405 1134 458.5 1142 c 128,-1,26
 512 1150 512 1150 560 1151 c 0,27,28
 617 1152 617 1152 675 1147.5 c 128,-1,29
 733 1143 733 1143 785.5 1134.5 c 128,-1,30
 838 1126 838 1126 882.5 1115.5 c 128,-1,31
 927 1105 927 1105 958 1093 c 1,32,-1
 958 820 l 1,33,-1
 782 820 l 1,34,-1
 726 944 l 1,35,36
 700 975 700 975 661.5 999 c 128,-1,37
 623 1023 623 1023 578 1023 c 0,38,39
 550 1023 550 1023 523.5 1018 c 128,-1,40
 497 1013 497 1013 476.5 1001.5 c 128,-1,41
 456 990 456 990 443.5 972.5 c 128,-1,42
 431 955 431 955 431 931 c 0,43,44
 431 898 431 898 444.5 870 c 128,-1,45
 458 842 458 842 482 817.5 c 128,-1,46
 506 793 506 793 539.5 772 c 128,-1,47
 573 751 573 751 613 733 c 0,48,49
 661 711 661 711 710.5 689 c 128,-1,50
 760 667 760 667 807 642 c 128,-1,51
 854 617 854 617 895.5 588 c 128,-1,52
 937 559 937 559 968 522 c 128,-1,53
 999 485 999 485 1017 439.5 c 128,-1,54
 1035 394 1035 394 1035 336 c 0,55,56
 1035 237 1035 237 992 168.5 c 128,-1,57
 949 100 949 100 876 57 c 128,-1,58
 803 14 803 14 706 -5 c 128,-1,59
 609 -24 609 -24 501 -24 c 0,60,61
 453 -24 453 -24 399.5 -19 c 128,-1,62
 346 -14 346 -14 292.5 -3 c 128,-1,63
 239 8 239 8 189 25 c 128,-1,64
 139 42 139 42 99 66 c 1,65,-1
 99 329 l 1,0,-1
EndSplineSet
EndChar

StartChar: t
Encoding: 116 116 83
Width: 924
Flags: W
LayerCount: 2
Fore
SplineSet
181 940 m 1,0,-1
 29 940 l 1,1,-1
 29 1053 l 1,2,3
 84 1062 84 1062 131 1079 c 128,-1,4
 178 1096 178 1096 212 1126 c 0,5,6
 244 1155 244 1155 276 1216.5 c 128,-1,7
 308 1278 308 1278 341 1386 c 1,8,-1
 509 1386 l 1,9,-1
 509 1119 l 1,10,-1
 851 1119 l 1,11,-1
 851 940 l 1,12,-1
 525 940 l 1,13,-1
 525 575 l 2,14,15
 525 441 525 441 531 362.5 c 128,-1,16
 537 284 537 284 551 243 c 128,-1,17
 565 202 565 202 588.5 190 c 128,-1,18
 612 178 612 178 648 178 c 0,19,20
 668 178 668 178 693 180.5 c 128,-1,21
 718 183 718 183 742 187.5 c 128,-1,22
 766 192 766 192 787 198.5 c 128,-1,23
 808 205 808 205 822 213 c 1,24,-1
 874 100 l 1,25,26
 850 75 850 75 809.5 52.5 c 128,-1,27
 769 30 769 30 715.5 13 c 128,-1,28
 662 -4 662 -4 599.5 -14 c 128,-1,29
 537 -24 537 -24 470 -24 c 0,30,31
 383 -24 383 -24 327 -2 c 128,-1,32
 271 20 271 20 238.5 65 c 128,-1,33
 206 110 206 110 193.5 179.5 c 128,-1,34
 181 249 181 249 181 345 c 2,35,-1
 181 940 l 1,0,-1
EndSplineSet
EndChar

StartChar: u
Encoding: 117 117 84
Width: 1331
Flags: W
LayerCount: 2
Fore
SplineSet
147 868 m 1,0,-1
 53 938 l 1,1,-1
 53 1060 l 1,2,-1
 435 1151 l 1,3,-1
 488 1134 l 1,4,-1
 488 438 l 2,5,6
 488 370 488 370 494.5 319.5 c 128,-1,7
 501 269 501 269 518 235 c 128,-1,8
 535 201 535 201 564.5 184 c 128,-1,9
 594 167 594 167 641 167 c 0,10,11
 666 167 666 167 692.5 171 c 128,-1,12
 719 175 719 175 743 181.5 c 128,-1,13
 767 188 767 188 787 198 c 128,-1,14
 807 208 807 208 819 220 c 1,15,-1
 819 851 l 1,16,-1
 692 922 l 1,17,-1
 692 1060 l 1,18,-1
 1110 1151 l 1,19,-1
 1166 1134 l 1,20,-1
 1166 136 l 1,21,-1
 1280 136 l 1,22,-1
 1280 29 l 1,23,24
 1263 17 1263 17 1232.5 6.5 c 128,-1,25
 1202 -4 1202 -4 1163 -11.5 c 128,-1,26
 1124 -19 1124 -19 1081 -23.5 c 128,-1,27
 1038 -28 1038 -28 997 -28 c 0,28,29
 967 -28 967 -28 941 -22 c 128,-1,30
 915 -16 915 -16 895.5 -3 c 128,-1,31
 876 10 876 10 865 31 c 128,-1,32
 854 52 854 52 854 82 c 2,33,-1
 854 120 l 1,34,35
 825 85 825 85 783.5 58 c 128,-1,36
 742 31 742 31 696 11.5 c 128,-1,37
 650 -8 650 -8 605 -18 c 128,-1,38
 560 -28 560 -28 524 -28 c 0,39,40
 419 -28 419 -28 347 -3.5 c 128,-1,41
 275 21 275 21 230.5 72 c 128,-1,42
 186 123 186 123 166.5 202 c 128,-1,43
 147 281 147 281 147 391 c 2,44,-1
 147 868 l 1,0,-1
EndSplineSet
EndChar

StartChar: v
Encoding: 118 118 85
Width: 1285
Flags: W
LayerCount: 2
Fore
SplineSet
107 916 m 1,0,-1
 4 943 l 1,1,-1
 4 1119 l 1,2,-1
 581 1119 l 1,3,-1
 581 941 l 1,4,-1
 492 912 l 1,5,-1
 655 439 l 1,6,-1
 709 250 l 1,7,-1
 752 442 l 1,8,-1
 898 913 l 1,9,-1
 777 940 l 1,10,-1
 777 1119 l 1,11,-1
 1279 1119 l 1,12,-1
 1279 941 l 1,13,-1
 1164 905 l 1,14,-1
 793 -5 l 1,15,-1
 504 -5 l 1,16,-1
 107 916 l 1,0,-1
EndSplineSet
EndChar

StartChar: w
Encoding: 119 119 86
Width: 1842
Flags: W
LayerCount: 2
Fore
SplineSet
119 913 m 1,0,-1
 3 940 l 1,1,-1
 3 1119 l 1,2,-1
 571 1119 l 1,3,-1
 571 940 l 1,4,-1
 473 913 l 1,5,-1
 587 449 l 1,6,-1
 621 291 l 1,7,-1
 644 419 l 1,8,-1
 834 1119 l 1,9,-1
 1125 1119 l 1,10,-1
 1304 419 l 1,11,-1
 1335 278 l 1,12,-1
 1364 419 l 1,13,-1
 1473 910 l 1,14,-1
 1340 940 l 1,15,-1
 1340 1119 l 1,16,-1
 1839 1119 l 1,17,-1
 1839 941 l 1,18,-1
 1699 907 l 1,19,-1
 1442 -5 l 1,20,-1
 1108 -5 l 1,21,-1
 954 507 l 1,22,-1
 900 722 l 1,23,-1
 862 507 l 1,24,-1
 724 -5 l 1,25,-1
 403 -5 l 1,26,-1
 119 913 l 1,0,-1
EndSplineSet
EndChar

StartChar: x
Encoding: 120 120 87
Width: 1298
Flags: W
LayerCount: 2
Fore
SplineSet
0 136 m 1,0,-1
 164 169 l 1,1,-1
 473 535 l 1,2,-1
 137 915 l 1,3,-1
 8 940 l 1,4,-1
 8 1119 l 1,5,-1
 636 1119 l 1,6,-1
 636 940 l 1,7,-1
 543 915 l 1,8,-1
 580 861 l 1,9,-1
 702 698 l 1,10,-1
 728 740 l 1,11,-1
 869 921 l 1,12,-1
 742 940 l 1,13,-1
 742 1119 l 1,14,-1
 1297 1119 l 1,15,-1
 1297 940 l 1,16,-1
 1112 910 l 1,17,-1
 819 591 l 1,18,-1
 1170 167 l 1,19,-1
 1298 136 l 1,20,-1
 1298 0 l 1,21,-1
 680 0 l 1,22,-1
 680 136 l 1,23,-1
 764 165 l 1,24,-1
 704 245 l 1,25,-1
 583 404 l 1,26,-1
 569 369 l 1,27,-1
 437 172 l 1,28,-1
 581 136 l 1,29,-1
 581 0 l 1,30,-1
 0 0 l 1,31,-1
 0 136 l 1,0,-1
EndSplineSet
EndChar

StartChar: y
Encoding: 121 121 88
Width: 1233
Flags: W
LayerCount: 2
Fore
SplineSet
147 -261 m 1,0,1
 173 -266 173 -266 209 -272.5 c 128,-1,2
 245 -279 245 -279 295 -277 c 0,3,4
 319 -276 319 -276 352 -267.5 c 128,-1,5
 385 -259 385 -259 420 -230.5 c 128,-1,6
 455 -202 455 -202 487.5 -147.5 c 128,-1,7
 520 -93 520 -93 542 0 c 1,8,-1
 486 0 l 1,9,-1
 92 914 l 1,10,-1
 5 940 l 1,11,-1
 5 1119 l 1,12,-1
 590 1119 l 1,13,-1
 590 940 l 1,14,-1
 476 915 l 1,15,-1
 673 381 l 1,16,-1
 689 278 l 1,17,-1
 718 381 l 1,18,-1
 881 917 l 1,19,-1
 744 940 l 1,20,-1
 744 1119 l 1,21,-1
 1252 1119 l 1,22,-1
 1252 940 l 1,23,-1
 1152 919 l 1,24,25
 1078 731 1078 731 1022 591 c 128,-1,26
 966 451 966 451 925 349 c 128,-1,27
 884 247 884 247 856 178.5 c 128,-1,28
 828 110 828 110 809.5 64.5 c 128,-1,29
 791 19 791 19 779.5 -9 c 128,-1,30
 768 -37 768 -37 761 -56 c 0,31,32
 717 -173 717 -173 672 -263.5 c 128,-1,33
 627 -354 627 -354 573.5 -416 c 128,-1,34
 520 -478 520 -478 455 -510 c 128,-1,35
 390 -542 390 -542 306 -542 c 0,36,37
 285 -542 285 -542 261.5 -541.5 c 128,-1,38
 238 -541 238 -541 215 -539 c 256,39,40
 192 -537 192 -537 173.5 -534.5 c 128,-1,41
 155 -532 155 -532 145 -527 c 1,42,-1
 147 -261 l 1,0,1
EndSplineSet
EndChar

StartChar: z
Encoding: 122 122 89
Width: 1151
Flags: W
LayerCount: 2
Fore
SplineSet
52 100 m 1,0,-1
 167 284 l 1,1,-1
 604 878 l 1,2,-1
 689 968 l 1,3,-1
 344 948 l 1,4,-1
 278 746 l 1,5,-1
 96 746 l 1,6,-1
 96 1119 l 1,7,-1
 1053 1119 l 1,8,-1
 1104 995 l 1,9,-1
 628 303 l 1,10,-1
 505 151 l 1,11,-1
 868 186 l 1,12,-1
 928 358 l 1,13,-1
 1113 358 l 1,14,-1
 1097 0 l 1,15,-1
 98 0 l 1,16,-1
 52 100 l 1,0,-1
EndSplineSet
EndChar

StartChar: braceleft
Encoding: 123 123 90
Width: 1133
Flags: W
LayerCount: 2
Fore
SplineSet
259 559 m 2,0,1
 259 583 259 583 244.5 603 c 128,-1,2
 230 623 230 623 205.5 637.5 c 128,-1,3
 181 652 181 652 149 661 c 128,-1,4
 117 670 117 670 82 673 c 1,5,-1
 82 894 l 1,6,7
 120 898 120 898 152.5 905 c 128,-1,8
 185 912 185 912 208.5 923.5 c 128,-1,9
 232 935 232 935 245.5 953 c 128,-1,10
 259 971 259 971 259 999 c 2,11,-1
 259 1558 l 2,12,13
 259 1632 259 1632 280.5 1680 c 128,-1,14
 302 1728 302 1728 339.5 1756.5 c 128,-1,15
 377 1785 377 1785 427 1796 c 128,-1,16
 477 1807 477 1807 535 1807 c 0,17,18
 576 1807 576 1807 623 1799 c 128,-1,19
 670 1791 670 1791 716.5 1779.5 c 128,-1,20
 763 1768 763 1768 806 1755 c 128,-1,21
 849 1742 849 1742 881 1733 c 1,22,23
 881 1701 881 1701 880.5 1670 c 128,-1,24
 880 1639 880 1639 880 1607 c 1,25,-1
 573 1607 l 1,26,-1
 573 971 l 2,27,28
 573 935 573 935 562 910 c 128,-1,29
 551 885 551 885 531 865 c 0,30,31
 502 837 502 837 457.5 818 c 128,-1,32
 413 799 413 799 359 776 c 1,33,34
 410 756 410 756 453 736.5 c 128,-1,35
 496 717 496 717 525 689 c 0,36,37
 548 668 548 668 560.5 640.5 c 128,-1,38
 573 613 573 613 573 575 c 2,39,-1
 573 -59 l 1,40,-1
 880 -59 l 1,41,42
 880 -91 880 -91 880.5 -123 c 128,-1,43
 881 -155 881 -155 881 -187 c 1,44,45
 849 -196 849 -196 809 -208.5 c 128,-1,46
 769 -221 769 -221 726 -232 c 128,-1,47
 683 -243 683 -243 639 -251 c 128,-1,48
 595 -259 595 -259 554 -259 c 0,49,50
 496 -259 496 -259 443 -249 c 128,-1,51
 390 -239 390 -239 349 -209.5 c 128,-1,52
 308 -180 308 -180 283.5 -127.5 c 128,-1,53
 259 -75 259 -75 259 10 c 2,54,-1
 259 559 l 2,0,1
EndSplineSet
EndChar

StartChar: bar
Encoding: 124 124 91
Width: 1088
Flags: W
LayerCount: 2
Fore
SplineSet
367 1780 m 1,0,-1
 721 1780 l 1,1,-1
 721 -186 l 1,2,-1
 367 -186 l 1,3,-1
 367 1780 l 1,0,-1
EndSplineSet
EndChar

StartChar: braceright
Encoding: 125 125 92
Width: 1133
Flags: W
LayerCount: 2
Fore
SplineSet
554 -59 m 1,0,-1
 554 575 l 2,1,2
 554 613 554 613 566.5 640.5 c 128,-1,3
 579 668 579 668 602 689 c 0,4,5
 631 717 631 717 673.5 736.5 c 128,-1,6
 716 756 716 756 767 776 c 1,7,8
 714 799 714 799 669.5 818 c 128,-1,9
 625 837 625 837 596 865 c 0,10,11
 576 885 576 885 565 910 c 128,-1,12
 554 935 554 935 554 971 c 2,13,-1
 554 1607 l 1,14,-1
 247 1607 l 1,15,16
 247 1639 247 1639 246.5 1670 c 128,-1,17
 246 1701 246 1701 246 1733 c 1,18,19
 278 1742 278 1742 321 1755 c 128,-1,20
 364 1768 364 1768 410.5 1779.5 c 128,-1,21
 457 1791 457 1791 504 1799 c 128,-1,22
 551 1807 551 1807 592 1807 c 0,23,24
 650 1807 650 1807 700 1796 c 128,-1,25
 750 1785 750 1785 787.5 1756.5 c 128,-1,26
 825 1728 825 1728 846.5 1680 c 128,-1,27
 868 1632 868 1632 868 1558 c 2,28,-1
 868 999 l 2,29,30
 868 971 868 971 881.5 953 c 128,-1,31
 895 935 895 935 918.5 923.5 c 128,-1,32
 942 912 942 912 974.5 905 c 128,-1,33
 1007 898 1007 898 1045 894 c 1,34,-1
 1045 673 l 1,35,36
 1010 670 1010 670 978 661 c 128,-1,37
 946 652 946 652 921.5 637.5 c 128,-1,38
 897 623 897 623 882.5 603 c 128,-1,39
 868 583 868 583 868 559 c 2,40,-1
 868 10 l 2,41,42
 868 -75 868 -75 843.5 -127.5 c 128,-1,43
 819 -180 819 -180 778 -209.5 c 128,-1,44
 737 -239 737 -239 684 -249 c 128,-1,45
 631 -259 631 -259 573 -259 c 0,46,47
 532 -259 532 -259 488 -251 c 128,-1,48
 444 -243 444 -243 401 -232 c 128,-1,49
 358 -221 358 -221 318 -208.5 c 128,-1,50
 278 -196 278 -196 246 -187 c 1,51,52
 246 -155 246 -155 246.5 -123 c 128,-1,53
 247 -91 247 -91 247 -59 c 1,54,-1
 554 -59 l 1,0,-1
EndSplineSet
EndChar

StartChar: asciitilde
Encoding: 126 126 93
Width: 1317
Flags: W
LayerCount: 2
Fore
SplineSet
146 852 m 1,0,1
 149 871 149 871 164.5 896.5 c 128,-1,2
 180 922 180 922 204.5 949.5 c 128,-1,3
 229 977 229 977 261.5 1003 c 128,-1,4
 294 1029 294 1029 331 1050 c 128,-1,5
 368 1071 368 1071 408.5 1084 c 128,-1,6
 449 1097 449 1097 491 1097 c 0,7,8
 534 1097 534 1097 568 1086.5 c 128,-1,9
 602 1076 602 1076 630.5 1060.5 c 128,-1,10
 659 1045 659 1045 684 1027 c 128,-1,11
 709 1009 709 1009 735 993.5 c 128,-1,12
 761 978 761 978 789.5 967.5 c 128,-1,13
 818 957 818 957 854 957 c 0,14,15
 889 957 889 957 922 967.5 c 128,-1,16
 955 978 955 978 983.5 993.5 c 128,-1,17
 1012 1009 1012 1009 1034.5 1026.5 c 128,-1,18
 1057 1044 1057 1044 1072 1057 c 1,19,-1
 1171 931 l 1,20,21
 1166 899 1166 899 1136.5 856.5 c 128,-1,22
 1107 814 1107 814 1060.5 775.5 c 128,-1,23
 1014 737 1014 737 954 710.5 c 128,-1,24
 894 684 894 684 829 684 c 0,25,26
 786 684 786 684 753 694.5 c 128,-1,27
 720 705 720 705 692 721 c 128,-1,28
 664 737 664 737 639 755 c 128,-1,29
 614 773 614 773 587.5 789 c 128,-1,30
 561 805 561 805 530.5 815.5 c 128,-1,31
 500 826 500 826 460 826 c 0,32,33
 425 826 425 826 392.5 815.5 c 128,-1,34
 360 805 360 805 332 789.5 c 128,-1,35
 304 774 304 774 281.5 756.5 c 128,-1,36
 259 739 259 739 244 726 c 1,37,-1
 146 852 l 1,0,1
EndSplineSet
EndChar

StartChar: exclamdown
Encoding: 161 161 94
Width: 813
Flags: W
LayerCount: 2
Fore
SplineSet
403 1027 m 0,0,1
 365 1027 365 1027 328.5 1039.5 c 128,-1,2
 292 1052 292 1052 263.5 1075.5 c 128,-1,3
 235 1099 235 1099 217.5 1133.5 c 128,-1,4
 200 1168 200 1168 200 1213 c 0,5,6
 200 1261 200 1261 222 1302.5 c 128,-1,7
 244 1344 244 1344 278.5 1374.5 c 128,-1,8
 313 1405 313 1405 355 1422.5 c 128,-1,9
 397 1440 397 1440 438 1440 c 0,10,11
 491 1440 491 1440 530 1424.5 c 128,-1,12
 569 1409 569 1409 594.5 1383 c 128,-1,13
 620 1357 620 1357 632.5 1321.5 c 128,-1,14
 645 1286 645 1286 645 1246 c 0,15,16
 645 1195 645 1195 624 1154.5 c 128,-1,17
 603 1114 603 1114 568.5 1085.5 c 128,-1,18
 534 1057 534 1057 490.5 1042 c 128,-1,19
 447 1027 447 1027 403 1027 c 0,0,1
320 825 m 1,20,-1
 502 825 l 1,21,-1
 646 -445 l 1,22,-1
 167 -445 l 1,23,-1
 320 825 l 1,20,-1
EndSplineSet
EndChar

StartChar: sterling
Encoding: 163 163 95
Width: 1548
Flags: W
LayerCount: 2
Fore
SplineSet
3 71 m 0,0,1
 3 100 3 100 22.5 130 c 128,-1,2
 42 160 42 160 82 184 c 128,-1,3
 122 208 122 208 183 223 c 128,-1,4
 244 238 244 238 326 238 c 1,5,6
 334 257 334 257 339.5 276.5 c 128,-1,7
 345 296 345 296 348 320 c 128,-1,8
 351 344 351 344 352.5 375.5 c 128,-1,9
 354 407 354 407 354 450 c 2,10,-1
 354 691 l 1,11,-1
 196 691 l 1,12,-1
 196 890 l 1,13,-1
 354 890 l 1,14,-1
 354 939 l 2,15,16
 354 1056 354 1056 392 1168.5 c 128,-1,17
 430 1281 430 1281 503 1370 c 128,-1,18
 576 1459 576 1459 683 1513.5 c 128,-1,19
 790 1568 790 1568 929 1568 c 0,20,21
 1014 1568 1014 1568 1099.5 1543.5 c 128,-1,22
 1185 1519 1185 1519 1254 1461 c 1,23,-1
 1097 1177 l 1,24,25
 1092 1190 1092 1190 1080.5 1211.5 c 128,-1,26
 1069 1233 1069 1233 1050.5 1258 c 128,-1,27
 1032 1283 1032 1283 1007.5 1309 c 128,-1,28
 983 1335 983 1335 954 1356 c 128,-1,29
 925 1377 925 1377 891.5 1390 c 128,-1,30
 858 1403 858 1403 822 1403 c 0,31,32
 788 1403 788 1403 766 1383.5 c 128,-1,33
 744 1364 744 1364 731.5 1316.5 c 128,-1,34
 719 1269 719 1269 714.5 1190 c 128,-1,35
 710 1111 710 1111 710 992 c 2,36,-1
 710 890 l 1,37,-1
 961 890 l 1,38,-1
 961 691 l 1,39,-1
 710 691 l 1,40,-1
 710 635 l 2,41,42
 710 559 710 559 704 496.5 c 128,-1,43
 698 434 698 434 683.5 382 c 128,-1,44
 669 330 669 330 645.5 286.5 c 128,-1,45
 622 243 622 243 587 205 c 1,46,47
 626 201 626 201 655.5 193 c 128,-1,48
 685 185 685 185 716.5 176.5 c 128,-1,49
 748 168 748 168 786 161 c 128,-1,50
 824 154 824 154 879 152 c 0,51,52
 929 150 929 150 971 163 c 128,-1,53
 1013 176 1013 176 1043 197.5 c 128,-1,54
 1073 219 1073 219 1089.5 246 c 128,-1,55
 1106 273 1106 273 1106 299 c 0,56,57
 1106 326 1106 326 1094.5 348 c 128,-1,58
 1083 370 1083 370 1067.5 387 c 128,-1,59
 1052 404 1052 404 1036 415.5 c 128,-1,60
 1020 427 1020 427 1010 433 c 1,61,-1
 1146 700 l 1,62,63
 1198 691 1198 691 1245.5 661 c 128,-1,64
 1293 631 1293 631 1329 586 c 128,-1,65
 1365 541 1365 541 1386.5 484 c 128,-1,66
 1408 427 1408 427 1408 365 c 0,67,68
 1408 331 1408 331 1399.5 288 c 128,-1,69
 1391 245 1391 245 1370.5 200 c 128,-1,70
 1350 155 1350 155 1315 112 c 128,-1,71
 1280 69 1280 69 1226.5 35.5 c 128,-1,72
 1173 2 1173 2 1099.5 -18.5 c 128,-1,73
 1026 -39 1026 -39 929 -39 c 0,74,75
 862 -39 862 -39 807.5 -30 c 128,-1,76
 753 -21 753 -21 708 -7.5 c 128,-1,77
 663 6 663 6 626 22 c 128,-1,78
 589 38 589 38 557.5 50.5 c 128,-1,79
 526 63 526 63 498.5 71 c 128,-1,80
 471 79 471 79 444 77 c 1,81,82
 402 32 402 32 334.5 2.5 c 128,-1,83
 267 -27 267 -27 176 -29 c 0,84,85
 140 -30 140 -30 108.5 -24 c 128,-1,86
 77 -18 77 -18 53.5 -5.5 c 128,-1,87
 30 7 30 7 16.5 26.5 c 128,-1,88
 3 46 3 46 3 71 c 0,0,1
EndSplineSet
EndChar

StartChar: currency
Encoding: 164 164 96
Width: 1491
Flags: W
LayerCount: 2
Fore
SplineSet
364 469 m 1,0,1
 335 517 335 517 320 572 c 128,-1,2
 305 627 305 627 305 688 c 0,3,4
 305 750 305 750 321.5 806 c 128,-1,5
 338 862 338 862 367 911 c 1,6,-1
 156 1126 l 1,7,-1
 312 1286 l 1,8,-1
 530 1065 l 1,9,-1
 529 1064 l 1,10,11
 575 1089 575 1089 626.5 1102.5 c 128,-1,12
 678 1116 678 1116 735 1116 c 256,13,14
 792 1116 792 1116 844 1102 c 128,-1,15
 896 1088 896 1088 943 1063 c 1,16,-1
 1183 1297 l 1,17,-1
 1341 1136 l 1,18,-1
 1106 906 l 1,19,20
 1135 858 1135 858 1150.5 803 c 128,-1,21
 1166 748 1166 748 1166 688 c 0,22,23
 1166 629 1166 629 1151.5 575.5 c 128,-1,24
 1137 522 1137 522 1110 475 c 1,25,-1
 1326 257 l 1,26,-1
 1168 99 l 1,27,-1
 950 317 l 1,28,29
 902 290 902 290 848 275.5 c 128,-1,30
 794 261 794 261 735 261 c 0,31,32
 678 261 678 261 625.5 274.5 c 128,-1,33
 573 288 573 288 526 314 c 1,34,-1
 309 97 l 1,35,-1
 150 254 l 1,36,-1
 364 469 l 1,0,1
553 688 m 256,37,38
 553 651 553 651 567.5 617 c 128,-1,39
 582 583 582 583 607.5 556.5 c 128,-1,40
 633 530 633 530 666 514 c 128,-1,41
 699 498 699 498 737 498 c 0,42,43
 774 498 774 498 807 514 c 128,-1,44
 840 530 840 530 864.5 556.5 c 128,-1,45
 889 583 889 583 903 617 c 128,-1,46
 917 651 917 651 917 688 c 256,47,48
 917 725 917 725 903 759 c 128,-1,49
 889 793 889 793 864.5 819.5 c 128,-1,50
 840 846 840 846 807 861.5 c 128,-1,51
 774 877 774 877 737 877 c 0,52,53
 699 877 699 877 666 861.5 c 128,-1,54
 633 846 633 846 607.5 819.5 c 128,-1,55
 582 793 582 793 567.5 759 c 128,-1,56
 553 725 553 725 553 688 c 256,37,38
EndSplineSet
EndChar

StartChar: brokenbar
Encoding: 166 166 97
Width: 1088
Flags: W
LayerCount: 2
Fore
SplineSet
367 1780 m 1,0,-1
 721 1780 l 1,1,-1
 721 907 l 1,2,-1
 367 907 l 1,3,-1
 367 1780 l 1,0,-1
367 688 m 1,4,-1
 721 688 l 1,5,-1
 721 -185 l 1,6,-1
 367 -185 l 1,7,-1
 367 688 l 1,4,-1
EndSplineSet
EndChar

StartChar: dieresis
Encoding: 168 168 98
Width: 1062
Flags: W
LayerCount: 2
Fore
SplineSet
781 1349 m 0,0,1
 746 1349 746 1349 713.5 1358 c 128,-1,2
 681 1367 681 1367 655.5 1385 c 128,-1,3
 630 1403 630 1403 615 1429 c 128,-1,4
 600 1455 600 1455 600 1489 c 0,5,6
 600 1524 600 1524 618 1553.5 c 128,-1,7
 636 1583 636 1583 665.5 1604.5 c 128,-1,8
 695 1626 695 1626 732 1638 c 128,-1,9
 769 1650 769 1650 807 1650 c 0,10,11
 856 1650 856 1650 890 1639.5 c 128,-1,12
 924 1629 924 1629 945 1610.5 c 128,-1,13
 966 1592 966 1592 975.5 1566.5 c 128,-1,14
 985 1541 985 1541 985 1512 c 0,15,16
 985 1474 985 1474 968 1444 c 128,-1,17
 951 1414 951 1414 923 1393 c 128,-1,18
 895 1372 895 1372 858 1360.5 c 128,-1,19
 821 1349 821 1349 781 1349 c 0,0,1
253 1348 m 0,20,21
 217 1348 217 1348 185 1357 c 128,-1,22
 153 1366 153 1366 128.5 1383.5 c 128,-1,23
 104 1401 104 1401 90 1427 c 128,-1,24
 76 1453 76 1453 76 1486 c 0,25,26
 76 1522 76 1522 93.5 1552 c 128,-1,27
 111 1582 111 1582 140 1604 c 128,-1,28
 169 1626 169 1626 205.5 1638 c 128,-1,29
 242 1650 242 1650 281 1650 c 0,30,31
 330 1650 330 1650 364.5 1639 c 128,-1,32
 399 1628 399 1628 421.5 1609.5 c 128,-1,33
 444 1591 444 1591 454.5 1565.5 c 128,-1,34
 465 1540 465 1540 465 1510 c 0,35,36
 465 1473 465 1473 447.5 1443 c 128,-1,37
 430 1413 430 1413 400.5 1392 c 128,-1,38
 371 1371 371 1371 332.5 1359.5 c 128,-1,39
 294 1348 294 1348 253 1348 c 0,20,21
EndSplineSet
EndChar

StartChar: copyright
Encoding: 169 169 99
Width: 2112
Flags: W
LayerCount: 2
Fore
SplineSet
1056 219 m 0,0,1
 927 219 927 219 812 248 c 128,-1,2
 697 277 697 277 600 331 c 128,-1,3
 503 385 503 385 426 461.5 c 128,-1,4
 349 538 349 538 295 632.5 c 128,-1,5
 241 727 241 727 212 837 c 128,-1,6
 183 947 183 947 183 1069 c 256,7,8
 183 1191 183 1191 214 1301.5 c 128,-1,9
 245 1412 245 1412 301.5 1506.5 c 128,-1,10
 358 1601 358 1601 437 1677.5 c 128,-1,11
 516 1754 516 1754 613 1808 c 128,-1,12
 710 1862 710 1862 822 1891 c 128,-1,13
 934 1920 934 1920 1056 1920 c 0,14,15
 1177 1920 1177 1920 1288.5 1891.5 c 128,-1,16
 1400 1863 1400 1863 1497 1810 c 128,-1,17
 1594 1757 1594 1757 1673.5 1681 c 128,-1,18
 1753 1605 1753 1605 1810 1510.5 c 128,-1,19
 1867 1416 1867 1416 1898 1304.5 c 128,-1,20
 1929 1193 1929 1193 1929 1069 c 0,21,22
 1929 953 1929 953 1898 844.5 c 128,-1,23
 1867 736 1867 736 1810 642 c 128,-1,24
 1753 548 1753 548 1673.5 470 c 128,-1,25
 1594 392 1594 392 1497 336 c 128,-1,26
 1400 280 1400 280 1288.5 249.5 c 128,-1,27
 1177 219 1177 219 1056 219 c 0,0,1
1055 374 m 0,28,29
 1149 374 1149 374 1237 398 c 128,-1,30
 1325 422 1325 422 1401 466.5 c 128,-1,31
 1477 511 1477 511 1540 573.5 c 128,-1,32
 1603 636 1603 636 1648 713 c 128,-1,33
 1693 790 1693 790 1717.5 880 c 128,-1,34
 1742 970 1742 970 1742 1069 c 256,35,36
 1742 1168 1742 1168 1717.5 1258.5 c 128,-1,37
 1693 1349 1693 1349 1648 1426.5 c 128,-1,38
 1603 1504 1603 1504 1540 1566.5 c 128,-1,39
 1477 1629 1477 1629 1401 1673 c 128,-1,40
 1325 1717 1325 1717 1237 1741 c 128,-1,41
 1149 1765 1149 1765 1055 1765 c 0,42,43
 960 1765 960 1765 872 1741 c 128,-1,44
 784 1717 784 1717 708 1673 c 128,-1,45
 632 1629 632 1629 569.5 1566.5 c 128,-1,46
 507 1504 507 1504 462.5 1426.5 c 128,-1,47
 418 1349 418 1349 393.5 1258.5 c 128,-1,48
 369 1168 369 1168 369 1069 c 256,49,50
 369 970 369 970 394 880 c 128,-1,51
 419 790 419 790 464.5 713 c 128,-1,52
 510 636 510 636 573 573.5 c 128,-1,53
 636 511 636 511 712 466.5 c 128,-1,54
 788 422 788 422 875 398 c 128,-1,55
 962 374 962 374 1055 374 c 0,28,29
1056 586 m 0,56,57
 939 586 939 586 850 621.5 c 128,-1,58
 761 657 761 657 701 720 c 128,-1,59
 641 783 641 783 610.5 870 c 128,-1,60
 580 957 580 957 580 1061 c 0,61,62
 580 1172 580 1172 620 1268 c 128,-1,63
 660 1364 660 1364 733 1435.5 c 128,-1,64
 806 1507 806 1507 907 1548 c 128,-1,65
 1008 1589 1008 1589 1130 1589 c 0,66,67
 1185 1589 1185 1589 1226 1585.5 c 128,-1,68
 1267 1582 1267 1582 1297.5 1575.5 c 128,-1,69
 1328 1569 1328 1569 1351 1559.5 c 128,-1,70
 1374 1550 1374 1550 1395 1539 c 1,71,-1
 1395 1233 l 1,72,-1
 1205 1233 l 1,73,-1
 1137 1387 l 1,74,75
 1126 1397 1126 1397 1102.5 1400.5 c 128,-1,76
 1079 1404 1079 1404 1059 1405 c 0,77,78
 983 1406 983 1406 948.5 1335.5 c 128,-1,79
 914 1265 914 1265 915 1126 c 0,80,81
 915 1046 915 1046 936.5 988 c 128,-1,82
 958 930 958 930 991.5 892 c 128,-1,83
 1025 854 1025 854 1067.5 835.5 c 128,-1,84
 1110 817 1110 817 1154 817 c 0,85,86
 1174 817 1174 817 1199.5 817.5 c 128,-1,87
 1225 818 1225 818 1253.5 822 c 128,-1,88
 1282 826 1282 826 1312 834.5 c 128,-1,89
 1342 843 1342 843 1372 859 c 1,90,-1
 1415 732 l 1,91,92
 1391 700 1391 700 1349.5 673 c 128,-1,93
 1308 646 1308 646 1258.5 626.5 c 128,-1,94
 1209 607 1209 607 1156.5 596.5 c 128,-1,95
 1104 586 1104 586 1056 586 c 0,56,57
EndSplineSet
EndChar

StartChar: guillemotleft
Encoding: 171 171 100
Width: 2155
Flags: W
LayerCount: 2
Fore
SplineSet
1101 757 m 1,0,-1
 1840 1144 l 1,1,-1
 1926 1008 l 1,2,-1
 1470 614 l 1,3,-1
 1926 238 l 1,4,-1
 1840 90 l 1,5,-1
 1101 452 l 1,6,-1
 1101 757 l 1,0,-1
229 757 m 1,7,-1
 968 1144 l 1,8,-1
 1054 1008 l 1,9,-1
 598 614 l 1,10,-1
 1054 238 l 1,11,-1
 968 90 l 1,12,-1
 229 452 l 1,13,-1
 229 757 l 1,7,-1
EndSplineSet
EndChar

StartChar: guilsinglleft
Encoding: 8249 8249 101
Width: 1283
Flags: W
LayerCount: 2
Fore
SplineSet
229 757 m 1,0,-1
 968 1144 l 1,1,-1
 1054 1008 l 1,2,-1
 598 614 l 1,3,-1
 1054 238 l 1,4,-1
 968 90 l 1,5,-1
 229 452 l 1,6,-1
 229 757 l 1,0,-1
EndSplineSet
EndChar

StartChar: registered
Encoding: 174 174 102
Width: 2112
Flags: W
LayerCount: 2
Fore
SplineSet
1056 219 m 0,0,1
 927 219 927 219 812 248 c 128,-1,2
 697 277 697 277 600 331 c 128,-1,3
 503 385 503 385 426 461.5 c 128,-1,4
 349 538 349 538 295 632.5 c 128,-1,5
 241 727 241 727 212 837 c 128,-1,6
 183 947 183 947 183 1069 c 256,7,8
 183 1191 183 1191 214 1301.5 c 128,-1,9
 245 1412 245 1412 301.5 1506.5 c 128,-1,10
 358 1601 358 1601 437 1677.5 c 128,-1,11
 516 1754 516 1754 613 1808 c 128,-1,12
 710 1862 710 1862 822 1891 c 128,-1,13
 934 1920 934 1920 1056 1920 c 0,14,15
 1177 1920 1177 1920 1288.5 1891.5 c 128,-1,16
 1400 1863 1400 1863 1497 1810 c 128,-1,17
 1594 1757 1594 1757 1673.5 1681 c 128,-1,18
 1753 1605 1753 1605 1810 1510.5 c 128,-1,19
 1867 1416 1867 1416 1898 1304.5 c 128,-1,20
 1929 1193 1929 1193 1929 1069 c 0,21,22
 1929 953 1929 953 1898 844.5 c 128,-1,23
 1867 736 1867 736 1810 642 c 128,-1,24
 1753 548 1753 548 1673.5 470 c 128,-1,25
 1594 392 1594 392 1497 336 c 128,-1,26
 1400 280 1400 280 1288.5 249.5 c 128,-1,27
 1177 219 1177 219 1056 219 c 0,0,1
1055 374 m 0,28,29
 1149 374 1149 374 1237 398 c 128,-1,30
 1325 422 1325 422 1401 466.5 c 128,-1,31
 1477 511 1477 511 1540 573.5 c 128,-1,32
 1603 636 1603 636 1648 713 c 128,-1,33
 1693 790 1693 790 1717.5 880 c 128,-1,34
 1742 970 1742 970 1742 1069 c 256,35,36
 1742 1168 1742 1168 1717.5 1258.5 c 128,-1,37
 1693 1349 1693 1349 1648 1426.5 c 128,-1,38
 1603 1504 1603 1504 1540 1566.5 c 128,-1,39
 1477 1629 1477 1629 1401 1673 c 128,-1,40
 1325 1717 1325 1717 1237 1741 c 128,-1,41
 1149 1765 1149 1765 1055 1765 c 0,42,43
 960 1765 960 1765 872 1741 c 128,-1,44
 784 1717 784 1717 708 1673 c 128,-1,45
 632 1629 632 1629 569.5 1566.5 c 128,-1,46
 507 1504 507 1504 462.5 1426.5 c 128,-1,47
 418 1349 418 1349 393.5 1258.5 c 128,-1,48
 369 1168 369 1168 369 1069 c 256,49,50
 369 970 369 970 394 880 c 128,-1,51
 419 790 419 790 464.5 713 c 128,-1,52
 510 636 510 636 573 573.5 c 128,-1,53
 636 511 636 511 712 466.5 c 128,-1,54
 788 422 788 422 875 398 c 128,-1,55
 962 374 962 374 1055 374 c 0,28,29
599 734 m 1,56,-1
 677 772 l 1,57,-1
 677 1413 l 1,58,-1
 599 1440 l 1,59,-1
 599 1575 l 1,60,-1
 821 1575 l 1,61,62
 843 1574 843 1574 875.5 1574.5 c 128,-1,63
 908 1575 908 1575 945.5 1576 c 128,-1,64
 983 1577 983 1577 1023.5 1578 c 128,-1,65
 1064 1579 1064 1579 1102 1579 c 0,66,67
 1296 1579 1296 1579 1398.5 1519 c 128,-1,68
 1501 1459 1501 1459 1504 1322 c 1,69,70
 1504 1274 1504 1274 1489.5 1223 c 128,-1,71
 1475 1172 1475 1172 1443.5 1130.5 c 128,-1,72
 1412 1089 1412 1089 1363.5 1062.5 c 128,-1,73
 1315 1036 1315 1036 1246 1036 c 1,74,75
 1295 1034 1295 1034 1328.5 1012 c 128,-1,76
 1362 990 1362 990 1386 957.5 c 128,-1,77
 1410 925 1410 925 1427.5 888 c 128,-1,78
 1445 851 1445 851 1463 819 c 128,-1,79
 1481 787 1481 787 1502 766 c 128,-1,80
 1523 745 1523 745 1554 745 c 1,81,-1
 1554 616 l 1,82,-1
 1256 616 l 2,83,84
 1231 616 1231 616 1215 639.5 c 128,-1,85
 1199 663 1199 663 1185.5 699.5 c 128,-1,86
 1172 736 1172 736 1158 780 c 128,-1,87
 1144 824 1144 824 1123.5 865 c 128,-1,88
 1103 906 1103 906 1073 938 c 128,-1,89
 1043 970 1043 970 998 983 c 1,90,-1
 998 756 l 1,91,-1
 1069 734 l 1,92,-1
 1069 613 l 1,93,-1
 599 613 l 1,94,-1
 599 734 l 1,56,-1
998 1139 m 1,95,96
 1015 1134 1015 1134 1029.5 1133 c 128,-1,97
 1044 1132 1044 1132 1070 1132 c 0,98,99
 1088 1132 1088 1132 1108 1138.5 c 128,-1,100
 1128 1145 1128 1145 1144 1162.5 c 128,-1,101
 1160 1180 1160 1180 1170.5 1208.5 c 128,-1,102
 1181 1237 1181 1237 1181 1280 c 0,103,104
 1181 1321 1181 1321 1173 1348 c 128,-1,105
 1165 1375 1165 1375 1146 1390.5 c 128,-1,106
 1127 1406 1127 1406 1094.5 1412.5 c 128,-1,107
 1062 1419 1062 1419 1014 1419 c 0,108,109
 1009 1419 1009 1419 1002 1416 c 128,-1,110
 995 1413 995 1413 998 1411 c 1,111,-1
 998 1139 l 1,95,96
EndSplineSet
EndChar

StartChar: macron
Encoding: 175 175 103
Width: 1082
Flags: W
LayerCount: 2
Fore
SplineSet
258 1584 m 1,0,-1
 824 1584 l 1,1,-1
 824 1343 l 1,2,-1
 258 1343 l 1,3,-1
 258 1584 l 1,0,-1
EndSplineSet
EndChar

StartChar: degree
Encoding: 176 176 104
Width: 911
Flags: W
LayerCount: 2
Fore
SplineSet
455 893 m 256,0,1
 381 893 381 893 316.5 921 c 128,-1,2
 252 949 252 949 203 996.5 c 128,-1,3
 154 1044 154 1044 126 1108 c 128,-1,4
 98 1172 98 1172 98 1244 c 256,5,6
 98 1316 98 1316 126 1379.5 c 128,-1,7
 154 1443 154 1443 203 1491 c 128,-1,8
 252 1539 252 1539 316.5 1566.5 c 128,-1,9
 381 1594 381 1594 455 1594 c 256,10,11
 529 1594 529 1594 594.5 1565.5 c 128,-1,12
 660 1537 660 1537 708.5 1489 c 128,-1,13
 757 1441 757 1441 785 1377.5 c 128,-1,14
 813 1314 813 1314 813 1244 c 0,15,16
 813 1172 813 1172 785 1108 c 128,-1,17
 757 1044 757 1044 708.5 996.5 c 128,-1,18
 660 949 660 949 594.5 921 c 128,-1,19
 529 893 529 893 455 893 c 256,0,1
454 1075 m 0,20,21
 488 1075 488 1075 517.5 1087.5 c 128,-1,22
 547 1100 547 1100 568.5 1122.5 c 128,-1,23
 590 1145 590 1145 602.5 1176 c 128,-1,24
 615 1207 615 1207 615 1244 c 0,25,26
 615 1279 615 1279 602.5 1310 c 128,-1,27
 590 1341 590 1341 568.5 1364.5 c 128,-1,28
 547 1388 547 1388 517.5 1402 c 128,-1,29
 488 1416 488 1416 454 1416 c 0,30,31
 418 1416 418 1416 388.5 1403 c 128,-1,32
 359 1390 359 1390 338 1367 c 128,-1,33
 317 1344 317 1344 305 1312.5 c 128,-1,34
 293 1281 293 1281 293 1244 c 256,35,36
 293 1207 293 1207 305 1176 c 128,-1,37
 317 1145 317 1145 338 1122.5 c 128,-1,38
 359 1100 359 1100 388.5 1087.5 c 128,-1,39
 418 1075 418 1075 454 1075 c 0,20,21
EndSplineSet
EndChar

StartChar: plusminus
Encoding: 177 177 105
Width: 1328
Flags: W
LayerCount: 2
Fore
SplineSet
537 534 m 1,0,-1
 547 722 l 1,1,-1
 392 712 l 1,2,-1
 181 712 l 1,3,-1
 181 968 l 1,4,-1
 392 968 l 1,5,-1
 547 958 l 1,6,-1
 537 1146 l 1,7,-1
 537 1358 l 1,8,-1
 799 1358 l 1,9,-1
 799 1146 l 1,10,-1
 789 958 l 1,11,-1
 944 968 l 1,12,-1
 1155 968 l 1,13,-1
 1155 712 l 1,14,-1
 944 712 l 1,15,-1
 789 722 l 1,16,-1
 799 534 l 1,17,-1
 799 342 l 1,18,-1
 537 342 l 1,19,-1
 537 534 l 1,0,-1
183 236 m 1,20,-1
 1137 236 l 1,21,-1
 1137 0 l 1,22,-1
 183 0 l 1,23,-1
 183 236 l 1,20,-1
EndSplineSet
EndChar

StartChar: acute
Encoding: 180 180 106
Width: 887
Flags: W
LayerCount: 2
Fore
SplineSet
366 1425 m 1,0,-1
 681 1851 l 1,1,-1
 936 1656 l 1,2,3
 900 1599 900 1599 844 1549.5 c 128,-1,4
 788 1500 788 1500 722.5 1459.5 c 128,-1,5
 657 1419 657 1419 587.5 1387.5 c 128,-1,6
 518 1356 518 1356 454 1336 c 1,7,-1
 366 1425 l 1,0,-1
EndSplineSet
EndChar

StartChar: paragraph
Encoding: 182 182 107
Width: 1612
Flags: W
LayerCount: 2
Fore
SplineSet
444 143 m 1,0,-1
 655 192 l 1,1,-1
 655 656 l 1,2,3
 557 656 557 656 468.5 682.5 c 128,-1,4
 380 709 380 709 312 764.5 c 128,-1,5
 244 820 244 820 204 905 c 128,-1,6
 164 990 164 990 164 1107 c 0,7,8
 164 1209 164 1209 193.5 1295 c 128,-1,9
 223 1381 223 1381 290 1442.5 c 128,-1,10
 357 1504 357 1504 464 1538.5 c 128,-1,11
 571 1573 571 1573 726 1573 c 0,12,13
 750 1573 750 1573 798 1571.5 c 128,-1,14
 846 1570 846 1570 907 1568.5 c 128,-1,15
 968 1567 968 1567 1035.5 1564.5 c 128,-1,16
 1103 1562 1103 1562 1166 1559.5 c 128,-1,17
 1229 1557 1229 1557 1281 1555.5 c 128,-1,18
 1333 1554 1333 1554 1363 1553 c 1,19,-1
 1577 1553 l 1,20,-1
 1577 1384 l 1,21,-1
 1377 1325 l 1,22,-1
 1377 192 l 1,23,-1
 1581 143 l 1,24,-1
 1581 0 l 1,25,-1
 1114 0 l 1,26,-1
 1112 1361 l 1,27,-1
 936 1361 l 1,28,-1
 936 0 l 1,29,-1
 444 0 l 1,30,-1
 444 143 l 1,0,-1
EndSplineSet
EndChar

StartChar: periodcentered
Encoding: 183 183 108
Width: 773
Flags: W
LayerCount: 2
Fore
SplineSet
367 641 m 0,0,1
 329 641 329 641 292.5 653.5 c 128,-1,2
 256 666 256 666 227.5 689.5 c 128,-1,3
 199 713 199 713 181.5 747.5 c 128,-1,4
 164 782 164 782 164 827 c 0,5,6
 164 875 164 875 186 916.5 c 128,-1,7
 208 958 208 958 242.5 988.5 c 128,-1,8
 277 1019 277 1019 319 1036.5 c 128,-1,9
 361 1054 361 1054 402 1054 c 0,10,11
 455 1054 455 1054 494 1038.5 c 128,-1,12
 533 1023 533 1023 558.5 997 c 128,-1,13
 584 971 584 971 596.5 935.5 c 128,-1,14
 609 900 609 900 609 860 c 0,15,16
 609 809 609 809 588 768.5 c 128,-1,17
 567 728 567 728 532.5 699.5 c 128,-1,18
 498 671 498 671 454.5 656 c 128,-1,19
 411 641 411 641 367 641 c 0,0,1
EndSplineSet
EndChar

StartChar: cedilla
Encoding: 184 184 109
Width: 674
Flags: W
LayerCount: 2
Fore
SplineSet
370 10 m 1,0,1
 368 -2 368 -2 367.5 -20 c 128,-1,2
 367 -38 367 -38 367.5 -57.5 c 128,-1,3
 368 -77 368 -77 369 -96.5 c 128,-1,4
 370 -116 370 -116 372 -131 c 1,5,6
 435 -137 435 -137 476.5 -159.5 c 128,-1,7
 518 -182 518 -182 542 -210.5 c 128,-1,8
 566 -239 566 -239 576 -270 c 128,-1,9
 586 -301 586 -301 586 -324 c 0,10,11
 586 -374 586 -374 567 -411.5 c 128,-1,12
 548 -449 548 -449 513.5 -474.5 c 128,-1,13
 479 -500 479 -500 431 -514 c 128,-1,14
 383 -528 383 -528 325 -531 c 0,15,16
 278 -533 278 -533 237 -530.5 c 128,-1,17
 196 -528 196 -528 162.5 -522.5 c 128,-1,18
 129 -517 129 -517 103 -511 c 128,-1,19
 77 -505 77 -505 61 -501 c 1,20,-1
 61 -352 l 1,21,22
 73 -355 73 -355 92 -357.5 c 128,-1,23
 111 -360 111 -360 130 -362 c 128,-1,24
 149 -364 149 -364 165 -365 c 128,-1,25
 181 -366 181 -366 187 -366 c 0,26,27
 219 -366 219 -366 237.5 -351 c 128,-1,28
 256 -336 256 -336 256 -310 c 0,29,30
 256 -281 256 -281 237.5 -267 c 128,-1,31
 219 -253 219 -253 194 -253 c 0,32,33
 188 -253 188 -253 178.5 -253.5 c 128,-1,34
 169 -254 169 -254 160 -254.5 c 128,-1,35
 151 -255 151 -255 144 -256 c 128,-1,36
 137 -257 137 -257 136 -257 c 1,37,38
 136 -233 136 -233 141.5 -193.5 c 128,-1,39
 147 -154 147 -154 155.5 -113.5 c 128,-1,40
 164 -73 164 -73 174 -38.5 c 128,-1,41
 184 -4 184 -4 194 10 c 1,42,-1
 370 10 l 1,0,1
EndSplineSet
EndChar

StartChar: guillemotright
Encoding: 187 187 110
Width: 2155
Flags: W
LayerCount: 2
Fore
SplineSet
1550 619 m 1,0,-1
 1095 996 l 1,1,-1
 1181 1144 l 1,2,-1
 1920 782 l 1,3,-1
 1920 477 l 1,4,-1
 1181 90 l 1,5,-1
 1095 226 l 1,6,-1
 1550 619 l 1,0,-1
678 619 m 1,7,-1
 223 996 l 1,8,-1
 309 1144 l 1,9,-1
 1048 782 l 1,10,-1
 1048 477 l 1,11,-1
 309 90 l 1,12,-1
 223 226 l 1,13,-1
 678 619 l 1,7,-1
EndSplineSet
EndChar

StartChar: questiondown
Encoding: 191 191 111
Width: 1063
Flags: W
LayerCount: 2
Fore
SplineSet
494 1044 m 0,0,1
 456 1044 456 1044 419.5 1056.5 c 128,-1,2
 383 1069 383 1069 354.5 1092.5 c 128,-1,3
 326 1116 326 1116 308.5 1150.5 c 128,-1,4
 291 1185 291 1185 291 1230 c 0,5,6
 291 1278 291 1278 313 1319.5 c 128,-1,7
 335 1361 335 1361 369.5 1391.5 c 128,-1,8
 404 1422 404 1422 446 1439.5 c 128,-1,9
 488 1457 488 1457 529 1457 c 0,10,11
 582 1457 582 1457 621 1441.5 c 128,-1,12
 660 1426 660 1426 685.5 1400 c 128,-1,13
 711 1374 711 1374 723.5 1338.5 c 128,-1,14
 736 1303 736 1303 736 1263 c 0,15,16
 736 1212 736 1212 715 1171.5 c 128,-1,17
 694 1131 694 1131 659.5 1102.5 c 128,-1,18
 625 1074 625 1074 581.5 1059 c 128,-1,19
 538 1044 538 1044 494 1044 c 0,0,1
145 343 m 1,20,21
 154 358 154 358 180.5 373.5 c 128,-1,22
 207 389 207 389 244 405.5 c 128,-1,23
 281 422 281 422 323.5 440 c 128,-1,24
 366 458 366 458 406.5 477.5 c 128,-1,25
 447 497 447 497 481.5 519 c 128,-1,26
 516 541 516 541 537 565 c 0,27,28
 548 578 548 578 548.5 604.5 c 128,-1,29
 549 631 549 631 542 663 c 128,-1,30
 535 695 535 695 522.5 730 c 128,-1,31
 510 765 510 765 496.5 797 c 128,-1,32
 483 829 483 829 470.5 854 c 128,-1,33
 458 879 458 879 450 892 c 1,34,-1
 700 892 l 1,35,36
 745 849 745 849 776.5 805.5 c 128,-1,37
 808 762 808 762 828 721.5 c 128,-1,38
 848 681 848 681 857.5 645.5 c 128,-1,39
 867 610 867 610 867 582 c 0,40,41
 867 543 867 543 844.5 512 c 128,-1,42
 822 481 822 481 784.5 456.5 c 128,-1,43
 747 432 747 432 699 412.5 c 128,-1,44
 651 393 651 393 600 377 c 128,-1,45
 549 361 549 361 500 347 c 128,-1,46
 451 333 451 333 411 319 c 128,-1,47
 371 305 371 305 344 290.5 c 128,-1,48
 317 276 317 276 312 258 c 1,49,50
 316 181 316 181 341.5 122 c 128,-1,51
 367 63 367 63 406 19.5 c 128,-1,52
 445 -24 445 -24 492.5 -53.5 c 128,-1,53
 540 -83 540 -83 588 -100.5 c 128,-1,54
 636 -118 636 -118 679 -126.5 c 128,-1,55
 722 -135 722 -135 752 -136 c 0,56,57
 845 -140 845 -140 899.5 -132 c 128,-1,58
 954 -124 954 -124 980 -103 c 1,59,-1
 995 -375 l 1,60,61
 988 -386 988 -386 962 -395.5 c 128,-1,62
 936 -405 936 -405 900 -412.5 c 128,-1,63
 864 -420 864 -420 823 -424 c 128,-1,64
 782 -428 782 -428 745 -426 c 0,65,66
 582 -419 582 -419 468.5 -372 c 128,-1,67
 355 -325 355 -325 281 -254.5 c 128,-1,68
 207 -184 207 -184 168.5 -99 c 128,-1,69
 130 -14 130 -14 117.5 69.5 c 128,-1,70
 105 153 105 153 114 225.5 c 128,-1,71
 123 298 123 298 145 343 c 1,20,21
EndSplineSet
EndChar

StartChar: multiply
Encoding: 215 215 112
Width: 1422
Flags: W
LayerCount: 2
Fore
SplineSet
187 483 m 1,0,-1
 549 830 l 1,1,-1
 187 1177 l 1,2,-1
 362 1358 l 1,3,-1
 710 993 l 1,4,-1
 1058 1358 l 1,5,-1
 1234 1177 l 1,6,-1
 872 830 l 1,7,-1
 1234 483 l 1,8,-1
 1059 302 l 1,9,-1
 711 667 l 1,10,-1
 363 302 l 1,11,-1
 187 483 l 1,0,-1
EndSplineSet
EndChar

StartChar: germandbls
Encoding: 223 223 113
Width: 1478
Flags: W
LayerCount: 2
Fore
SplineSet
46 144 m 1,0,-1
 198 194 l 1,1,-1
 198 865 l 2,2,3
 198 997 198 997 224 1099.5 c 128,-1,4
 250 1202 250 1202 296 1278 c 128,-1,5
 342 1354 342 1354 404 1407 c 128,-1,6
 466 1460 466 1460 539 1492 c 128,-1,7
 612 1524 612 1524 691.5 1538.5 c 128,-1,8
 771 1553 771 1553 851 1553 c 0,9,10
 887 1553 887 1553 930.5 1547.5 c 128,-1,11
 974 1542 974 1542 1017 1528.5 c 128,-1,12
 1060 1515 1060 1515 1100.5 1494 c 128,-1,13
 1141 1473 1141 1473 1172 1442.5 c 128,-1,14
 1203 1412 1203 1412 1221.5 1370.5 c 128,-1,15
 1240 1329 1240 1329 1240 1276 c 0,16,17
 1240 1218 1240 1218 1219.5 1176 c 128,-1,18
 1199 1134 1199 1134 1168 1102 c 128,-1,19
 1137 1070 1137 1070 1101.5 1044 c 128,-1,20
 1066 1018 1066 1018 1035 992 c 128,-1,21
 1004 966 1004 966 983.5 936 c 128,-1,22
 963 906 963 906 963 866 c 0,23,24
 963 823 963 823 984 793.5 c 128,-1,25
 1005 764 1005 764 1039 742 c 128,-1,26
 1073 720 1073 720 1116.5 703 c 128,-1,27
 1160 686 1160 686 1205.5 667 c 128,-1,28
 1251 648 1251 648 1294.5 625.5 c 128,-1,29
 1338 603 1338 603 1372 570.5 c 128,-1,30
 1406 538 1406 538 1427 493 c 128,-1,31
 1448 448 1448 448 1448 384 c 0,32,33
 1448 299 1448 299 1422.5 225 c 128,-1,34
 1397 151 1397 151 1341.5 96 c 128,-1,35
 1286 41 1286 41 1197.5 9 c 128,-1,36
 1109 -23 1109 -23 984 -23 c 0,37,38
 950 -23 950 -23 902 -20.5 c 128,-1,39
 854 -18 854 -18 808 -13 c 128,-1,40
 762 -8 762 -8 725 -0.5 c 128,-1,41
 688 7 688 7 675 18 c 1,42,-1
 675 215 l 1,43,44
 692 202 692 202 718 187.5 c 128,-1,45
 744 173 744 173 777.5 160.5 c 128,-1,46
 811 148 811 148 850.5 140 c 128,-1,47
 890 132 890 132 933 132 c 0,48,49
 968 132 968 132 1000 142 c 128,-1,50
 1032 152 1032 152 1056.5 172.5 c 128,-1,51
 1081 193 1081 193 1095.5 224 c 128,-1,52
 1110 255 1110 255 1110 297 c 0,53,54
 1110 341 1110 341 1091 368 c 128,-1,55
 1072 395 1072 395 1041.5 413 c 128,-1,56
 1011 431 1011 431 971.5 443.5 c 128,-1,57
 932 456 932 456 890.5 469.5 c 128,-1,58
 849 483 849 483 809.5 502 c 128,-1,59
 770 521 770 521 739.5 552.5 c 128,-1,60
 709 584 709 584 690 631 c 128,-1,61
 671 678 671 678 671 748 c 0,62,63
 671 802 671 802 689.5 841.5 c 128,-1,64
 708 881 708 881 735 913.5 c 128,-1,65
 762 946 762 946 794.5 975.5 c 128,-1,66
 827 1005 827 1005 854 1039.5 c 128,-1,67
 881 1074 881 1074 899.5 1117.5 c 128,-1,68
 918 1161 918 1161 918 1222 c 0,69,70
 918 1259 918 1259 909.5 1290 c 128,-1,71
 901 1321 901 1321 883.5 1344 c 128,-1,72
 866 1367 866 1367 838.5 1380 c 128,-1,73
 811 1393 811 1393 774 1393 c 0,74,75
 721 1393 721 1393 679.5 1371.5 c 128,-1,76
 638 1350 638 1350 609.5 1301.5 c 128,-1,77
 581 1253 581 1253 566.5 1173.5 c 128,-1,78
 552 1094 552 1094 552 978 c 2,79,-1
 552 0 l 1,80,-1
 46 0 l 1,81,-1
 46 144 l 1,0,-1
EndSplineSet
EndChar

StartChar: eth
Encoding: 240 240 114
Width: 1323
Flags: W
LayerCount: 2
Fore
SplineSet
64 502 m 0,0,1
 64 600 64 600 87 680.5 c 128,-1,2
 110 761 110 761 150 824 c 128,-1,3
 190 887 190 887 244.5 933 c 128,-1,4
 299 979 299 979 362.5 1009.5 c 128,-1,5
 426 1040 426 1040 495.5 1054.5 c 128,-1,6
 565 1069 565 1069 635 1069 c 0,7,8
 735 1069 735 1069 810.5 1038 c 128,-1,9
 886 1007 886 1007 932 962 c 1,10,11
 911 1078 911 1078 849.5 1178.5 c 128,-1,12
 788 1279 788 1279 695 1357 c 1,13,-1
 530 1209 l 1,14,-1
 427 1295 l 1,15,-1
 582 1437 l 1,16,17
 519 1474 519 1474 449.5 1500.5 c 128,-1,18
 380 1527 380 1527 305 1542 c 1,19,-1
 331 1691 l 1,20,21
 423 1682 423 1682 521.5 1652 c 128,-1,22
 620 1622 620 1622 717 1568 c 1,23,24
 743 1593 743 1593 772.5 1620 c 128,-1,25
 802 1647 802 1647 827 1670 c 0,26,27
 856 1696 856 1696 883 1722 c 1,28,-1
 993 1626 l 1,29,30
 968 1605 968 1605 942 1582 c 0,31,32
 919 1562 919 1562 892 1537.5 c 128,-1,33
 865 1513 865 1513 838 1490 c 1,34,35
 922 1427 922 1427 995 1344 c 128,-1,36
 1068 1261 1068 1261 1122.5 1157 c 128,-1,37
 1177 1053 1177 1053 1208 926.5 c 128,-1,38
 1239 800 1239 800 1239 652 c 0,39,40
 1239 508 1239 508 1210 384 c 128,-1,41
 1181 260 1181 260 1110.5 168.5 c 128,-1,42
 1040 77 1040 77 922 25 c 128,-1,43
 804 -27 804 -27 626 -27 c 0,44,45
 503 -27 503 -27 400 11.5 c 128,-1,46
 297 50 297 50 222.5 120 c 128,-1,47
 148 190 148 190 106 287.5 c 128,-1,48
 64 385 64 385 64 502 c 0,0,1
424 519 m 0,49,50
 424 435 424 435 445 363.5 c 128,-1,51
 466 292 466 292 500 239.5 c 128,-1,52
 534 187 534 187 576 157.5 c 128,-1,53
 618 128 618 128 660 128 c 0,54,55
 707 128 707 128 750.5 149 c 128,-1,56
 794 170 794 170 828 221 c 128,-1,57
 862 272 862 272 882 357.5 c 128,-1,58
 902 443 902 443 902 571 c 0,59,60
 902 596 902 596 901 620.5 c 128,-1,61
 900 645 900 645 893 678 c 0,62,63
 886 713 886 713 865.5 753.5 c 128,-1,64
 845 794 845 794 813.5 829 c 128,-1,65
 782 864 782 864 741 887 c 128,-1,66
 700 910 700 910 652 910 c 0,67,68
 587 910 587 910 543.5 885 c 128,-1,69
 500 860 500 860 473.5 811 c 128,-1,70
 447 762 447 762 435.5 688.5 c 128,-1,71
 424 615 424 615 424 519 c 0,49,50
EndSplineSet
EndChar

StartChar: endash
Encoding: 8211 8211 115
Width: 1510
Flags: W
LayerCount: 2
Fore
SplineSet
183 958 m 1,0,-1
 1327 958 l 1,1,-1
 1327 722 l 1,2,-1
 183 722 l 1,3,-1
 183 958 l 1,0,-1
EndSplineSet
EndChar

StartChar: emdash
Encoding: 8212 8212 116
Width: 2415
Flags: W
LayerCount: 2
Fore
SplineSet
183 958 m 1,0,-1
 2232 958 l 1,1,-1
 2232 724 l 1,2,-1
 183 724 l 1,3,-1
 183 958 l 1,0,-1
EndSplineSet
EndChar

StartChar: quoteleft
Encoding: 8216 8216 117
Width: 922
Flags: W
LayerCount: 2
Fore
SplineSet
460 760 m 1,0,1
 383 787 383 787 331.5 839 c 128,-1,2
 280 891 280 891 249 952.5 c 128,-1,3
 218 1014 218 1014 205.5 1078 c 128,-1,4
 193 1142 193 1142 194 1192 c 0,5,6
 196 1269 196 1269 216 1337.5 c 128,-1,7
 236 1406 236 1406 268.5 1465 c 128,-1,8
 301 1524 301 1524 343.5 1572.5 c 128,-1,9
 386 1621 386 1621 433.5 1660 c 128,-1,10
 481 1699 481 1699 530.5 1726.5 c 128,-1,11
 580 1754 580 1754 626 1771 c 1,12,-1
 729 1678 l 1,13,-1
 729 1635 l 1,14,15
 699 1623 699 1623 664.5 1591 c 128,-1,16
 630 1559 630 1559 601 1515.5 c 128,-1,17
 572 1472 572 1472 553 1422 c 128,-1,18
 534 1372 534 1372 534 1324 c 0,19,20
 534 1290 534 1290 547 1256 c 128,-1,21
 560 1222 560 1222 582 1194 c 128,-1,22
 604 1166 604 1166 632.5 1147.5 c 128,-1,23
 661 1129 661 1129 692 1126 c 1,24,-1
 692 1048 l 1,25,-1
 460 760 l 1,0,1
EndSplineSet
EndChar

StartChar: quoteright
Encoding: 8217 8217 118
Width: 922
Flags: W
LayerCount: 2
Fore
SplineSet
193 855 m 1,0,-1
 193 898 l 1,1,2
 224 910 224 910 258.5 942 c 128,-1,3
 293 974 293 974 322 1017.5 c 128,-1,4
 351 1061 351 1061 370 1111 c 128,-1,5
 389 1161 389 1161 389 1209 c 0,6,7
 389 1243 389 1243 375.5 1277 c 128,-1,8
 362 1311 362 1311 339.5 1339 c 128,-1,9
 317 1367 317 1367 288.5 1385.5 c 128,-1,10
 260 1404 260 1404 229 1407 c 1,11,-1
 229 1484 l 1,12,-1
 461 1773 l 1,13,14
 538 1746 538 1746 589.5 1694 c 128,-1,15
 641 1642 641 1642 672.5 1580.5 c 128,-1,16
 704 1519 704 1519 716.5 1455.5 c 128,-1,17
 729 1392 729 1392 728 1342 c 0,18,19
 725 1226 725 1226 683 1130 c 128,-1,20
 641 1034 641 1034 578 961 c 128,-1,21
 515 888 515 888 440 838 c 128,-1,22
 365 788 365 788 297 763 c 1,23,-1
 193 855 l 1,0,-1
EndSplineSet
EndChar

StartChar: quotesinglbase
Encoding: 8218 8218 119
Width: 922
Flags: W
LayerCount: 2
Fore
SplineSet
229 152 m 1,0,-1
 461 440 l 1,1,2
 538 413 538 413 589.5 361.5 c 128,-1,3
 641 310 641 310 672.5 248.5 c 128,-1,4
 704 187 704 187 716.5 123 c 128,-1,5
 729 59 729 59 728 9 c 0,6,7
 726 -68 726 -68 706 -134 c 128,-1,8
 686 -200 686 -200 653.5 -255.5 c 128,-1,9
 621 -311 621 -311 578 -356 c 128,-1,10
 535 -401 535 -401 488 -436.5 c 128,-1,11
 441 -472 441 -472 391.5 -497.5 c 128,-1,12
 342 -523 342 -523 297 -540 c 1,13,-1
 193 -447 l 1,14,-1
 193 -404 l 1,15,16
 224 -392 224 -392 258 -365 c 128,-1,17
 292 -338 292 -338 321 -300 c 128,-1,18
 350 -262 350 -262 369 -216.5 c 128,-1,19
 388 -171 388 -171 388 -123 c 0,20,21
 388 -89 388 -89 374.5 -54.5 c 128,-1,22
 361 -20 361 -20 339 7.5 c 128,-1,23
 317 35 317 35 288.5 53.5 c 128,-1,24
 260 72 260 72 229 75 c 1,25,-1
 229 152 l 1,0,-1
EndSplineSet
EndChar

StartChar: quotedblleft
Encoding: 8220 8220 120
Width: 1537
Flags: W
LayerCount: 2
Fore
SplineSet
1074 759 m 1,0,1
 997 786 997 786 945.5 838 c 128,-1,2
 894 890 894 890 862.5 952 c 128,-1,3
 831 1014 831 1014 818.5 1077 c 128,-1,4
 806 1140 806 1140 808 1190 c 0,5,6
 810 1267 810 1267 830 1335.5 c 128,-1,7
 850 1404 850 1404 882.5 1463 c 128,-1,8
 915 1522 915 1522 958 1571 c 128,-1,9
 1001 1620 1001 1620 1048 1658.5 c 128,-1,10
 1095 1697 1095 1697 1144 1725 c 128,-1,11
 1193 1753 1193 1753 1238 1770 c 1,12,-1
 1344 1676 l 1,13,-1
 1344 1634 l 1,14,15
 1313 1622 1313 1622 1278.5 1590 c 128,-1,16
 1244 1558 1244 1558 1214.5 1514.5 c 128,-1,17
 1185 1471 1185 1471 1166 1421 c 128,-1,18
 1147 1371 1147 1371 1147 1323 c 0,19,20
 1147 1288 1147 1288 1160.5 1254 c 128,-1,21
 1174 1220 1174 1220 1196.5 1192.5 c 128,-1,22
 1219 1165 1219 1165 1247.5 1146.5 c 128,-1,23
 1276 1128 1276 1128 1307 1125 c 1,24,-1
 1307 1048 l 1,25,-1
 1074 759 l 1,0,1
460 759 m 1,26,27
 383 786 383 786 331 838 c 128,-1,28
 279 890 279 890 248 952 c 128,-1,29
 217 1014 217 1014 204.5 1077 c 128,-1,30
 192 1140 192 1140 194 1190 c 1,31,32
 195 1267 195 1267 215 1335.5 c 128,-1,33
 235 1404 235 1404 268 1463 c 128,-1,34
 301 1522 301 1522 344 1571 c 128,-1,35
 387 1620 387 1620 434.5 1658.5 c 128,-1,36
 482 1697 482 1697 531 1725 c 128,-1,37
 580 1753 580 1753 625 1770 c 1,38,-1
 730 1676 l 1,39,-1
 730 1634 l 1,40,41
 698 1622 698 1622 663.5 1590 c 128,-1,42
 629 1558 629 1558 600.5 1514.5 c 128,-1,43
 572 1471 572 1471 553 1421 c 128,-1,44
 534 1371 534 1371 534 1323 c 0,45,46
 534 1288 534 1288 547 1254 c 128,-1,47
 560 1220 560 1220 582 1192.5 c 128,-1,48
 604 1165 604 1165 632.5 1146.5 c 128,-1,49
 661 1128 661 1128 692 1125 c 1,50,-1
 692 1048 l 1,51,-1
 460 759 l 1,26,27
EndSplineSet
EndChar

StartChar: quotedblright
Encoding: 8221 8221 121
Width: 1538
Flags: W
LayerCount: 2
Fore
SplineSet
806 894 m 1,0,1
 838 906 838 906 872.5 938 c 128,-1,2
 907 970 907 970 936 1013.5 c 128,-1,3
 965 1057 965 1057 984 1107 c 128,-1,4
 1003 1157 1003 1157 1003 1205 c 0,5,6
 1003 1239 1003 1239 990 1273 c 128,-1,7
 977 1307 977 1307 955 1335 c 128,-1,8
 933 1363 933 1363 904.5 1381.5 c 128,-1,9
 876 1400 876 1400 845 1403 c 1,10,-1
 845 1480 l 1,11,-1
 1076 1769 l 1,12,13
 1154 1742 1154 1742 1206 1690 c 128,-1,14
 1258 1638 1258 1638 1289 1576.5 c 128,-1,15
 1320 1515 1320 1515 1332.5 1451.5 c 128,-1,16
 1345 1388 1345 1388 1344 1338 c 0,17,18
 1342 1261 1342 1261 1322 1192.5 c 128,-1,19
 1302 1124 1302 1124 1269.5 1065 c 128,-1,20
 1237 1006 1237 1006 1194 957 c 128,-1,21
 1151 908 1151 908 1103.5 869.5 c 128,-1,22
 1056 831 1056 831 1007 803 c 128,-1,23
 958 775 958 775 913 759 c 1,24,-1
 806 851 l 1,25,-1
 806 894 l 1,0,1
193 851 m 1,26,-1
 193 894 l 1,27,28
 224 906 224 906 258.5 938 c 128,-1,29
 293 970 293 970 322.5 1013.5 c 128,-1,30
 352 1057 352 1057 371 1107 c 128,-1,31
 390 1157 390 1157 390 1205 c 0,32,33
 390 1239 390 1239 376.5 1273 c 128,-1,34
 363 1307 363 1307 340.5 1335 c 128,-1,35
 318 1363 318 1363 289.5 1381.5 c 128,-1,36
 261 1400 261 1400 230 1403 c 1,37,-1
 230 1480 l 1,38,-1
 462 1769 l 1,39,40
 539 1742 539 1742 591 1690 c 128,-1,41
 643 1638 643 1638 674.5 1576.5 c 128,-1,42
 706 1515 706 1515 718.5 1451.5 c 128,-1,43
 731 1388 731 1388 729 1338 c 0,44,45
 727 1261 727 1261 707 1192.5 c 128,-1,46
 687 1124 687 1124 654.5 1065 c 128,-1,47
 622 1006 622 1006 579 957 c 128,-1,48
 536 908 536 908 489 869.5 c 128,-1,49
 442 831 442 831 393 803 c 128,-1,50
 344 775 344 775 299 759 c 1,51,-1
 193 851 l 1,26,-1
EndSplineSet
EndChar

StartChar: quotedblbase
Encoding: 8222 8222 122
Width: 1488
Flags: W
LayerCount: 2
Fore
SplineSet
796 155 m 1,0,-1
 1028 444 l 1,1,2
 1105 417 1105 417 1157 365 c 128,-1,3
 1209 313 1209 313 1240 251 c 128,-1,4
 1271 189 1271 189 1283.5 125.5 c 128,-1,5
 1296 62 1296 62 1294 12 c 1,6,7
 1293 -65 1293 -65 1273 -133.5 c 128,-1,8
 1253 -202 1253 -202 1220 -260.5 c 128,-1,9
 1187 -319 1187 -319 1144 -368 c 128,-1,10
 1101 -417 1101 -417 1053.5 -455.5 c 128,-1,11
 1006 -494 1006 -494 957 -522 c 128,-1,12
 908 -550 908 -550 863 -567 c 1,13,-1
 757 -473 l 1,14,-1
 757 -431 l 1,15,16
 789 -419 789 -419 823.5 -387.5 c 128,-1,17
 858 -356 858 -356 887 -312.5 c 128,-1,18
 916 -269 916 -269 935 -219 c 128,-1,19
 954 -169 954 -169 954 -121 c 0,20,21
 954 -87 954 -87 940.5 -52.5 c 128,-1,22
 927 -18 927 -18 905 10 c 128,-1,23
 883 38 883 38 854.5 56.5 c 128,-1,24
 826 75 826 75 796 78 c 1,25,-1
 796 155 l 1,0,-1
231 155 m 1,26,-1
 464 444 l 1,27,28
 540 417 540 417 592 365 c 128,-1,29
 644 313 644 313 675.5 251 c 128,-1,30
 707 189 707 189 719.5 125.5 c 128,-1,31
 732 62 732 62 730 12 c 0,32,33
 728 -65 728 -65 708 -133.5 c 128,-1,34
 688 -202 688 -202 655.5 -260.5 c 128,-1,35
 623 -319 623 -319 580 -368 c 128,-1,36
 537 -417 537 -417 490 -455.5 c 128,-1,37
 443 -494 443 -494 394 -522 c 128,-1,38
 345 -550 345 -550 300 -567 c 1,39,-1
 193 -473 l 1,40,-1
 193 -431 l 1,41,42
 224 -419 224 -419 259 -387.5 c 128,-1,43
 294 -356 294 -356 323 -312.5 c 128,-1,44
 352 -269 352 -269 371 -219 c 128,-1,45
 390 -169 390 -169 390 -121 c 0,46,47
 390 -87 390 -87 376.5 -52.5 c 128,-1,48
 363 -18 363 -18 341 10 c 128,-1,49
 319 38 319 38 290.5 56.5 c 128,-1,50
 262 75 262 75 231 78 c 1,51,-1
 231 155 l 1,26,-1
EndSplineSet
EndChar

StartChar: dagger
Encoding: 8224 8224 123
Width: 1121
Flags: W
LayerCount: 2
Fore
SplineSet
403 855 m 1,0,-1
 436 1095 l 1,1,-1
 128 1056 l 1,2,-1
 129 1326 l 1,3,-1
 438 1277 l 1,4,-1
 398 1557 l 1,5,-1
 398 1648 l 1,6,-1
 723 1648 l 1,7,-1
 723 1557 l 1,8,-1
 683 1277 l 1,9,-1
 992 1326 l 1,10,-1
 993 1056 l 1,11,-1
 685 1095 l 1,12,-1
 718 855 l 1,13,-1
 639 263 l 1,14,-1
 462 263 l 1,15,-1
 403 855 l 1,0,-1
EndSplineSet
EndChar

StartChar: bullet
Encoding: 8226 8226 124
Width: 919
Flags: W
LayerCount: 2
Fore
SplineSet
443 442 m 0,0,1
 374 442 374 442 312.5 469 c 128,-1,2
 251 496 251 496 206 542 c 128,-1,3
 161 588 161 588 137 649 c 128,-1,4
 113 710 113 710 119 777 c 1,5,6
 124 847 124 847 155 907 c 128,-1,7
 186 967 186 967 234.5 1011.5 c 128,-1,8
 283 1056 283 1056 346 1081.5 c 128,-1,9
 409 1107 409 1107 478 1107 c 256,10,11
 547 1107 547 1107 608 1081.5 c 128,-1,12
 669 1056 669 1056 713.5 1011.5 c 128,-1,13
 758 967 758 967 782 907 c 128,-1,14
 806 847 806 847 801 777 c 256,15,16
 796 707 796 707 765.5 646 c 128,-1,17
 735 585 735 585 686.5 539.5 c 128,-1,18
 638 494 638 494 575.5 468 c 128,-1,19
 513 442 513 442 443 442 c 0,0,1
EndSplineSet
EndChar

StartChar: guilsinglright
Encoding: 8250 8250 125
Width: 1283
Flags: W
LayerCount: 2
Fore
SplineSet
678 619 m 1,0,-1
 223 996 l 1,1,-1
 309 1144 l 1,2,-1
 1048 782 l 1,3,-1
 1048 477 l 1,4,-1
 309 90 l 1,5,-1
 223 226 l 1,6,-1
 678 619 l 1,0,-1
EndSplineSet
EndChar

StartChar: quotedbl
Encoding: 34 34 126
Width: 1261
Flags: W
LayerCount: 2
Fore
SplineSet
722 1782 m 1,0,-1
 1087 1782 l 1,1,-1
 1002 956 l 1,2,-1
 807 956 l 1,3,-1
 722 1782 l 1,0,-1
174 1782 m 1,4,-1
 539 1782 l 1,5,-1
 454 956 l 1,6,-1
 259 956 l 1,7,-1
 174 1782 l 1,4,-1
EndSplineSet
EndChar

StartChar: exclam
Encoding: 33 33 127
Width: 813
Flags: W
LayerCount: 2
Fore
SplineSet
167 1780 m 1,0,-1
 646 1780 l 1,1,-1
 493 568 l 1,2,-1
 311 568 l 1,3,-1
 167 1780 l 1,0,-1
179 154 m 0,4,5
 179 202 179 202 201 243.5 c 128,-1,6
 223 285 223 285 257.5 315.5 c 128,-1,7
 292 346 292 346 334 363.5 c 128,-1,8
 376 381 376 381 417 381 c 0,9,10
 470 381 470 381 509 365.5 c 128,-1,11
 548 350 548 350 573.5 324 c 128,-1,12
 599 298 599 298 611.5 262.5 c 128,-1,13
 624 227 624 227 624 187 c 0,14,15
 624 136 624 136 603 95.5 c 128,-1,16
 582 55 582 55 547.5 26.5 c 128,-1,17
 513 -2 513 -2 469.5 -17 c 128,-1,18
 426 -32 426 -32 382 -32 c 0,19,20
 344 -32 344 -32 307.5 -19.5 c 128,-1,21
 271 -7 271 -7 242.5 16.5 c 128,-1,22
 214 40 214 40 196.5 74.5 c 128,-1,23
 179 109 179 109 179 154 c 0,4,5
EndSplineSet
EndChar

StartChar: logicalnot
Encoding: 172 172 128
Width: 1392
Flags: W
LayerCount: 2
Fore
SplineSet
183 958 m 1,0,-1
 1209 958 l 1,1,-1
 1209 367 l 1,2,-1
 895 367 l 1,3,-1
 895 745 l 1,4,-1
 183 745 l 1,5,-1
 183 958 l 1,0,-1
EndSplineSet
EndChar

StartChar: yen
Encoding: 165 165 129
Width: 1526
Flags: W
LayerCount: 2
Fore
SplineSet
325 140 m 1,0,-1
 565 185 l 1,1,-1
 565 350 l 1,2,-1
 205 350 l 1,3,-1
 205 517 l 1,4,-1
 565 517 l 1,5,-1
 565 654 l 1,6,-1
 531 711 l 1,7,-1
 205 711 l 1,8,-1
 205 879 l 1,9,-1
 432 879 l 1,10,-1
 144 1369 l 1,11,-1
 28 1389 l 1,12,-1
 28 1553 l 1,13,-1
 658 1553 l 1,14,-1
 658 1392 l 1,15,-1
 552 1372 l 1,16,-1
 719 1013 l 1,17,-1
 776 879 l 1,18,-1
 790 879 l 1,19,-1
 855 1022 l 1,20,21
 893 1103 893 1103 930 1190.5 c 128,-1,22
 967 1278 967 1278 1005 1365 c 1,23,-1
 850 1389 l 1,24,-1
 849 1553 l 1,25,-1
 1412 1553 l 1,26,-1
 1412 1389 l 1,27,-1
 1272 1349 l 1,28,-1
 1018 879 l 1,29,-1
 1296 879 l 1,30,-1
 1296 711 l 1,31,-1
 927 711 l 1,32,-1
 921 700 l 1,33,-1
 921 517 l 1,34,-1
 1296 517 l 1,35,-1
 1296 350 l 1,36,-1
 921 350 l 1,37,-1
 921 187 l 1,38,-1
 1179 140 l 1,39,-1
 1179 0 l 1,40,-1
 325 0 l 1,41,-1
 325 140 l 1,0,-1
EndSplineSet
EndChar

StartChar: divide
Encoding: 247 247 130
Width: 1400
Flags: W
LayerCount: 2
Fore
SplineSet
713 1145 m 0,0,1
 675 1145 675 1145 639.5 1157.5 c 128,-1,2
 604 1170 604 1170 576 1193.5 c 128,-1,3
 548 1217 548 1217 531.5 1251.5 c 128,-1,4
 515 1286 515 1286 515 1331 c 0,5,6
 515 1379 515 1379 536 1420 c 128,-1,7
 557 1461 557 1461 590.5 1490.5 c 128,-1,8
 624 1520 624 1520 665.5 1536.5 c 128,-1,9
 707 1553 707 1553 748 1553 c 0,10,11
 801 1553 801 1553 839 1538.5 c 128,-1,12
 877 1524 877 1524 901.5 1498.5 c 128,-1,13
 926 1473 926 1473 937.5 1438.5 c 128,-1,14
 949 1404 949 1404 949 1364 c 0,15,16
 949 1313 949 1313 928.5 1272.5 c 128,-1,17
 908 1232 908 1232 875 1203.5 c 128,-1,18
 842 1175 842 1175 799.5 1160 c 128,-1,19
 757 1145 757 1145 713 1145 c 0,0,1
183 958 m 1,20,-1
 1217 958 l 1,21,-1
 1217 722 l 1,22,-1
 183 722 l 1,23,-1
 183 958 l 1,20,-1
514 313 m 0,24,25
 514 361 514 361 535 402 c 128,-1,26
 556 443 556 443 589.5 472.5 c 128,-1,27
 623 502 623 502 664.5 518.5 c 128,-1,28
 706 535 706 535 747 535 c 0,29,30
 800 535 800 535 838 520.5 c 128,-1,31
 876 506 876 506 900.5 480.5 c 128,-1,32
 925 455 925 455 936.5 420.5 c 128,-1,33
 948 386 948 386 948 346 c 0,34,35
 948 295 948 295 927.5 254.5 c 128,-1,36
 907 214 907 214 874 185.5 c 128,-1,37
 841 157 841 157 798.5 142 c 128,-1,38
 756 127 756 127 712 127 c 0,39,40
 674 127 674 127 638.5 139.5 c 128,-1,41
 603 152 603 152 575 175.5 c 128,-1,42
 547 199 547 199 530.5 233.5 c 128,-1,43
 514 268 514 268 514 313 c 0,24,25
EndSplineSet
EndChar

StartChar: daggerdbl
Encoding: 8225 8225 131
Width: 1121
Flags: W
LayerCount: 2
Fore
SplineSet
129 695 m 1,0,-1
 438 646 l 1,1,-1
 403 855 l 1,2,-1
 436 1095 l 1,3,-1
 128 1056 l 1,4,-1
 129 1326 l 1,5,-1
 438 1277 l 1,6,-1
 398 1557 l 1,7,-1
 398 1648 l 1,8,-1
 723 1648 l 1,9,-1
 723 1557 l 1,10,-1
 683 1277 l 1,11,-1
 992 1326 l 1,12,-1
 993 1056 l 1,13,-1
 685 1095 l 1,14,-1
 718 855 l 1,15,-1
 683 646 l 1,16,-1
 992 695 l 1,17,-1
 993 425 l 1,18,-1
 685 464 l 1,19,-1
 718 224 l 1,20,-1
 640 -368 l 1,21,-1
 463 -368 l 1,22,-1
 403 224 l 1,23,-1
 436 464 l 1,24,-1
 128 425 l 1,25,-1
 129 695 l 1,0,-1
EndSplineSet
EndChar

StartChar: cent
Encoding: 162 162 142
Width: 1214
Flags: W
LayerCount: 2
Fore
SplineSet
513 -15 m 1,0,1
 411 4 411 4 333 52 c 128,-1,2
 255 100 255 100 202 170.5 c 128,-1,3
 149 241 149 241 121.5 331 c 128,-1,4
 94 421 94 421 94 525 c 0,5,6
 93 659 93 659 134.5 767 c 128,-1,7
 176 875 176 875 248.5 953.5 c 128,-1,8
 321 1032 321 1032 420.5 1080.5 c 128,-1,9
 520 1129 520 1129 636 1144 c 1,10,-1
 649 1362 l 1,11,-1
 842 1362 l 1,12,-1
 830 1149 l 1,13,14
 870 1146 870 1146 908.5 1141.5 c 128,-1,15
 947 1137 947 1137 980.5 1130.5 c 128,-1,16
 1014 1124 1014 1124 1040.5 1116 c 128,-1,17
 1067 1108 1067 1108 1084 1099 c 1,18,-1
 1084 782 l 1,19,-1
 901 782 l 1,20,-1
 822 970 l 1,21,22
 794 987 794 987 758 991 c 128,-1,23
 722 995 722 995 690 995 c 0,24,25
 639 995 639 995 598 970 c 128,-1,26
 557 945 557 945 527.5 897.5 c 128,-1,27
 498 850 498 850 481 781 c 128,-1,28
 464 712 464 712 461 624 c 0,29,30
 457 503 457 503 482.5 416.5 c 128,-1,31
 508 330 508 330 553.5 275 c 128,-1,32
 599 220 599 220 659.5 194.5 c 128,-1,33
 720 169 720 169 787 169 c 0,34,35
 832 169 832 169 875 175 c 128,-1,36
 918 181 918 181 954.5 190.5 c 128,-1,37
 991 200 991 200 1020.5 213 c 128,-1,38
 1050 226 1050 226 1068 240 c 1,39,-1
 1121 115 l 1,40,41
 1049 53 1049 53 943.5 17 c 128,-1,42
 838 -19 838 -19 706 -26 c 1,43,-1
 696 -217 l 1,44,-1
 501 -217 l 1,45,-1
 513 -15 l 1,0,1
EndSplineSet
EndChar

StartChar: circumflex
Encoding: 710 710 144
Width: 1063
Flags: W
LayerCount: 2
Fore
SplineSet
131 1409 m 1,0,-1
 402 1775 l 1,1,-1
 655 1775 l 1,2,-1
 932 1410 l 1,3,-1
 787 1336 l 1,4,-1
 528 1542 l 1,5,-1
 262 1335 l 1,6,-1
 131 1409 l 1,0,-1
EndSplineSet
EndChar

StartChar: caron
Encoding: 711 711 145
Width: 1061
Flags: W
LayerCount: 2
Fore
SplineSet
135 1701 m 1,0,-1
 266 1775 l 1,1,-1
 532 1568 l 1,2,-1
 791 1774 l 1,3,-1
 936 1700 l 1,4,-1
 659 1335 l 1,5,-1
 406 1335 l 1,6,-1
 135 1701 l 1,0,-1
EndSplineSet
EndChar

StartChar: breve
Encoding: 728 728 146
Width: 1436
Flags: W
LayerCount: 2
Fore
SplineSet
718 1344 m 0,0,1
 624 1344 624 1344 554 1375.5 c 128,-1,2
 484 1407 484 1407 437.5 1457.5 c 128,-1,3
 391 1508 391 1508 367.5 1570 c 128,-1,4
 344 1632 344 1632 344 1693 c 1,5,-1
 555 1693 l 1,6,7
 558 1681 558 1681 565.5 1656.5 c 128,-1,8
 573 1632 573 1632 591 1607 c 128,-1,9
 609 1582 609 1582 640 1563.5 c 128,-1,10
 671 1545 671 1545 719 1545 c 0,11,12
 765 1545 765 1545 795.5 1563.5 c 128,-1,13
 826 1582 826 1582 845 1607 c 128,-1,14
 864 1632 864 1632 873 1657 c 128,-1,15
 882 1682 882 1682 885 1694 c 1,16,-1
 1092 1694 l 1,17,18
 1092 1633 1092 1633 1067 1570.5 c 128,-1,19
 1042 1508 1042 1508 994.5 1458 c 128,-1,20
 947 1408 947 1408 877.5 1376 c 128,-1,21
 808 1344 808 1344 718 1344 c 0,0,1
EndSplineSet
EndChar

StartChar: dotaccent
Encoding: 729 729 147
Width: 709
Flags: W
LayerCount: 2
Fore
SplineSet
337 1328 m 0,0,1
 301 1328 301 1328 269 1337 c 128,-1,2
 237 1346 237 1346 212.5 1363.5 c 128,-1,3
 188 1381 188 1381 174 1407 c 128,-1,4
 160 1433 160 1433 160 1466 c 0,5,6
 160 1502 160 1502 177.5 1532 c 128,-1,7
 195 1562 195 1562 224 1584 c 128,-1,8
 253 1606 253 1606 289.5 1618 c 128,-1,9
 326 1630 326 1630 365 1630 c 0,10,11
 414 1630 414 1630 448.5 1619 c 128,-1,12
 483 1608 483 1608 505.5 1589.5 c 128,-1,13
 528 1571 528 1571 538.5 1545.5 c 128,-1,14
 549 1520 549 1520 549 1490 c 0,15,16
 549 1453 549 1453 531.5 1423 c 128,-1,17
 514 1393 514 1393 484.5 1372 c 128,-1,18
 455 1351 455 1351 416.5 1339.5 c 128,-1,19
 378 1328 378 1328 337 1328 c 0,0,1
EndSplineSet
EndChar

StartChar: ring
Encoding: 730 730 148
Width: 635
Flags: W
LayerCount: 2
Fore
SplineSet
318 1285 m 0,0,1
 258 1285 258 1285 204.5 1306.5 c 128,-1,2
 151 1328 151 1328 111 1365.5 c 128,-1,3
 71 1403 71 1403 48 1453 c 128,-1,4
 25 1503 25 1503 25 1560 c 256,5,6
 25 1617 25 1617 48 1667 c 128,-1,7
 71 1717 71 1717 111 1754.5 c 128,-1,8
 151 1792 151 1792 204.5 1813.5 c 128,-1,9
 258 1835 258 1835 318 1835 c 0,10,11
 379 1835 379 1835 433 1812.5 c 128,-1,12
 487 1790 487 1790 527 1752 c 128,-1,13
 567 1714 567 1714 590 1664.5 c 128,-1,14
 613 1615 613 1615 613 1560 c 0,15,16
 613 1503 613 1503 590 1453 c 128,-1,17
 567 1403 567 1403 527 1365.5 c 128,-1,18
 487 1328 487 1328 433 1306.5 c 128,-1,19
 379 1285 379 1285 318 1285 c 0,0,1
318 1427 m 0,20,21
 346 1427 346 1427 370 1437 c 128,-1,22
 394 1447 394 1447 412 1464.5 c 128,-1,23
 430 1482 430 1482 440 1506.5 c 128,-1,24
 450 1531 450 1531 450 1560 c 0,25,26
 450 1587 450 1587 440 1611.5 c 128,-1,27
 430 1636 430 1636 412 1654.5 c 128,-1,28
 394 1673 394 1673 370 1683.5 c 128,-1,29
 346 1694 346 1694 318 1694 c 0,30,31
 288 1694 288 1694 263.5 1684 c 128,-1,32
 239 1674 239 1674 221.5 1656 c 128,-1,33
 204 1638 204 1638 194.5 1613.5 c 128,-1,34
 185 1589 185 1589 185 1560 c 256,35,36
 185 1531 185 1531 194.5 1506.5 c 128,-1,37
 204 1482 204 1482 221.5 1464.5 c 128,-1,38
 239 1447 239 1447 263.5 1437 c 128,-1,39
 288 1427 288 1427 318 1427 c 0,20,21
EndSplineSet
EndChar

StartChar: tilde
Encoding: 732 732 149
Width: 1081
Flags: W
LayerCount: 2
Fore
SplineSet
112 1467 m 1,0,1
 128 1511 128 1511 165.5 1549 c 128,-1,2
 203 1587 203 1587 248 1615 c 128,-1,3
 293 1643 293 1643 339 1659 c 128,-1,4
 385 1675 385 1675 420 1675 c 0,5,6
 475 1675 475 1675 515.5 1659.5 c 128,-1,7
 556 1644 556 1644 589.5 1625 c 128,-1,8
 623 1606 623 1606 652 1590.5 c 128,-1,9
 681 1575 681 1575 713 1575 c 0,10,11
 766 1575 766 1575 806 1597.5 c 128,-1,12
 846 1620 846 1620 879 1646 c 1,13,-1
 968 1549 l 1,14,15
 951 1505 951 1505 915 1466.5 c 128,-1,16
 879 1428 879 1428 835.5 1399.5 c 128,-1,17
 792 1371 792 1371 747 1354.5 c 128,-1,18
 702 1338 702 1338 667 1338 c 0,19,20
 613 1338 613 1338 571 1354 c 128,-1,21
 529 1370 529 1370 494.5 1389.5 c 128,-1,22
 460 1409 460 1409 429.5 1425 c 128,-1,23
 399 1441 399 1441 367 1441 c 0,24,25
 345 1441 345 1441 322.5 1434.5 c 128,-1,26
 300 1428 300 1428 278.5 1417.5 c 128,-1,27
 257 1407 257 1407 237 1394.5 c 128,-1,28
 217 1382 217 1382 199 1369 c 1,29,-1
 112 1467 l 1,0,1
EndSplineSet
EndChar

StartChar: hungarumlaut
Encoding: 733 733 150
Width: 975
Flags: W
LayerCount: 2
Fore
SplineSet
556 1421 m 1,0,-1
 841 1837 l 1,1,-1
 1072 1672 l 1,2,3
 1043 1634 1043 1634 997.5 1581 c 128,-1,4
 952 1528 952 1528 899.5 1475.5 c 128,-1,5
 847 1423 847 1423 792.5 1380.5 c 128,-1,6
 738 1338 738 1338 692 1322 c 1,7,-1
 556 1421 l 1,0,-1
-18 1421 m 1,8,-1
 272 1837 l 1,9,-1
 494 1672 l 1,10,11
 468 1634 468 1634 424 1582.5 c 128,-1,12
 380 1531 380 1531 329 1480 c 128,-1,13
 278 1429 278 1429 224.5 1386 c 128,-1,14
 171 1343 171 1343 125 1322 c 1,15,-1
 -18 1421 l 1,8,-1
EndSplineSet
EndChar

StartChar: ogonek
Encoding: 731 731 151
Width: 769
Flags: W
LayerCount: 2
Fore
SplineSet
272 10 m 1,0,-1
 398 0 l 1,1,2
 342 -19 342 -19 292.5 -44.5 c 128,-1,3
 243 -70 243 -70 205.5 -97 c 128,-1,4
 168 -124 168 -124 143.5 -150 c 128,-1,5
 119 -176 119 -176 112 -195 c 0,6,7
 100 -229 100 -229 102.5 -249.5 c 128,-1,8
 105 -270 105 -270 115.5 -280.5 c 128,-1,9
 126 -291 126 -291 142.5 -294.5 c 128,-1,10
 159 -298 159 -298 176 -298 c 0,11,12
 205 -299 205 -299 236 -294.5 c 128,-1,13
 267 -290 267 -290 297.5 -282 c 128,-1,14
 328 -274 328 -274 357.5 -264 c 128,-1,15
 387 -254 387 -254 414 -244 c 1,16,-1
 449 -378 l 1,17,18
 350 -449 350 -449 238 -481.5 c 128,-1,19
 126 -514 126 -514 -5 -514 c 0,20,21
 -63 -514 -63 -514 -102.5 -499 c 128,-1,22
 -142 -484 -142 -484 -167 -461 c 128,-1,23
 -192 -438 -192 -438 -204 -409 c 128,-1,24
 -216 -380 -216 -380 -218 -351 c 0,25,26
 -220 -315 -220 -315 -196 -268 c 128,-1,27
 -172 -221 -172 -221 -124.5 -172 c 128,-1,28
 -77 -123 -77 -123 -7 -77.5 c 128,-1,29
 63 -32 63 -32 154 0 c 1,30,-1
 272 10 l 1,0,-1
EndSplineSet
EndChar

StartChar: onehalf
Encoding: 189 189 152
Width: 2732
Flags: W
LayerCount: 2
Fore
SplineSet
1638 1881 m 1,0,-1
 1852 1818 l 1,1,-1
 1052 -343 l 1,2,-1
 842 -268 l 1,3,-1
 1638 1881 l 1,0,-1
295 855 m 1,4,-1
 554 895 l 1,5,-1
 554 1414 l 1,6,7
 534 1412 534 1412 505 1408 c 128,-1,8
 476 1404 476 1404 443.5 1399 c 128,-1,9
 411 1394 411 1394 379.5 1388.5 c 128,-1,10
 348 1383 348 1383 323 1379 c 1,11,-1
 287 1534 l 1,12,13
 322 1540 322 1540 370 1553.5 c 128,-1,14
 418 1567 418 1567 471.5 1584.5 c 128,-1,15
 525 1602 525 1602 579 1622 c 128,-1,16
 633 1642 633 1642 678.5 1661 c 128,-1,17
 724 1680 724 1680 757.5 1696 c 128,-1,18
 791 1712 791 1712 803 1722 c 1,19,-1
 884 1707 l 1,20,-1
 884 894 l 1,21,-1
 1120 855 l 1,22,-1
 1120 718 l 1,23,-1
 295 718 l 1,24,-1
 295 855 l 1,4,-1
1564 154 m 1,25,26
 1591 169 1591 169 1632 192 c 128,-1,27
 1673 215 1673 215 1721.5 244.5 c 128,-1,28
 1770 274 1770 274 1822.5 308.5 c 128,-1,29
 1875 343 1875 343 1925 380 c 128,-1,30
 1975 417 1975 417 2019.5 456.5 c 128,-1,31
 2064 496 2064 496 2095.5 534.5 c 128,-1,32
 2127 573 2127 573 2142 610.5 c 128,-1,33
 2157 648 2157 648 2150 682 c 0,34,35
 2145 703 2145 703 2133 724 c 128,-1,36
 2121 745 2121 745 2100 761.5 c 128,-1,37
 2079 778 2079 778 2048 788 c 128,-1,38
 2017 798 2017 798 1974 798 c 0,39,40
 1926 798 1926 798 1881 781 c 128,-1,41
 1836 764 1836 764 1796.5 738.5 c 128,-1,42
 1757 713 1757 713 1724 684 c 128,-1,43
 1691 655 1691 655 1667 632 c 1,44,-1
 1584 750 l 1,45,46
 1607 790 1607 790 1653.5 835.5 c 128,-1,47
 1700 881 1700 881 1761.5 919.5 c 128,-1,48
 1823 958 1823 958 1895.5 983 c 128,-1,49
 1968 1008 1968 1008 2043 1008 c 0,50,51
 2254 1008 2254 1008 2363 932.5 c 128,-1,52
 2472 857 2472 857 2472 715 c 0,53,54
 2472 658 2472 658 2451 608 c 128,-1,55
 2430 558 2430 558 2391 511.5 c 128,-1,56
 2352 465 2352 465 2297 421 c 128,-1,57
 2242 377 2242 377 2174 332.5 c 128,-1,58
 2106 288 2106 288 2027 241 c 128,-1,59
 1948 194 1948 194 1861 143 c 1,60,-1
 2340 229 l 1,61,-1
 2440 378 l 1,62,-1
 2603 334 l 1,63,-1
 2535 -2 l 1,64,-1
 1627 -2 l 1,65,-1
 1564 154 l 1,25,26
EndSplineSet
EndChar

StartChar: onesuperior
Encoding: 185 185 153
Width: 1124
Flags: W
LayerCount: 2
Fore
SplineSet
199 855 m 1,0,-1
 458 895 l 1,1,-1
 458 1414 l 1,2,3
 438 1412 438 1412 409 1408 c 128,-1,4
 380 1404 380 1404 347.5 1399 c 128,-1,5
 315 1394 315 1394 283.5 1388.5 c 128,-1,6
 252 1383 252 1383 227 1379 c 1,7,-1
 191 1534 l 1,8,9
 226 1540 226 1540 274 1553.5 c 128,-1,10
 322 1567 322 1567 375.5 1584.5 c 128,-1,11
 429 1602 429 1602 483 1622 c 128,-1,12
 537 1642 537 1642 582.5 1661 c 128,-1,13
 628 1680 628 1680 661.5 1696 c 128,-1,14
 695 1712 695 1712 707 1722 c 1,15,-1
 788 1707 l 1,16,-1
 788 894 l 1,17,-1
 1024 855 l 1,18,-1
 1024 718 l 1,19,-1
 199 718 l 1,20,-1
 199 855 l 1,0,-1
EndSplineSet
EndChar

StartChar: twosuperior
Encoding: 178 178 154
Width: 1238
Flags: W
LayerCount: 2
Fore
SplineSet
139 876 m 1,0,1
 166 891 166 891 207 914 c 128,-1,2
 248 937 248 937 296.5 966.5 c 128,-1,3
 345 996 345 996 397.5 1030.5 c 128,-1,4
 450 1065 450 1065 500 1102 c 128,-1,5
 550 1139 550 1139 594.5 1178.5 c 128,-1,6
 639 1218 639 1218 670.5 1256.5 c 128,-1,7
 702 1295 702 1295 717 1332.5 c 128,-1,8
 732 1370 732 1370 725 1404 c 0,9,10
 720 1425 720 1425 708 1446 c 128,-1,11
 696 1467 696 1467 675 1483.5 c 128,-1,12
 654 1500 654 1500 623 1510 c 128,-1,13
 592 1520 592 1520 549 1520 c 0,14,15
 501 1520 501 1520 456 1503 c 128,-1,16
 411 1486 411 1486 371.5 1460.5 c 128,-1,17
 332 1435 332 1435 299 1406 c 128,-1,18
 266 1377 266 1377 242 1354 c 1,19,-1
 159 1472 l 1,20,21
 182 1512 182 1512 228.5 1557.5 c 128,-1,22
 275 1603 275 1603 336.5 1641.5 c 128,-1,23
 398 1680 398 1680 470.5 1705 c 128,-1,24
 543 1730 543 1730 618 1730 c 0,25,26
 829 1730 829 1730 938 1654.5 c 128,-1,27
 1047 1579 1047 1579 1047 1437 c 0,28,29
 1047 1380 1047 1380 1026 1330 c 128,-1,30
 1005 1280 1005 1280 966 1233.5 c 128,-1,31
 927 1187 927 1187 872 1143 c 128,-1,32
 817 1099 817 1099 749 1054.5 c 128,-1,33
 681 1010 681 1010 602 963 c 128,-1,34
 523 916 523 916 436 865 c 1,35,-1
 915 951 l 1,36,-1
 1015 1100 l 1,37,-1
 1178 1056 l 1,38,-1
 1110 720 l 1,39,-1
 202 720 l 1,40,-1
 139 876 l 1,0,1
EndSplineSet
EndChar

StartChar: onequarter
Encoding: 188 188 155
Width: 2732
Flags: W
LayerCount: 2
Fore
SplineSet
1638 1890 m 1,0,-1
 1852 1818 l 1,1,-1
 1052 -343 l 1,2,-1
 842 -268 l 1,3,-1
 1638 1890 l 1,0,-1
295 855 m 1,4,-1
 554 895 l 1,5,-1
 554 1414 l 1,6,7
 534 1412 534 1412 505 1408 c 128,-1,8
 476 1404 476 1404 443.5 1399 c 128,-1,9
 411 1394 411 1394 379.5 1388.5 c 128,-1,10
 348 1383 348 1383 323 1379 c 1,11,-1
 287 1534 l 1,12,13
 322 1540 322 1540 370 1553.5 c 128,-1,14
 418 1567 418 1567 471.5 1584.5 c 128,-1,15
 525 1602 525 1602 579 1622 c 128,-1,16
 633 1642 633 1642 678.5 1661 c 128,-1,17
 724 1680 724 1680 757.5 1696 c 128,-1,18
 791 1712 791 1712 803 1722 c 1,19,-1
 884 1707 l 1,20,-1
 884 894 l 1,21,-1
 1120 855 l 1,22,-1
 1120 718 l 1,23,-1
 295 718 l 1,24,-1
 295 855 l 1,4,-1
1989 1056 m 1,25,-1
 2113 1056 l 1,26,-1
 2249 900 l 1,27,-1
 1792 373 l 1,28,-1
 1711 279 l 1,29,-1
 2032 314 l 1,30,-1
 2044 512 l 1,31,-1
 2293 541 l 1,32,-1
 2293 342 l 1,33,-1
 2492 364 l 1,34,-1
 2492 107 l 1,35,-1
 2293 107 l 1,36,-1
 2294 -177 l 1,37,-1
 2004 -177 l 1,38,-1
 2020 107 l 1,39,-1
 1521 107 l 1,40,-1
 1470 256 l 1,41,-1
 1989 1056 l 1,25,-1
EndSplineSet
EndChar

StartChar: threequarters
Encoding: 190 190 156
Width: 2902
Flags: W
LayerCount: 2
Fore
SplineSet
1638 1881 m 1,0,-1
 1852 1818 l 1,1,-1
 1052 -343 l 1,2,-1
 842 -268 l 1,3,-1
 1638 1881 l 1,0,-1
339 803 m 1,4,5
 361 797 361 797 390 792.5 c 128,-1,6
 419 788 419 788 449 784.5 c 128,-1,7
 479 781 479 781 507.5 779.5 c 128,-1,8
 536 778 536 778 557 780 c 0,9,10
 682 788 682 788 755.5 824.5 c 128,-1,11
 829 861 829 861 843 924 c 0,12,13
 845 932 845 932 847 947 c 128,-1,14
 849 962 849 962 847.5 981 c 128,-1,15
 846 1000 846 1000 839.5 1020.5 c 128,-1,16
 833 1041 833 1041 818 1061 c 128,-1,17
 803 1081 803 1081 778 1097.5 c 128,-1,18
 753 1114 753 1114 714 1125 c 1,19,-1
 484 1069 l 1,20,-1
 487 1232 l 1,21,22
 548 1250 548 1250 601 1270 c 128,-1,23
 654 1290 654 1290 695.5 1312 c 128,-1,24
 737 1334 737 1334 765 1358.5 c 128,-1,25
 793 1383 793 1383 804 1411 c 0,26,27
 809 1425 809 1425 810 1442.5 c 128,-1,28
 811 1460 811 1460 809 1478 c 0,29,30
 807 1500 807 1500 790.5 1514.5 c 128,-1,31
 774 1529 774 1529 751.5 1537.5 c 128,-1,32
 729 1546 729 1546 705 1549.5 c 128,-1,33
 681 1553 681 1553 664 1553 c 0,34,35
 637 1554 637 1554 602.5 1549 c 128,-1,36
 568 1544 568 1544 529.5 1533.5 c 128,-1,37
 491 1523 491 1523 450.5 1506 c 128,-1,38
 410 1489 410 1489 371 1465 c 1,39,-1
 300 1585 l 1,40,41
 328 1611 328 1611 377 1636.5 c 128,-1,42
 426 1662 426 1662 486 1681.5 c 128,-1,43
 546 1701 546 1701 613 1712.5 c 128,-1,44
 680 1724 680 1724 743 1723 c 0,45,46
 851 1721 851 1721 922.5 1694 c 128,-1,47
 994 1667 994 1667 1036 1630 c 128,-1,48
 1078 1593 1078 1593 1095 1552.5 c 128,-1,49
 1112 1512 1112 1512 1112 1483 c 0,50,51
 1112 1443 1112 1443 1103 1408 c 128,-1,52
 1094 1373 1094 1373 1071.5 1341.5 c 128,-1,53
 1049 1310 1049 1310 1011 1281.5 c 128,-1,54
 973 1253 973 1253 916 1228 c 1,55,56
 973 1221 973 1221 1014 1201.5 c 128,-1,57
 1055 1182 1055 1182 1083 1156 c 128,-1,58
 1111 1130 1111 1130 1128 1101.5 c 128,-1,59
 1145 1073 1145 1073 1154 1047.5 c 128,-1,60
 1163 1022 1163 1022 1166 1003 c 128,-1,61
 1169 984 1169 984 1169 977 c 0,62,63
 1169 911 1169 911 1140 846.5 c 128,-1,64
 1111 782 1111 782 1050 731 c 128,-1,65
 989 680 989 680 893.5 648 c 128,-1,66
 798 616 798 616 666 616 c 0,67,68
 600 616 600 616 548.5 620.5 c 128,-1,69
 497 625 497 625 457.5 631 c 128,-1,70
 418 637 418 637 389 644 c 128,-1,71
 360 651 360 651 339 656 c 1,72,-1
 339 803 l 1,4,5
1969 1056 m 1,73,-1
 2113 1056 l 1,74,-1
 2249 900 l 1,75,-1
 1792 373 l 1,76,-1
 1711 279 l 1,77,-1
 2032 314 l 1,78,-1
 2044 512 l 1,79,-1
 2293 541 l 1,80,-1
 2293 342 l 1,81,-1
 2492 364 l 1,82,-1
 2492 107 l 1,83,-1
 2293 107 l 1,84,-1
 2294 -177 l 1,85,-1
 2004 -177 l 1,86,-1
 2020 107 l 1,87,-1
 1521 107 l 1,88,-1
 1470 256 l 1,89,-1
 1969 1056 l 1,73,-1
EndSplineSet
EndChar

StartChar: threesuperior
Encoding: 179 179 157
Width: 1137
Flags: W
LayerCount: 2
Fore
SplineSet
198 803 m 1,0,1
 220 797 220 797 249 792.5 c 128,-1,2
 278 788 278 788 308 784.5 c 128,-1,3
 338 781 338 781 366.5 779.5 c 128,-1,4
 395 778 395 778 416 780 c 0,5,6
 541 788 541 788 614.5 824.5 c 128,-1,7
 688 861 688 861 702 924 c 0,8,9
 704 932 704 932 706 947 c 128,-1,10
 708 962 708 962 706.5 981 c 128,-1,11
 705 1000 705 1000 698.5 1020.5 c 128,-1,12
 692 1041 692 1041 677 1061 c 128,-1,13
 662 1081 662 1081 637 1097.5 c 128,-1,14
 612 1114 612 1114 573 1125 c 1,15,-1
 343 1069 l 1,16,-1
 346 1232 l 1,17,18
 407 1250 407 1250 460 1270 c 128,-1,19
 513 1290 513 1290 554.5 1312 c 128,-1,20
 596 1334 596 1334 624 1358.5 c 128,-1,21
 652 1383 652 1383 663 1411 c 0,22,23
 668 1425 668 1425 669 1442.5 c 128,-1,24
 670 1460 670 1460 668 1478 c 0,25,26
 666 1500 666 1500 649.5 1514.5 c 128,-1,27
 633 1529 633 1529 610.5 1537.5 c 128,-1,28
 588 1546 588 1546 564 1549.5 c 128,-1,29
 540 1553 540 1553 523 1553 c 0,30,31
 496 1554 496 1554 461.5 1549 c 128,-1,32
 427 1544 427 1544 388.5 1533.5 c 128,-1,33
 350 1523 350 1523 309.5 1506 c 128,-1,34
 269 1489 269 1489 230 1465 c 1,35,-1
 159 1585 l 1,36,37
 187 1611 187 1611 236 1636.5 c 128,-1,38
 285 1662 285 1662 345 1681.5 c 128,-1,39
 405 1701 405 1701 472 1712.5 c 128,-1,40
 539 1724 539 1724 602 1723 c 0,41,42
 710 1721 710 1721 781.5 1694 c 128,-1,43
 853 1667 853 1667 895 1630 c 128,-1,44
 937 1593 937 1593 954 1552.5 c 128,-1,45
 971 1512 971 1512 971 1483 c 0,46,47
 971 1443 971 1443 962 1408 c 128,-1,48
 953 1373 953 1373 930.5 1341.5 c 128,-1,49
 908 1310 908 1310 870 1281.5 c 128,-1,50
 832 1253 832 1253 775 1228 c 1,51,52
 832 1221 832 1221 873 1201.5 c 128,-1,53
 914 1182 914 1182 942 1156 c 128,-1,54
 970 1130 970 1130 987 1101.5 c 128,-1,55
 1004 1073 1004 1073 1013 1047.5 c 128,-1,56
 1022 1022 1022 1022 1025 1003 c 128,-1,57
 1028 984 1028 984 1028 977 c 0,58,59
 1028 911 1028 911 999 846.5 c 128,-1,60
 970 782 970 782 909 731 c 128,-1,61
 848 680 848 680 752.5 648 c 128,-1,62
 657 616 657 616 525 616 c 0,63,64
 459 616 459 616 407.5 620.5 c 128,-1,65
 356 625 356 625 316.5 631 c 128,-1,66
 277 637 277 637 248 644 c 128,-1,67
 219 651 219 651 198 656 c 1,68,-1
 198 803 l 1,0,1
EndSplineSet
EndChar

StartChar: grave.cap
Encoding: 65539 -1 158
Width: 1062
Flags: W
LayerCount: 2
Fore
SplineSet
573 1593 m 1,0,1
 562 1592 562 1592 531 1596 c 128,-1,2
 500 1600 500 1600 457.5 1608 c 128,-1,3
 415 1616 415 1616 366 1627.5 c 128,-1,4
 317 1639 317 1639 269 1654.5 c 128,-1,5
 221 1670 221 1670 178.5 1688.5 c 128,-1,6
 136 1707 136 1707 108 1728 c 1,7,-1
 301 1920 l 1,8,-1
 674 1700 l 1,9,-1
 573 1593 l 1,0,1
EndSplineSet
EndChar

StartChar: dieresis.cap
Encoding: 65540 -1 159
Width: 1062
Flags: W
LayerCount: 2
Fore
SplineSet
791 1619 m 0,0,1
 756 1619 756 1619 723.5 1628 c 128,-1,2
 691 1637 691 1637 665.5 1655 c 128,-1,3
 640 1673 640 1673 625 1699 c 128,-1,4
 610 1725 610 1725 610 1759 c 0,5,6
 610 1794 610 1794 628 1823.5 c 128,-1,7
 646 1853 646 1853 675.5 1874.5 c 128,-1,8
 705 1896 705 1896 742 1908 c 128,-1,9
 779 1920 779 1920 817 1920 c 0,10,11
 866 1920 866 1920 900 1909.5 c 128,-1,12
 934 1899 934 1899 955 1880.5 c 128,-1,13
 976 1862 976 1862 985.5 1836.5 c 128,-1,14
 995 1811 995 1811 995 1782 c 0,15,16
 995 1744 995 1744 978 1714 c 128,-1,17
 961 1684 961 1684 933 1663 c 128,-1,18
 905 1642 905 1642 868 1630.5 c 128,-1,19
 831 1619 831 1619 791 1619 c 0,0,1
243 1618 m 0,20,21
 207 1618 207 1618 175 1627 c 128,-1,22
 143 1636 143 1636 118.5 1653.5 c 128,-1,23
 94 1671 94 1671 80 1697 c 128,-1,24
 66 1723 66 1723 66 1756 c 0,25,26
 66 1792 66 1792 83.5 1822 c 128,-1,27
 101 1852 101 1852 130 1874 c 128,-1,28
 159 1896 159 1896 195.5 1908 c 128,-1,29
 232 1920 232 1920 271 1920 c 0,30,31
 320 1920 320 1920 354.5 1909 c 128,-1,32
 389 1898 389 1898 411.5 1879.5 c 128,-1,33
 434 1861 434 1861 444.5 1835.5 c 128,-1,34
 455 1810 455 1810 455 1780 c 0,35,36
 455 1743 455 1743 437.5 1713 c 128,-1,37
 420 1683 420 1683 390.5 1662 c 128,-1,38
 361 1641 361 1641 322.5 1629.5 c 128,-1,39
 284 1618 284 1618 243 1618 c 0,20,21
EndSplineSet
EndChar

StartChar: commabelow
Encoding: 65541 -1 160
Width: 767
Flags: W
LayerCount: 2
Fore
SplineSet
301 -40 m 1,0,1
 353 -40 353 -40 401 -59 c 128,-1,2
 449 -78 449 -78 485 -114.5 c 128,-1,3
 521 -151 521 -151 542.5 -203 c 128,-1,4
 564 -255 564 -255 564 -321 c 0,5,6
 564 -364 564 -364 551 -402.5 c 128,-1,7
 538 -441 538 -441 516.5 -474.5 c 128,-1,8
 495 -508 495 -508 467.5 -536 c 128,-1,9
 440 -564 440 -564 412 -585 c 128,-1,10
 384 -606 384 -606 357 -620 c 128,-1,11
 330 -634 330 -634 310 -640 c 1,12,-1
 182 -589 l 1,13,-1
 182 -568 l 1,14,15
 194 -555 194 -555 210.5 -541 c 128,-1,16
 227 -527 227 -527 242 -509 c 128,-1,17
 257 -491 257 -491 267.5 -468 c 128,-1,18
 278 -445 278 -445 278 -414 c 0,19,20
 278 -387 278 -387 268 -363 c 128,-1,21
 258 -339 258 -339 241 -320.5 c 128,-1,22
 224 -302 224 -302 201 -291 c 128,-1,23
 178 -280 178 -280 153 -280 c 1,24,-1
 153 -203 l 1,25,-1
 301 -40 l 1,0,1
EndSplineSet
EndChar

StartChar: commaaccent
Encoding: 65542 -1 161
Width: 767
Flags: W
LayerCount: 2
Fore
SplineSet
301 -40 m 1,0,1
 353 -40 353 -40 401 -59 c 128,-1,2
 449 -78 449 -78 485 -114.5 c 128,-1,3
 521 -151 521 -151 542.5 -203 c 128,-1,4
 564 -255 564 -255 564 -321 c 0,5,6
 564 -364 564 -364 551 -402.5 c 128,-1,7
 538 -441 538 -441 516.5 -474.5 c 128,-1,8
 495 -508 495 -508 467.5 -536 c 128,-1,9
 440 -564 440 -564 412 -585 c 128,-1,10
 384 -606 384 -606 357 -620 c 128,-1,11
 330 -634 330 -634 310 -640 c 1,12,-1
 182 -589 l 1,13,-1
 182 -568 l 1,14,15
 194 -555 194 -555 210.5 -541 c 128,-1,16
 227 -527 227 -527 242 -509 c 128,-1,17
 257 -491 257 -491 267.5 -468 c 128,-1,18
 278 -445 278 -445 278 -414 c 0,19,20
 278 -387 278 -387 268 -363 c 128,-1,21
 258 -339 258 -339 241 -320.5 c 128,-1,22
 224 -302 224 -302 201 -291 c 128,-1,23
 178 -280 178 -280 153 -280 c 1,24,-1
 153 -203 l 1,25,-1
 301 -40 l 1,0,1
EndSplineSet
EndChar

StartChar: circumflex.cap
Encoding: 65543 -1 162
Width: 1062
Flags: W
LayerCount: 2
Fore
SplineSet
141 1670 m 1,0,-1
 416 1920 l 1,1,-1
 648 1920 l 1,2,-1
 918 1670 l 1,3,-1
 806 1597 l 1,4,-1
 534 1726 l 1,5,-1
 252 1597 l 1,6,-1
 141 1670 l 1,0,-1
EndSplineSet
EndChar

StartChar: caron.cap
Encoding: 65544 -1 163
Width: 1064
Flags: W
LayerCount: 2
Fore
SplineSet
131 1847 m 1,0,-1
 243 1920 l 1,1,-1
 525 1792 l 1,2,-1
 817 1920 l 1,3,-1
 928 1847 l 1,4,-1
 643 1597 l 1,5,-1
 411 1597 l 1,6,-1
 131 1847 l 1,0,-1
EndSplineSet
EndChar

StartChar: breve.cap
Encoding: 65545 -1 164
Width: 728
Flags: W
LayerCount: 2
Fore
SplineSet
364 1580 m 0,0,1
 270 1580 270 1580 200 1610 c 128,-1,2
 130 1640 130 1640 83.5 1688.5 c 128,-1,3
 37 1737 37 1737 13.5 1798 c 128,-1,4
 -10 1859 -10 1859 -10 1920 c 1,5,-1
 201 1920 l 1,6,7
 204 1908 204 1908 211.5 1885 c 128,-1,8
 219 1862 219 1862 237 1838.5 c 128,-1,9
 255 1815 255 1815 286 1798 c 128,-1,10
 317 1781 317 1781 365 1781 c 0,11,12
 411 1781 411 1781 441.5 1798 c 128,-1,13
 472 1815 472 1815 491 1838 c 128,-1,14
 510 1861 510 1861 519 1884.5 c 128,-1,15
 528 1908 528 1908 531 1920 c 1,16,-1
 738 1920 l 1,17,18
 738 1859 738 1859 713 1798 c 128,-1,19
 688 1737 688 1737 640.5 1688.5 c 128,-1,20
 593 1640 593 1640 523.5 1610 c 128,-1,21
 454 1580 454 1580 364 1580 c 0,0,1
EndSplineSet
EndChar

StartChar: ring.cap
Encoding: 65546 -1 165
Width: 708
Flags: W
LayerCount: 2
Fore
SplineSet
353 1428 m 0,0,1
 296 1428 296 1428 242.5 1444 c 128,-1,2
 189 1460 189 1460 147.5 1491 c 128,-1,3
 106 1522 106 1522 81 1567.5 c 128,-1,4
 56 1613 56 1613 56 1673 c 0,5,6
 56 1732 56 1732 78.5 1778 c 128,-1,7
 101 1824 101 1824 140.5 1855.5 c 128,-1,8
 180 1887 180 1887 234.5 1903.5 c 128,-1,9
 289 1920 289 1920 353 1920 c 256,10,11
 417 1920 417 1920 472 1903 c 128,-1,12
 527 1886 527 1886 567 1854 c 128,-1,13
 607 1822 607 1822 629.5 1776 c 128,-1,14
 652 1730 652 1730 652 1673 c 0,15,16
 652 1613 652 1613 627 1567.5 c 128,-1,17
 602 1522 602 1522 560.5 1491 c 128,-1,18
 519 1460 519 1460 465 1444 c 128,-1,19
 411 1428 411 1428 353 1428 c 0,0,1
353 1555 m 0,20,21
 380 1555 380 1555 402.5 1564 c 128,-1,22
 425 1573 425 1573 442 1588.5 c 128,-1,23
 459 1604 459 1604 468.5 1626 c 128,-1,24
 478 1648 478 1648 478 1674 c 0,25,26
 478 1698 478 1698 468.5 1720 c 128,-1,27
 459 1742 459 1742 442 1758.5 c 128,-1,28
 425 1775 425 1775 402.5 1784.5 c 128,-1,29
 380 1794 380 1794 353 1794 c 0,30,31
 296 1794 296 1794 261.5 1760 c 128,-1,32
 227 1726 227 1726 227 1674 c 256,33,34
 227 1622 227 1622 261.5 1588.5 c 128,-1,35
 296 1555 296 1555 353 1555 c 0,20,21
EndSplineSet
EndChar

StartChar: ogonek.cap
Encoding: 65547 -1 166
Width: 769
Flags: W
LayerCount: 2
Fore
SplineSet
258 6 m 1,0,-1
 397 0 l 1,1,2
 346 -13 346 -13 297.5 -38 c 128,-1,3
 249 -63 249 -63 210 -91.5 c 128,-1,4
 171 -120 171 -120 144.5 -148 c 128,-1,5
 118 -176 118 -176 111 -195 c 0,6,7
 99 -229 99 -229 101.5 -249.5 c 128,-1,8
 104 -270 104 -270 114.5 -280.5 c 128,-1,9
 125 -291 125 -291 141.5 -294.5 c 128,-1,10
 158 -298 158 -298 175 -298 c 0,11,12
 200 -299 200 -299 225.5 -294.5 c 128,-1,13
 251 -290 251 -290 276.5 -282 c 128,-1,14
 302 -274 302 -274 326 -264 c 128,-1,15
 350 -254 350 -254 373 -244 c 1,16,-1
 408 -378 l 1,17,18
 323 -451 323 -451 217.5 -482.5 c 128,-1,19
 112 -514 112 -514 -6 -514 c 0,20,21
 -64 -514 -64 -514 -103.5 -499 c 128,-1,22
 -143 -484 -143 -484 -168 -461 c 128,-1,23
 -193 -438 -193 -438 -205 -409 c 128,-1,24
 -217 -380 -217 -380 -219 -351 c 0,25,26
 -221 -315 -221 -315 -197 -268 c 128,-1,27
 -173 -221 -173 -221 -125.5 -172 c 128,-1,28
 -78 -123 -78 -123 -8 -77.5 c 128,-1,29
 62 -32 62 -32 153 0 c 1,30,-1
 258 6 l 1,0,-1
EndSplineSet
EndChar

StartChar: tilde.cap
Encoding: 65548 -1 167
Width: 1063
Flags: W
LayerCount: 2
Fore
SplineSet
103 1712 m 1,0,1
 119 1756 119 1756 156.5 1794 c 128,-1,2
 194 1832 194 1832 239 1860 c 128,-1,3
 284 1888 284 1888 330 1904 c 128,-1,4
 376 1920 376 1920 411 1920 c 0,5,6
 466 1920 466 1920 506.5 1904.5 c 128,-1,7
 547 1889 547 1889 580.5 1870 c 128,-1,8
 614 1851 614 1851 643 1835.5 c 128,-1,9
 672 1820 672 1820 704 1820 c 0,10,11
 758 1820 758 1820 797.5 1841 c 128,-1,12
 837 1862 837 1862 870 1891 c 1,13,-1
 959 1794 l 1,14,15
 942 1750 942 1750 906 1714.5 c 128,-1,16
 870 1679 870 1679 826.5 1654 c 128,-1,17
 783 1629 783 1629 738 1616 c 128,-1,18
 693 1603 693 1603 658 1603 c 0,19,20
 604 1603 604 1603 562 1619 c 128,-1,21
 520 1635 520 1635 485.5 1654.5 c 128,-1,22
 451 1674 451 1674 420.5 1690 c 128,-1,23
 390 1706 390 1706 358 1706 c 0,24,25
 313 1706 313 1706 269 1684.5 c 128,-1,26
 225 1663 225 1663 190 1634 c 1,27,-1
 103 1712 l 1,0,1
EndSplineSet
EndChar

StartChar: hungarumlaut.cap
Encoding: 65549 -1 168
Width: 1081
Flags: W
LayerCount: 2
Fore
SplineSet
538 1567 m 1,0,-1
 836 1920 l 1,1,-1
 1066 1706 l 1,2,3
 1009 1642 1009 1642 942.5 1597.5 c 128,-1,4
 876 1553 876 1553 813.5 1526 c 128,-1,5
 751 1499 751 1499 700.5 1488.5 c 128,-1,6
 650 1478 650 1478 625 1481 c 1,7,-1
 538 1567 l 1,0,-1
15 1567 m 1,8,-1
 314 1920 l 1,9,-1
 542 1706 l 1,10,11
 485 1642 485 1642 419 1597.5 c 128,-1,12
 353 1553 353 1553 291 1526 c 128,-1,13
 229 1499 229 1499 178.5 1488.5 c 128,-1,14
 128 1478 128 1478 104 1481 c 1,15,-1
 15 1567 l 1,8,-1
EndSplineSet
EndChar

StartChar: percent
Encoding: 37 37 169
Width: 2137
Flags: W
LayerCount: 2
Fore
SplineSet
1284 1770 m 1,0,-1
 1524 1770 l 1,1,-1
 800 -177 l 1,2,-1
 562 -177 l 1,3,-1
 1284 1770 l 1,0,-1
483 692 m 0,4,5
 396 692 396 692 327 720.5 c 128,-1,6
 258 749 258 749 209.5 798.5 c 128,-1,7
 161 848 161 848 135 914 c 128,-1,8
 109 980 109 980 109 1053 c 0,9,10
 109 1143 109 1143 142.5 1212.5 c 128,-1,11
 176 1282 176 1282 232.5 1329.5 c 128,-1,12
 289 1377 289 1377 363 1402 c 128,-1,13
 437 1427 437 1427 517 1427 c 0,14,15
 615 1427 615 1427 686 1398.5 c 128,-1,16
 757 1370 757 1370 802.5 1320.5 c 128,-1,17
 848 1271 848 1271 869.5 1204.5 c 128,-1,18
 891 1138 891 1138 891 1062 c 0,19,20
 891 973 891 973 857.5 904 c 128,-1,21
 824 835 824 835 767.5 788 c 128,-1,22
 711 741 711 741 637 716.5 c 128,-1,23
 563 692 563 692 483 692 c 0,4,5
511 835 m 0,24,25
 570 835 570 835 604 894.5 c 128,-1,26
 638 954 638 954 638 1055 c 0,27,28
 638 1106 638 1106 626 1148.5 c 128,-1,29
 614 1191 614 1191 594.5 1221 c 128,-1,30
 575 1251 575 1251 550.5 1267.5 c 128,-1,31
 526 1284 526 1284 501 1284 c 0,32,33
 471 1284 471 1284 445.5 1268.5 c 128,-1,34
 420 1253 420 1253 401 1224 c 128,-1,35
 382 1195 382 1195 371.5 1153.5 c 128,-1,36
 361 1112 361 1112 361 1061 c 0,37,38
 361 1015 361 1015 375 974 c 128,-1,39
 389 933 389 933 410.5 902 c 128,-1,40
 432 871 432 871 458.5 853 c 128,-1,41
 485 835 485 835 511 835 c 0,24,25
1223 525 m 0,42,43
 1223 615 1223 615 1256.5 684.5 c 128,-1,44
 1290 754 1290 754 1346.5 801.5 c 128,-1,45
 1403 849 1403 849 1477 874 c 128,-1,46
 1551 899 1551 899 1631 899 c 0,47,48
 1729 899 1729 899 1800 870.5 c 128,-1,49
 1871 842 1871 842 1916.5 792.5 c 128,-1,50
 1962 743 1962 743 1983.5 676.5 c 128,-1,51
 2005 610 2005 610 2005 534 c 0,52,53
 2005 445 2005 445 1971.5 376 c 128,-1,54
 1938 307 1938 307 1881.5 260 c 128,-1,55
 1825 213 1825 213 1751 188.5 c 128,-1,56
 1677 164 1677 164 1597 164 c 0,57,58
 1510 164 1510 164 1441 193 c 128,-1,59
 1372 222 1372 222 1323.5 271.5 c 128,-1,60
 1275 321 1275 321 1249 386.5 c 128,-1,61
 1223 452 1223 452 1223 525 c 0,42,43
1481 533 m 0,62,63
 1481 487 1481 487 1495 446 c 128,-1,64
 1509 405 1509 405 1530.5 374 c 128,-1,65
 1552 343 1552 343 1578.5 325 c 128,-1,66
 1605 307 1605 307 1631 307 c 0,67,68
 1690 307 1690 307 1724 366.5 c 128,-1,69
 1758 426 1758 426 1758 527 c 0,70,71
 1758 578 1758 578 1746 620.5 c 128,-1,72
 1734 663 1734 663 1714.5 693 c 128,-1,73
 1695 723 1695 723 1670.5 739.5 c 128,-1,74
 1646 756 1646 756 1621 756 c 0,75,76
 1591 756 1591 756 1565.5 740.5 c 128,-1,77
 1540 725 1540 725 1521 696 c 128,-1,78
 1502 667 1502 667 1491.5 625.5 c 128,-1,79
 1481 584 1481 584 1481 533 c 0,62,63
EndSplineSet
EndChar

StartChar: foundryicon
Encoding: 65550 -1 170
Width: 1939
Flags: W
LayerCount: 2
Fore
SplineSet
618 1701 m 0,0,1
 589 1701 589 1701 568.5 1718 c 128,-1,2
 548 1735 548 1735 548 1759 c 0,3,4
 548 1772 548 1772 555 1791.5 c 128,-1,5
 562 1811 562 1811 572.5 1833.5 c 128,-1,6
 583 1856 583 1856 595 1879 c 128,-1,7
 607 1902 607 1902 618 1920 c 1,8,9
 652 1871 652 1871 671 1828 c 128,-1,10
 690 1785 690 1785 690 1759 c 0,11,12
 690 1735 690 1735 669 1718 c 128,-1,13
 648 1701 648 1701 618 1701 c 0,0,1
605 128 m 0,14,15
 605 145 605 145 610.5 156.5 c 128,-1,16
 616 168 616 168 624 175 c 128,-1,17
 632 182 632 182 641 185 c 128,-1,18
 650 188 650 188 658 188 c 0,19,20
 675 188 675 188 691.5 174.5 c 128,-1,21
 708 161 708 161 708 128 c 0,22,23
 708 87 708 87 712.5 60 c 128,-1,24
 717 33 717 33 728 17 c 128,-1,25
 739 1 739 1 756.5 -6 c 128,-1,26
 774 -13 774 -13 800 -13 c 0,27,28
 820 -13 820 -13 835.5 -5.5 c 128,-1,29
 851 2 851 2 862 23 c 128,-1,30
 873 44 873 44 879 81 c 128,-1,31
 885 118 885 118 885 177 c 1,32,-1
 907 177 l 1,33,-1
 907 669 l 1,34,-1
 872 669 l 1,35,36
 872 686 872 686 882 699 c 128,-1,37
 892 712 892 712 907 717 c 1,38,-1
 907 909 l 1,39,-1
 132 909 l 1,40,41
 132 977 132 977 159.5 1042 c 128,-1,42
 187 1107 187 1107 237.5 1164 c 128,-1,43
 288 1221 288 1221 359 1268.5 c 128,-1,44
 430 1316 430 1316 516 1349.5 c 128,-1,45
 602 1383 602 1383 700.5 1400.5 c 128,-1,46
 799 1418 799 1418 905 1416 c 1,47,-1
 910 1576 l 1,48,-1
 950 1576 l 1,49,-1
 959 1416 l 1,50,51
 1065 1418 1065 1418 1164 1400 c 128,-1,52
 1263 1382 1263 1382 1349 1349 c 128,-1,53
 1435 1316 1435 1316 1505.5 1268.5 c 128,-1,54
 1576 1221 1576 1221 1626.5 1164 c 128,-1,55
 1677 1107 1677 1107 1704.5 1042 c 128,-1,56
 1732 977 1732 977 1732 909 c 1,57,-1
 964 909 l 1,58,-1
 964 177 l 1,59,-1
 985 178 l 1,60,61
 985 30 985 30 940.5 -39 c 128,-1,62
 896 -108 896 -108 800 -108 c 0,63,64
 755 -108 755 -108 719 -96.5 c 128,-1,65
 683 -85 683 -85 657.5 -57.5 c 128,-1,66
 632 -30 632 -30 618.5 15.5 c 128,-1,67
 605 61 605 61 605 128 c 0,14,15
EndSplineSet
EndChar

StartChar: dotlessi
Encoding: 305 305 171
Width: 748
Flags: W
LayerCount: 2
Fore
SplineSet
79 136 m 1,0,-1
 214 164 l 1,1,-1
 214 786 l 1,2,-1
 86 930 l 1,3,-1
 86 1023 l 1,4,-1
 482 1157 l 1,5,-1
 567 1132 l 1,6,-1
 567 162 l 1,7,-1
 708 136 l 1,8,-1
 708 0 l 1,9,-1
 79 0 l 1,10,-1
 79 136 l 1,0,-1
EndSplineSet
EndChar

StartChar: oslash
Encoding: 248 248 172
Width: 1335
Flags: W
LayerCount: 2
Fore
SplineSet
429 7 m 1,0,1
 333 37 333 37 265 91 c 128,-1,2
 197 145 197 145 154.5 217.5 c 128,-1,3
 112 290 112 290 92.5 377.5 c 128,-1,4
 73 465 73 465 74 561 c 0,5,6
 76 715 76 715 127.5 826 c 128,-1,7
 179 937 179 937 263.5 1009 c 128,-1,8
 348 1081 348 1081 458 1115.5 c 128,-1,9
 568 1150 568 1150 686 1152 c 0,10,11
 714 1152 714 1152 740.5 1151 c 128,-1,12
 767 1150 767 1150 793 1147 c 1,13,-1
 843 1311 l 1,14,-1
 953 1285 l 1,15,-1
 904 1125 l 1,16,17
 989 1101 989 1101 1055.5 1055 c 128,-1,18
 1122 1009 1122 1009 1168 942 c 128,-1,19
 1214 875 1214 875 1238 787 c 128,-1,20
 1262 699 1262 699 1262 591 c 0,21,22
 1262 433 1262 433 1212 317.5 c 128,-1,23
 1162 202 1162 202 1078.5 126 c 128,-1,24
 995 50 995 50 886 13 c 128,-1,25
 777 -24 777 -24 658 -24 c 0,26,27
 627 -24 627 -24 598 -22 c 128,-1,28
 569 -20 569 -20 542 -17 c 1,29,-1
 485 -205 l 1,30,-1
 372 -178 l 1,31,-1
 429 7 l 1,0,1
741 993 m 1,32,33
 727 999 727 999 711 1002.5 c 128,-1,34
 695 1006 695 1006 677 1006 c 0,35,36
 631 1006 631 1006 596 988.5 c 128,-1,37
 561 971 561 971 535.5 941 c 128,-1,38
 510 911 510 911 493.5 871 c 128,-1,39
 477 831 477 831 467.5 784.5 c 128,-1,40
 458 738 458 738 454 688 c 128,-1,41
 450 638 450 638 450 589 c 0,42,43
 450 551 450 551 453 507 c 128,-1,44
 456 463 456 463 463 417.5 c 128,-1,45
 470 372 470 372 481.5 327.5 c 128,-1,46
 493 283 493 283 511 245 c 1,47,-1
 741 993 l 1,32,33
599 139 m 1,48,49
 631 122 631 122 669 122 c 0,50,51
 739 122 739 122 781.5 163 c 128,-1,52
 824 204 824 204 847 269 c 128,-1,53
 870 334 870 334 878 414.5 c 128,-1,54
 886 495 886 495 886 574 c 0,55,56
 886 616 886 616 883.5 660 c 128,-1,57
 881 704 881 704 875 746.5 c 128,-1,58
 869 789 869 789 858.5 829 c 128,-1,59
 848 869 848 869 831 902 c 1,60,-1
 599 139 l 1,48,49
EndSplineSet
EndChar

StartChar: aogonek
Encoding: 261 261 173
Width: 1226
Flags: W
LayerCount: 2
Fore
SplineSet
71 394 m 0,0,1
 85 452 85 452 125 498 c 128,-1,2
 165 544 165 544 221 578 c 128,-1,3
 277 612 277 612 344 635.5 c 128,-1,4
 411 659 411 659 479 674 c 128,-1,5
 547 689 547 689 610.5 695.5 c 128,-1,6
 674 702 674 702 724 702 c 1,7,8
 724 782 724 782 710 832 c 128,-1,9
 696 882 696 882 668.5 910.5 c 128,-1,10
 641 939 641 939 601.5 949.5 c 128,-1,11
 562 960 562 960 511 960 c 0,12,13
 446 960 446 960 390.5 949.5 c 128,-1,14
 335 939 335 939 291.5 925 c 128,-1,15
 248 911 248 911 219.5 896.5 c 128,-1,16
 191 882 191 882 180 874 c 1,17,-1
 112 1028 l 1,18,19
 128 1041 128 1041 169 1062 c 128,-1,20
 210 1083 210 1083 274.5 1103 c 128,-1,21
 339 1123 339 1123 425.5 1137 c 128,-1,22
 512 1151 512 1151 618 1151 c 0,23,24
 719 1151 719 1151 803.5 1132.5 c 128,-1,25
 888 1114 888 1114 949 1067.5 c 128,-1,26
 1010 1021 1010 1021 1044 941.5 c 128,-1,27
 1078 862 1078 862 1078 740 c 2,28,-1
 1078 136 l 1,29,-1
 1209 136 l 1,30,-1
 1209 29 l 1,31,32
 1192 18 1192 18 1171 8 c 1,33,34
 1132 -18 1132 -18 1094 -46.5 c 128,-1,35
 1056 -75 1056 -75 1027 -106.5 c 128,-1,36
 998 -138 998 -138 981.5 -173 c 128,-1,37
 965 -208 965 -208 970 -248 c 0,38,39
 973 -277 973 -277 993 -292.5 c 128,-1,40
 1013 -308 1013 -308 1044.5 -313.5 c 128,-1,41
 1076 -319 1076 -319 1117 -316 c 128,-1,42
 1158 -313 1158 -313 1203 -304 c 1,43,-1
 1203 -451 l 1,44,45
 1165 -479 1165 -479 1113.5 -495.5 c 128,-1,46
 1062 -512 1062 -512 1006.5 -516.5 c 128,-1,47
 951 -521 951 -521 896.5 -513.5 c 128,-1,48
 842 -506 842 -506 797.5 -485 c 128,-1,49
 753 -464 753 -464 724 -429.5 c 128,-1,50
 695 -395 695 -395 691 -345 c 0,51,52
 686 -285 686 -285 704.5 -236 c 128,-1,53
 723 -187 723 -187 754.5 -147 c 128,-1,54
 786 -107 786 -107 825 -76.5 c 128,-1,55
 864 -46 864 -46 899 -23 c 1,56,57
 878 -20 878 -20 856 -12.5 c 128,-1,58
 834 -5 834 -5 815 8 c 128,-1,59
 796 21 796 21 783.5 40 c 128,-1,60
 771 59 771 59 770 86 c 1,61,62
 718 37 718 37 647 4.5 c 128,-1,63
 576 -28 576 -28 480 -28 c 0,64,65
 349 -28 349 -28 261.5 7.5 c 128,-1,66
 174 43 174 43 125 101.5 c 128,-1,67
 76 160 76 160 63.5 236.5 c 128,-1,68
 51 313 51 313 71 394 c 0,0,1
417 335 m 0,69,70
 417 238 417 238 472 195 c 128,-1,71
 527 152 527 152 633 167 c 0,72,73
 660 171 660 171 682 181.5 c 128,-1,74
 704 192 704 192 723 206 c 1,75,76
 723 292 723 292 723.5 377.5 c 128,-1,77
 724 463 724 463 724 549 c 1,78,79
 693 549 693 549 658 545.5 c 128,-1,80
 623 542 623 542 589 533 c 128,-1,81
 555 524 555 524 524 508 c 128,-1,82
 493 492 493 492 469 468.5 c 128,-1,83
 445 445 445 445 431 412 c 128,-1,84
 417 379 417 379 417 335 c 0,69,70
EndSplineSet
EndChar

StartChar: Thorn
Encoding: 222 222 174
Width: 1378
Flags: W
LayerCount: 2
Fore
SplineSet
71 140 m 1,0,-1
 235 183 l 1,1,-1
 235 1364 l 1,2,-1
 23 1389 l 1,3,-1
 23 1553 l 1,4,-1
 788 1553 l 1,5,-1
 788 1389 l 1,6,-1
 589 1364 l 1,7,-1
 589 1211 l 1,8,9
 643 1217 643 1217 700 1222.5 c 128,-1,10
 757 1228 757 1228 811 1228 c 0,11,12
 940 1228 940 1228 1044 1206.5 c 128,-1,13
 1148 1185 1148 1185 1221.5 1136.5 c 128,-1,14
 1295 1088 1295 1088 1335 1010 c 128,-1,15
 1375 932 1375 932 1375 820 c 0,16,17
 1375 695 1375 695 1334.5 600.5 c 128,-1,18
 1294 506 1294 506 1217 441.5 c 128,-1,19
 1140 377 1140 377 1029.5 344.5 c 128,-1,20
 919 312 919 312 780 312 c 0,21,22
 723 312 723 312 671 314.5 c 128,-1,23
 619 317 619 317 589 319 c 1,24,-1
 589 182 l 1,25,-1
 843 140 l 1,26,-1
 843 0 l 1,27,-1
 71 0 l 1,28,-1
 71 140 l 1,0,-1
589 483 m 1,29,30
 599 481 599 481 615.5 479.5 c 128,-1,31
 632 478 632 478 652 477.5 c 128,-1,32
 672 477 672 477 694 476.5 c 128,-1,33
 716 476 716 476 736 476 c 0,34,35
 799 476 799 476 848.5 499.5 c 128,-1,36
 898 523 898 523 933 565.5 c 128,-1,37
 968 608 968 608 986.5 667 c 128,-1,38
 1005 726 1005 726 1005 797 c 0,39,40
 1005 869 1005 869 981 919 c 128,-1,41
 957 969 957 969 915.5 999.5 c 128,-1,42
 874 1030 874 1030 819 1043.5 c 128,-1,43
 764 1057 764 1057 701 1056 c 0,44,45
 650 1055 650 1055 626 1054 c 128,-1,46
 602 1053 602 1053 589 1051 c 1,47,-1
 589 483 l 1,29,30
EndSplineSet
EndChar

StartChar: ordfeminine
Encoding: 170 170 175
Width: 1169
Flags: W
LayerCount: 2
Fore
SplineSet
435 733 m 0,0,1
 385 733 385 733 337 749 c 128,-1,2
 289 765 289 765 250.5 797 c 128,-1,3
 212 829 212 829 188.5 876 c 128,-1,4
 165 923 165 923 165 986 c 0,5,6
 165 1046 165 1046 193.5 1091.5 c 128,-1,7
 222 1137 222 1137 267.5 1169.5 c 128,-1,8
 313 1202 313 1202 370.5 1223.5 c 128,-1,9
 428 1245 428 1245 485.5 1257.5 c 128,-1,10
 543 1270 543 1270 595.5 1275 c 128,-1,11
 648 1280 648 1280 684 1280 c 1,12,-1
 684 1298 l 2,13,14
 684 1338 684 1338 671 1361.5 c 128,-1,15
 658 1385 658 1385 635 1398 c 128,-1,16
 612 1411 612 1411 579.5 1415 c 128,-1,17
 547 1419 547 1419 507 1419 c 0,18,19
 471 1419 471 1419 436 1414 c 128,-1,20
 401 1409 401 1409 370 1401.5 c 128,-1,21
 339 1394 339 1394 314.5 1384.5 c 128,-1,22
 290 1375 290 1375 277 1366 c 1,23,-1
 225 1515 l 1,24,25
 239 1524 239 1524 275 1537 c 128,-1,26
 311 1550 311 1550 363 1562 c 128,-1,27
 415 1574 415 1574 479 1583 c 128,-1,28
 543 1592 543 1592 614 1592 c 0,29,30
 662 1592 662 1592 709 1588 c 128,-1,31
 756 1584 756 1584 798 1573 c 128,-1,32
 840 1562 840 1562 876 1541.5 c 128,-1,33
 912 1521 912 1521 938 1488 c 128,-1,34
 964 1455 964 1455 978.5 1408 c 128,-1,35
 993 1361 993 1361 993 1296 c 2,36,-1
 991 886 l 1,37,-1
 1074 886 l 1,38,-1
 1074 780 l 1,39,40
 1052 775 1052 775 1021.5 767 c 128,-1,41
 991 759 991 759 957 751.5 c 128,-1,42
 923 744 923 744 887.5 738.5 c 128,-1,43
 852 733 852 733 819 733 c 0,44,45
 798 733 798 733 779.5 736 c 128,-1,46
 761 739 761 739 745.5 747 c 128,-1,47
 730 755 730 755 718.5 770.5 c 128,-1,48
 707 786 707 786 700 811 c 1,49,50
 662 779 662 779 597 756 c 128,-1,51
 532 733 532 733 435 733 c 0,0,1
539 904 m 0,52,53
 568 895 568 895 602 897.5 c 128,-1,54
 636 900 636 900 685 914 c 1,55,-1
 682 929 l 1,56,-1
 683 1164 l 1,57,58
 650 1160 650 1160 611 1150.5 c 128,-1,59
 572 1141 572 1141 538.5 1124 c 128,-1,60
 505 1107 505 1107 482 1080 c 128,-1,61
 459 1053 459 1053 459 1014 c 0,62,63
 459 999 459 999 463.5 982.5 c 128,-1,64
 468 966 468 966 477.5 951 c 128,-1,65
 487 936 487 936 502.5 923.5 c 128,-1,66
 518 911 518 911 539 904 c 0,52,53
EndSplineSet
EndChar

StartChar: ordmasculine
Encoding: 186 186 176
Width: 1169
Flags: W
LayerCount: 2
Fore
SplineSet
566 732 m 0,0,1
 463 732 463 732 380.5 759 c 128,-1,2
 298 786 298 786 240 841 c 128,-1,3
 182 896 182 896 151.5 977 c 128,-1,4
 121 1058 121 1058 123 1166 c 0,5,6
 124 1245 124 1245 144.5 1307 c 128,-1,7
 165 1369 165 1369 200 1416 c 128,-1,8
 235 1463 235 1463 280.5 1496 c 128,-1,9
 326 1529 326 1529 377 1550 c 128,-1,10
 428 1571 428 1571 481.5 1581.5 c 128,-1,11
 535 1592 535 1592 586 1593 c 0,12,13
 698 1596 698 1596 784.5 1565 c 128,-1,14
 871 1534 871 1534 929.5 1476.5 c 128,-1,15
 988 1419 988 1419 1017.5 1337 c 128,-1,16
 1047 1255 1047 1255 1046 1156 c 0,17,18
 1045 1078 1045 1078 1024 1016 c 128,-1,19
 1003 954 1003 954 967.5 907 c 128,-1,20
 932 860 932 860 885 827 c 128,-1,21
 838 794 838 794 785 773 c 128,-1,22
 732 752 732 752 675.5 742 c 128,-1,23
 619 732 619 732 566 732 c 0,0,1
590 866 m 0,24,25
 626 866 626 866 653 877.5 c 128,-1,26
 680 889 680 889 697.5 920.5 c 128,-1,27
 715 952 715 952 724 1007.5 c 128,-1,28
 733 1063 733 1063 733 1151 c 0,29,30
 733 1226 733 1226 721.5 1284.5 c 128,-1,31
 710 1343 710 1343 690.5 1382.5 c 128,-1,32
 671 1422 671 1422 645 1442.5 c 128,-1,33
 619 1463 619 1463 590 1463 c 0,34,35
 568 1463 568 1463 541 1452.5 c 128,-1,36
 514 1442 514 1442 491 1410.5 c 128,-1,37
 468 1379 468 1379 452 1321.5 c 128,-1,38
 436 1264 436 1264 436 1169 c 0,39,40
 436 1092 436 1092 448.5 1035 c 128,-1,41
 461 978 461 978 482.5 940.5 c 128,-1,42
 504 903 504 903 532 884.5 c 128,-1,43
 560 866 560 866 590 866 c 0,24,25
EndSplineSet
EndChar

StartChar: section
Encoding: 167 167 177
Width: 1353
Flags: W
LayerCount: 2
Fore
SplineSet
185 213 m 1,0,-1
 328 213 l 1,1,-1
 425 7 l 2,2,3
 441 -25 441 -25 466.5 -45 c 128,-1,4
 492 -65 492 -65 522.5 -76 c 128,-1,5
 553 -87 553 -87 586.5 -91.5 c 128,-1,6
 620 -96 620 -96 652 -96 c 0,7,8
 697 -96 697 -96 737.5 -88 c 128,-1,9
 778 -80 778 -80 809 -62.5 c 128,-1,10
 840 -45 840 -45 858 -17 c 128,-1,11
 876 11 876 11 876 52 c 0,12,13
 876 106 876 106 844 147 c 128,-1,14
 812 188 812 188 759.5 222.5 c 128,-1,15
 707 257 707 257 640.5 287.5 c 128,-1,16
 574 318 574 318 504 350 c 128,-1,17
 434 382 434 382 367.5 419.5 c 128,-1,18
 301 457 301 457 248.5 505 c 128,-1,19
 196 553 196 553 164 614 c 128,-1,20
 132 675 132 675 132 756 c 0,21,22
 132 797 132 797 145 842.5 c 128,-1,23
 158 888 158 888 181.5 932 c 128,-1,24
 205 976 205 976 236.5 1015.5 c 128,-1,25
 268 1055 268 1055 305 1083 c 1,26,27
 240 1134 240 1134 199 1198.5 c 128,-1,28
 158 1263 158 1263 158 1349 c 0,29,30
 158 1417 158 1417 180 1474.5 c 128,-1,31
 202 1532 202 1532 241 1579 c 128,-1,32
 280 1626 280 1626 332.5 1662 c 128,-1,33
 385 1698 385 1698 447 1722.5 c 128,-1,34
 509 1747 509 1747 576.5 1759.5 c 128,-1,35
 644 1772 644 1772 712 1772 c 0,36,37
 779 1772 779 1772 838.5 1766 c 128,-1,38
 898 1760 898 1760 947.5 1750.5 c 128,-1,39
 997 1741 997 1741 1035 1728.5 c 128,-1,40
 1073 1716 1073 1716 1097 1703 c 1,41,-1
 1097 1396 l 1,42,-1
 955 1396 l 1,43,-1
 833 1567 l 2,44,45
 819 1585 819 1585 784.5 1601 c 128,-1,46
 750 1617 750 1617 685 1617 c 0,47,48
 657 1617 657 1617 624 1606 c 128,-1,49
 591 1595 591 1595 562.5 1571 c 128,-1,50
 534 1547 534 1547 514.5 1509.5 c 128,-1,51
 495 1472 495 1472 495 1420 c 0,52,53
 495 1370 495 1370 524.5 1332.5 c 128,-1,54
 554 1295 554 1295 603 1264.5 c 128,-1,55
 652 1234 652 1234 715 1206.5 c 128,-1,56
 778 1179 778 1179 843.5 1149 c 128,-1,57
 909 1119 909 1119 971.5 1082.5 c 128,-1,58
 1034 1046 1034 1046 1083 997 c 128,-1,59
 1132 948 1132 948 1162 883.5 c 128,-1,60
 1192 819 1192 819 1191 733 c 0,61,62
 1190 639 1190 639 1154 555.5 c 128,-1,63
 1118 472 1118 472 1059 415 c 1,64,65
 1094 390 1094 390 1123.5 362 c 128,-1,66
 1153 334 1153 334 1174.5 301.5 c 128,-1,67
 1196 269 1196 269 1208 231.5 c 128,-1,68
 1220 194 1220 194 1220 151 c 0,69,70
 1220 70 1220 70 1199 8 c 128,-1,71
 1178 -54 1178 -54 1141.5 -100.5 c 128,-1,72
 1105 -147 1105 -147 1054 -178.5 c 128,-1,73
 1003 -210 1003 -210 942 -229 c 128,-1,74
 881 -248 881 -248 812 -256.5 c 128,-1,75
 743 -265 743 -265 670 -265 c 0,76,77
 591 -265 591 -265 514 -258 c 128,-1,78
 437 -251 437 -251 371.5 -239.5 c 128,-1,79
 306 -228 306 -228 257 -214.5 c 128,-1,80
 208 -201 208 -201 185 -188 c 1,81,-1
 185 213 l 1,0,-1
426 827 m 0,82,83
 426 772 426 772 466 730 c 128,-1,84
 506 688 506 688 570.5 652.5 c 128,-1,85
 635 617 635 617 715.5 584 c 128,-1,86
 796 551 796 551 877 514 c 1,87,88
 891 542 891 542 901.5 575 c 128,-1,89
 912 608 912 608 912 634 c 0,90,91
 912 694 912 694 872 740.5 c 128,-1,92
 832 787 832 787 768.5 827 c 128,-1,93
 705 867 705 867 626.5 903.5 c 128,-1,94
 548 940 548 940 470 981 c 1,95,96
 452 952 452 952 439 912 c 128,-1,97
 426 872 426 872 426 827 c 0,82,83
EndSplineSet
EndChar

StartChar: acute.cap
Encoding: 65551 -1 178
Width: 905
Flags: W
LayerCount: 2
Fore
SplineSet
211 1700 m 1,0,-1
 604 1920 l 1,1,-1
 797 1728 l 1,2,3
 769 1707 769 1707 725 1688.5 c 128,-1,4
 681 1670 681 1670 631 1654.5 c 128,-1,5
 581 1639 581 1639 529 1627.5 c 128,-1,6
 477 1616 477 1616 432.5 1608 c 128,-1,7
 388 1600 388 1600 355.5 1596 c 128,-1,8
 323 1592 323 1592 312 1593 c 1,9,-1
 211 1700 l 1,0,-1
EndSplineSet
EndChar

StartChar: AE
Encoding: 198 198 179
Width: 1937
Flags: W
LayerCount: 2
Fore
SplineSet
5 141 m 1,0,-1
 126 174 l 1,1,-1
 680 1553 l 1,2,-1
 1743 1553 l 1,3,-1
 1779 1211 l 1,4,-1
 1586 1211 l 1,5,-1
 1521 1360 l 1,6,-1
 1092 1382 l 1,7,-1
 1242 899 l 1,8,-1
 1494 905 l 1,9,-1
 1531 1055 l 1,10,-1
 1690 1055 l 1,11,-1
 1690 560 l 1,12,-1
 1530 560 l 1,13,-1
 1491 704 l 1,14,-1
 1298 719 l 1,15,-1
 1474 149 l 1,16,-1
 1642 178 l 1,17,-1
 1753 366 l 1,18,-1
 1927 332 l 1,19,-1
 1876 0 l 1,20,-1
 937 0 l 1,21,-1
 937 140 l 1,22,-1
 1095 181 l 1,23,-1
 1049 336 l 1,24,-1
 437 336 l 1,25,-1
 378 182 l 1,26,-1
 555 141 l 1,27,-1
 555 0 l 1,28,-1
 5 0 l 1,29,-1
 5 141 l 1,0,-1
992 531 m 1,30,-1
 821 1112 l 1,31,-1
 788 1262 l 1,32,-1
 511 531 l 1,33,-1
 992 531 l 1,30,-1
EndSplineSet
EndChar

StartChar: dollar
Encoding: 36 36 180
Width: 1366
Flags: W
LayerCount: 2
Fore
SplineSet
127 469 m 1,0,-1
 277 469 l 1,1,-1
 370 228 l 1,2,3
 397 193 397 193 429.5 172.5 c 128,-1,4
 462 152 462 152 498.5 141.5 c 128,-1,5
 535 131 535 131 574 128.5 c 128,-1,6
 613 126 613 126 652 126 c 256,7,8
 691 126 691 126 733 136.5 c 128,-1,9
 775 147 775 147 809.5 172.5 c 128,-1,10
 844 198 844 198 866.5 240.5 c 128,-1,11
 889 283 889 283 889 348 c 0,12,13
 889 399 889 399 858 441 c 128,-1,14
 827 483 827 483 776 521 c 128,-1,15
 725 559 725 559 659.5 594 c 128,-1,16
 594 629 594 629 525 667 c 1,17,18
 450 707 450 707 377.5 753 c 128,-1,19
 305 799 305 799 248 855.5 c 128,-1,20
 191 912 191 912 156 982 c 128,-1,21
 121 1052 121 1052 121 1141 c 0,22,23
 121 1236 121 1236 160.5 1311 c 128,-1,24
 200 1386 200 1386 265 1439.5 c 128,-1,25
 330 1493 330 1493 416 1524.5 c 128,-1,26
 502 1556 502 1556 595 1564 c 1,27,-1
 600 1771 l 1,28,-1
 814 1771 l 1,29,-1
 809 1560 l 1,30,31
 870 1555 870 1555 925 1547 c 128,-1,32
 980 1539 980 1539 1024 1530 c 128,-1,33
 1068 1521 1068 1521 1099 1511.5 c 128,-1,34
 1130 1502 1130 1502 1142 1495 c 1,35,-1
 1142 1164 l 1,36,-1
 978 1164 l 1,37,-1
 884 1374 l 1,38,39
 879 1380 879 1380 860.5 1388 c 128,-1,40
 842 1396 842 1396 815 1403.5 c 128,-1,41
 788 1411 788 1411 756 1416 c 128,-1,42
 724 1421 724 1421 693 1421 c 0,43,44
 653 1421 653 1421 611.5 1413 c 128,-1,45
 570 1405 570 1405 536.5 1386.5 c 128,-1,46
 503 1368 503 1368 481.5 1336.5 c 128,-1,47
 460 1305 460 1305 459 1257 c 1,48,49
 459 1201 459 1201 482.5 1155 c 128,-1,50
 506 1109 506 1109 546 1070 c 128,-1,51
 586 1031 586 1031 639 997 c 128,-1,52
 692 963 692 963 751 930 c 0,53,54
 807 899 807 899 865.5 868 c 128,-1,55
 924 837 924 837 979 802.5 c 128,-1,56
 1034 768 1034 768 1082.5 729.5 c 128,-1,57
 1131 691 1131 691 1167 644.5 c 128,-1,58
 1203 598 1203 598 1224 543 c 128,-1,59
 1245 488 1245 488 1245 421 c 0,60,61
 1245 331 1245 331 1209 253.5 c 128,-1,62
 1173 176 1173 176 1105.5 116.5 c 128,-1,63
 1038 57 1038 57 940 20 c 128,-1,64
 842 -17 842 -17 718 -25 c 1,65,-1
 709 -241 l 1,66,-1
 485 -241 l 1,67,-1
 494 -20 l 1,68,69
 439 -15 439 -15 385.5 -7 c 128,-1,70
 332 1 332 1 284 12 c 128,-1,71
 236 23 236 23 195.5 36 c 128,-1,72
 155 49 155 49 127 64 c 1,73,-1
 127 469 l 1,0,-1
EndSplineSet
EndChar

StartChar: Oslash
Encoding: 216 216 181
Width: 1600
Flags: W
LayerCount: 2
Fore
SplineSet
466 43 m 1,0,1
 370 89 370 89 294.5 160.5 c 128,-1,2
 219 232 219 232 167 324 c 128,-1,3
 115 416 115 416 89 525 c 128,-1,4
 63 634 63 634 66 754 c 0,5,6
 69 880 69 880 99.5 989 c 128,-1,7
 130 1098 130 1098 181.5 1188.5 c 128,-1,8
 233 1279 233 1279 303.5 1349.5 c 128,-1,9
 374 1420 374 1420 456.5 1468.5 c 128,-1,10
 539 1517 539 1517 631 1542 c 128,-1,11
 723 1567 723 1567 818 1567 c 0,12,13
 874 1567 874 1567 926.5 1560 c 128,-1,14
 979 1553 979 1553 1028 1539 c 1,15,-1
 1081 1692 l 1,16,-1
 1209 1648 l 1,17,-1
 1153 1490 l 1,18,19
 1244 1444 1244 1444 1315.5 1373.5 c 128,-1,20
 1387 1303 1387 1303 1436.5 1213 c 128,-1,21
 1486 1123 1486 1123 1511 1016 c 128,-1,22
 1536 909 1536 909 1534 790 c 0,23,24
 1530 601 1530 601 1472.5 449.5 c 128,-1,25
 1415 298 1415 298 1316.5 192 c 128,-1,26
 1218 86 1218 86 1085 29 c 128,-1,27
 952 -28 952 -28 797 -28 c 0,28,29
 688 -28 688 -28 590 -2 c 1,30,-1
 501 -214 l 1,31,-1
 378 -169 l 1,32,-1
 466 43 l 1,0,1
944 1358 m 1,33,34
 915 1379 915 1379 881.5 1390.5 c 128,-1,35
 848 1402 848 1402 809 1402 c 0,36,37
 710 1402 710 1402 642.5 1359.5 c 128,-1,38
 575 1317 575 1317 534.5 1235 c 128,-1,39
 494 1153 494 1153 476.5 1032.5 c 128,-1,40
 459 912 459 912 459 755 c 0,41,42
 459 702 459 702 465.5 641.5 c 128,-1,43
 472 581 472 581 485.5 519 c 128,-1,44
 499 457 499 457 521 397.5 c 128,-1,45
 543 338 543 338 573 288 c 1,46,-1
 944 1358 l 1,33,34
674 175 m 1,47,48
 703 155 703 155 737 143.5 c 128,-1,49
 771 132 771 132 810 132 c 0,50,51
 907 132 907 132 971.5 173 c 128,-1,52
 1036 214 1036 214 1073.5 296 c 128,-1,53
 1111 378 1111 378 1126.5 501 c 128,-1,54
 1142 624 1142 624 1142 789 c 0,55,56
 1142 844 1142 844 1136.5 903 c 128,-1,57
 1131 962 1131 962 1119 1020.5 c 128,-1,58
 1107 1079 1107 1079 1088.5 1134.5 c 128,-1,59
 1070 1190 1070 1190 1045 1237 c 1,60,-1
 674 175 l 1,47,48
EndSplineSet
EndChar

